<svg id="visual" viewBox="0 0 900 600" width="900" height="600" xmlns="http://www.w3.org/2000/svg" xmlns:xlink="http://www.w3.org/1999/xlink" version="1.1"><rect width="900" height="600" fill="#ffffff00"></rect><g><g transform="translate(381 374)"><path d="M0 -97.5L84.4 -48.7L84.4 48.7L0 97.5L-84.4 48.7L-84.4 -48.7Z" fill="#2ec4ff23"></path></g><g transform="translate(77 200)"><path d="M0 -74L64.1 -37L64.1 37L0 74L-64.1 37L-64.1 -37Z" fill="#2ec4ff23"></path></g><g transform="translate(187 500)"><path d="M0 -69L59.8 -34.5L59.8 34.5L0 69L-59.8 34.5L-59.8 -34.5Z" fill="#2ec4ff23"></path></g><g transform="translate(304 183)"><path d="M0 -83L71.9 -41.5L71.9 41.5L0 83L-71.9 41.5L-71.9 -41.5Z" fill="#2ec4ff23"></path></g><g transform="translate(640 141)"><path d="M0 -61L52.8 -30.5L52.8 30.5L0 61L-52.8 30.5L-52.8 -30.5Z" fill="#fff"></path></g><g transform="translate(72 351)"><path d="M0 -36L31.2 -18L31.2 18L0 36L-31.2 18L-31.2 -18Z" fill="#2ec4ff23"></path></g><g transform="translate(552 474)"><path d="M0 -55L47.6 -27.5L47.6 27.5L0 55L-47.6 27.5L-47.6 -27.5Z" fill="#fff"></path></g><g transform="translate(820 258)"><path d="M0 -53L45.9 -26.5L45.9 26.5L0 53L-45.9 26.5L-45.9 -26.5Z" fill="#2ec4ff23"></path></g><g transform="translate(757 508)"><path d="M0 -81L70.1 -40.5L70.1 40.5L0 81L-70.1 40.5L-70.1 -40.5Z" fill="#fff"></path></g><g transform="translate(86 528)"><path d="M0 -40L34.6 -20L34.6 20L0 40L-34.6 20L-34.6 -20Z" fill="#2ec4ff23"></path></g></g></svg>