<?xml version="1.0" encoding="utf-8"?>
<!-- Generator: Adobe Illustrator 25.3.0, SVG Export Plug-In . SVG Version: 6.00 Build 0)  -->
<svg version="1.1" xmlns="http://www.w3.org/2000/svg" xmlns:xlink="http://www.w3.org/1999/xlink" x="0px" y="0px"
	 viewBox="0 0 810.1 368.6" style="enable-background:new 0 0 810.1 368.6;" xml:space="preserve">
<style type="text/css">
	.st0{display:none;}
	.st1{display:inline;}
	.st2{fill:#B9B8D1;}
	.st3{display:inline;fill:#B9B8D1;}
	.st4{stroke:#000000;stroke-width:0.5;stroke-miterlimit:10;}
</style>
<g id="Camada_5" class="st0">
	<rect x="-71.9" y="-199.7" class="st1" width="882" height="768"/>
</g>
<g id="shepAlter" class="st0">
	<g class="st1">
		<g id="XMLID_2_">
			<g>
				<path d="M157.2,169c-0.9,4.6-1.8,9.2-2.5,13.7c-2.2,13.1-4,26.2-5.2,39.4c-0.7,7.6-1.3,15.2-1.7,22.8
					c-10.6,10-21.9,19.7-34.6,27c-5.2,2.9-10.6,5.5-16.4,7c-5.6,1.4-11.5,1.9-17.3,1.7c-20.1-0.7-39.2-10.2-54.9-22.2
					c-0.9-0.7-1.9-1.4-2.8-2.2c1.6-1.8,3.2-3.5,4.8-5.2c9.4-10.2,18.8-20.3,28.1-30.5c10-10.8,19.9-21.6,29.9-32.4
					c6.1-6.6,12.2-13.2,18.2-19.8c0.2-0.3,0.7-1,1.1-1.2c0.4-0.2,1.8,0.5,2.2,0.6c1.8,0.5,3.5,0.9,5.3,1.3c3.5,0.8,7,1.3,10.5,1.7
					C133.6,172.2,145.6,171.5,157.2,169z"/>
				<path d="M634.6,166.3c0.7,0.6,1.3,1.4,1.9,2c1.1,1.2,2.3,2.4,3.4,3.7c3.5,3.8,7,7.6,10.5,11.3c9.9,10.7,19.8,21.5,29.8,32.2
					c9.8,10.6,19.7,21.3,29.5,31.9c2.7,2.9,5.3,5.8,8,8.7c-0.4,0.3-0.8,0.6-1.1,0.9c-7.1,5.6-14.7,10.5-22.9,14.5
					c-10.1,4.9-21,8.3-32.3,9c-6,0.3-12.1-0.1-18-1.5c-5.8-1.4-11.2-3.9-16.4-6.7c-12.8-7.2-24.2-16.9-34.9-27
					c-1.4-1.3-2.8-2.7-4.2-4.1c-1.5-24.2-4.5-48.3-9.2-72c1.3,0.3,2.6,0.5,4,0.8c7.2,1.2,14.5,1.7,21.9,1.5
					c7.2-0.2,14.4-1.2,21.4-2.9c1.6-0.4,3.2-0.8,4.8-1.3c0.9-0.2,1.7-0.5,2.6-0.8c0.2-0.1,1.1-0.5,1.3-0.4
					C634.4,166.1,634.5,166.3,634.6,166.3z"/>
				<path d="M587.6,241.2c1.4,1.4,2.8,2.7,4.2,4.1c10.7,10.1,22,19.8,34.9,27c5.1,2.9,10.6,5.4,16.4,6.7c5.9,1.4,12,1.9,18,1.5
					c11.3-0.6,22.2-4.1,32.3-9c8.1-4,15.8-8.9,22.9-14.5c0.4-0.3,0.8-0.6,1.1-0.9c-2.7-2.9-5.3-5.8-8-8.7
					c-9.8-10.7-19.7-21.3-29.5-31.9c-9.9-10.7-19.8-21.5-29.8-32.2c-3.5-3.8-7-7.6-10.5-11.3c-1.1-1.2-2.3-2.4-3.4-3.7
					c-0.6-0.6-1.2-1.4-1.9-2c-0.1-0.1-0.2-0.3-0.3-0.3c-0.2-0.1-1.1,0.4-1.3,0.4c-0.8,0.3-1.7,0.5-2.6,0.8c-1.6,0.5-3.2,0.9-4.8,1.3
					c-7,1.7-14.2,2.7-21.4,2.9c-7.3,0.3-14.7-0.2-21.9-1.5c-1.3-0.2-2.6-0.5-4-0.8C583.1,193,586.1,217.1,587.6,241.2z M570,152.1
					c0.4,0.1,0.9,0.3,1.3,0.4c14,4,28.7,5,43.1,3.2c3.6-0.5,7.2-1.1,10.8-2c1.8-0.4,3.5-0.9,5.2-1.4c0.9-0.2,1.7-0.5,2.6-0.8
					c0.2-0.1,1.1-0.5,1.3-0.4c0.3,0.1,0.8,0.8,1,1.1c6,6.6,12.1,13.1,18.2,19.7c10.2,11,20.3,22,30.5,33c9.5,10.3,19,20.6,28.5,30.9
					c4.2,4.6,8.5,9.2,12.7,13.8c0.2,0.3,0,1.8,0.1,2.2c0,1.8,0,3.5,0,5.3c0,1.8,0,3.5,0,5.3c0,0,0,0,0,0.1c0,0.2,0.1,2,0,2.1v0
					c0,0.1-0.1,0.1-0.2,0.2c-0.3,0.4-0.8,0.8-1.2,1.1c-0.8,0.7-1.6,1.5-2.4,2.1c-2.5,2.2-5.1,4.3-7.8,6.3
					c-7.9,5.9-16.5,11.1-25.7,14.9c-10.8,4.5-22.6,7.2-34.4,6.4c-6.1-0.4-12.1-1.6-17.7-3.9c-6.2-2.5-12.1-6-17.6-9.7
					c-6.3-4.3-12.2-9.1-18-14.1c-3-2.6-5.9-5.3-8.8-8c-0.8-0.8-1.6-1.5-2.4-2.3c-0.3-0.3-0.7-0.6-1-1c-0.4-0.4-0.3-0.5-0.4-1.1
					c-0.1-2.1-0.3-4.1-0.4-6.2c-0.5-6.6-1.1-13.3-1.8-19.9c-1.3-11.4-2.9-22.8-4.9-34.2c-1-5.6-2-11.1-3.2-16.6
					c-0.3-1.5-0.6-3-1-4.5c-0.1-0.6-0.3-1.2-0.4-1.8c0-0.2-0.1-0.7-0.2-0.9c-0.3-0.5-0.2-0.5-0.8-0.6c-2.8-0.7-5.6-1.4-8.3-2.3
					c-0.1-0.1,0-1.9,0-2.2c0-1.8,0-3.5,0-5.3c0-1.8,0-3.5,0-5.3c0,0.1-0.1-2,0-2.2c0,0,0,0,0,0c0.5-0.5,1-1,1.6-1.5
					c0.1-0.1,0.3-0.4,0.4-0.4C568.9,151.6,569.7,152,570,152.1z"/>
				<path d="M154.7,182.7c0.8-4.6,1.6-9.2,2.5-13.7c-11.6,2.6-23.6,3.2-35.3,1.8c-3.5-0.4-7-1-10.5-1.7c-1.8-0.4-3.6-0.8-5.3-1.3
					c-0.4-0.1-1.8-0.8-2.2-0.6c-0.4,0.1-0.8,0.9-1.1,1.2c-6.1,6.6-12.2,13.2-18.2,19.8c-10,10.8-19.9,21.6-29.9,32.4
					c-9.4,10.2-18.8,20.3-28.1,30.5c-1.6,1.8-3.2,3.5-4.8,5.2c0.9,0.7,1.9,1.5,2.8,2.2c15.8,12,34.8,21.5,54.9,22.2
					c5.8,0.2,11.6-0.3,17.3-1.7c5.8-1.4,11.2-4,16.4-7c12.7-7.3,24-17,34.6-27c0.4-7.6,1-15.2,1.7-22.8
					C150.7,209,152.4,195.8,154.7,182.7z M170.7,164.6c0,0.2,0,2.2-0.1,2.2c-3.2,1.2-6.4,2.2-9.7,3.1c-0.2,0-0.3,0.1-0.5,0.1
					c-0.4,0-0.6,0.1-0.5,0.6c-0.1,0.2-0.2,0.7-0.2,0.9c-0.2,0.7-0.3,1.5-0.5,2.2c-0.4,1.6-0.7,3.3-1,4.9
					c-4.9,23.4-8.1,47.1-9.9,70.9c-0.1,2-0.3,3.9-0.4,5.9c-0.1,1.1-0.1,2.3-0.2,3.4c0,0.5,0,0.8-0.2,1.2c-0.2,0.4-0.7,0.7-1,1
					c-1.4,1.4-2.9,2.7-4.4,4c-3,2.7-6,5.3-9.1,7.8c-5.7,4.7-11.7,9.1-18.1,12.9c-5.4,3.2-11.1,6.1-17.2,7.8
					c-5.9,1.6-12.1,2.2-18.2,2c-11.5-0.4-22.7-3.7-33-8.6c-8.4-4-16.2-9-23.5-14.7c-3.1-2.5-6.2-5-9-7.8c0,0,0,0,0,0s0,0,0,0
					c-0.2-0.3,0-1.8,0-2.2c0-1.8,0-3.5,0-5.3c0-1.8,0-3.5,0-5.3c0,0.1-0.1-1.9,0-2.2c0,0,0,0,0,0c0,0,0,0,0,0
					c0.1-0.1,0.2-0.2,0.2-0.2c0.5-0.7,1.1-1.2,1.7-1.8c1.1-1.2,2.2-2.4,3.3-3.5c3.4-3.6,6.7-7.3,10-10.9c9.7-10.5,19.4-21,29.1-31.5
					c9.7-10.5,19.5-21.1,29.2-31.6c5.3-5.8,10.6-11.5,15.9-17.2c0.1-0.1,0.2-0.3,0.3-0.4c0.3-0.1,1.9,0.5,2.2,0.6
					c1.6,0.4,3.2,0.9,4.9,1.2c7.1,1.6,14.4,2.4,21.7,2.5c7.1,0.1,14.3-0.5,21.3-1.8c3.4-0.7,6.8-1.5,10.2-2.4c1-0.3,2-0.6,3-0.9
					c0.4-0.2,1.7-0.8,2.1-0.7c0.4,0.1,1.1,1,1.4,1.3c0.2,0.2,0.1,1.5,0.1,2c0,0.1,0,0.1,0,0.2c0,1.8,0,3.5,0,5.3
					C170.8,161.1,170.8,162.9,170.7,164.6z"/>
			</g>
			<g>
			</g>
		</g>
	</g>
	<g class="st1">
		<path class="st2" d="M725.2,262.3C725.2,262.2,725.2,262.2,725.2,262.3c0-1.8,0-3.6,0-5.3c0-1.8,0-3.5,0-5.3
			c0-0.4,0.2-1.9-0.1-2.2c-4.2-4.6-8.5-9.2-12.7-13.8c-9.5-10.3-19-20.6-28.5-30.9c-10.2-11-20.3-22-30.5-33
			c-6-6.6-12.1-13.1-18.2-19.7c-0.2-0.3-0.7-1-1-1.1c-0.2-0.1-1.1,0.4-1.3,0.4c-0.8,0.3-1.7,0.5-2.6,0.8c-1.7,0.5-3.5,1-5.2,1.4
			c-3.5,0.9-7.1,1.5-10.8,2c-14.4,1.9-29.2,0.8-43.1-3.2c-0.4-0.1-0.9-0.2-1.3-0.4c-0.2-0.1-1.1-0.5-1.3-0.4c-0.1,0-0.3,0.3-0.4,0.4
			c-0.5,0.5-1.1,1-1.6,1.5c0,0,0,0,0,0c0,0,0,0,0,0c-0.2,0.2,0,2.3,0,2.2c0,1.8,0,3.5,0,5.3c0,1.8,0,3.5,0,5.3c0,0.2-0.1,2.2,0,2.2
			c2.7,0.9,5.5,1.7,8.3,2.3c0.6,0.1,0.5,0.1,0.8,0.6c0.1,0.2,0.2,0.7,0.2,0.9c0.1,0.6,0.3,1.2,0.4,1.8c0.3,1.5,0.6,3,1,4.5
			c1.1,5.5,2.2,11,3.2,16.6c2,11.3,3.6,22.8,4.8,34.2c0.7,6.6,1.3,13.3,1.8,19.9c0.2,2.1,0.3,4.1,0.4,6.2c0,0.6,0,0.7,0.4,1.1
			c0.3,0.4,0.7,0.7,1,1c0.8,0.8,1.6,1.5,2.4,2.3c2.9,2.7,5.8,5.4,8.8,8c5.7,5,11.7,9.8,18,14.1c5.5,3.8,11.4,7.2,17.6,9.7
			c5.7,2.3,11.7,3.5,17.7,3.9c11.8,0.7,23.6-1.9,34.4-6.5c9.2-3.8,17.7-9,25.7-14.9c2.7-2,5.3-4.1,7.8-6.3c0.8-0.7,1.6-1.4,2.4-2.1
			c0.4-0.4,0.9-0.7,1.2-1.2c0-0.1,0.1-0.1,0.2-0.2c0,0,0,0,0,0c0,0,0,0,0,0c0,0,0,0,0,0C725.3,264.2,725.2,262.5,725.2,262.3z
			 M693.5,271.6c-10.1,4.9-21,8.3-32.3,9c-6,0.3-12.1-0.1-18-1.5c-5.8-1.3-11.2-3.8-16.4-6.7c-12.8-7.2-24.2-16.9-34.9-27
			c-1.4-1.3-2.8-2.7-4.2-4.1c-1.5-24.2-4.5-48.3-9.2-72c1.3,0.3,2.6,0.5,3.9,0.8c7.2,1.2,14.5,1.7,21.9,1.5
			c7.2-0.2,14.4-1.2,21.4-2.9c1.6-0.4,3.2-0.8,4.8-1.3c0.9-0.2,1.7-0.5,2.6-0.8c0.2-0.1,1.1-0.5,1.3-0.4c0.1,0,0.2,0.2,0.3,0.3
			c0.7,0.6,1.3,1.4,1.9,2c1.1,1.2,2.3,2.5,3.4,3.7c3.5,3.8,7,7.6,10.5,11.3c9.9,10.7,19.8,21.5,29.8,32.2
			c9.8,10.6,19.7,21.3,29.5,31.9c2.7,2.9,5.3,5.8,8,8.7c-0.4,0.3-0.8,0.6-1.1,0.9C709.3,262.7,701.6,267.6,693.5,271.6z"/>
		<path class="st2" d="M170.7,151.9c-0.3-0.3-1-1.2-1.4-1.3c-0.5-0.1-1.7,0.6-2.1,0.7c-1,0.3-2,0.6-3,0.9c-3.3,1-6.7,1.8-10.2,2.5
			c-7,1.3-14.2,1.9-21.3,1.8c-7.3-0.1-14.6-0.9-21.7-2.5c-1.6-0.4-3.3-0.8-4.9-1.2c-0.4-0.1-1.9-0.7-2.2-0.6
			c-0.1,0.1-0.3,0.3-0.4,0.4c-5.3,5.8-10.6,11.5-15.9,17.2c-9.7,10.5-19.5,21.1-29.2,31.6C48.7,212,39,222.5,29.3,233
			c-3.3,3.6-6.7,7.3-10,10.9c-1.1,1.2-2.2,2.4-3.3,3.5c-0.5,0.6-1.2,1.2-1.7,1.8c-0.1,0.1-0.1,0.2-0.2,0.2c0,0,0,0,0,0c0,0,0,0,0,0
			c-0.2,0.3,0,2.2,0,2.2c0,1.8,0,3.5,0,5.3c0,1.8,0,3.5,0,5.3c0,0.4-0.2,1.9,0,2.2c0,0,0,0,0,0c0,0,0,0,0,0c0,0,0,0,0,0
			c2.8,2.8,5.9,5.4,9,7.8C30.4,278,38.2,283,46.6,287c10.3,4.9,21.5,8.2,33,8.6c6.1,0.2,12.3-0.4,18.2-2c6.1-1.7,11.8-4.5,17.2-7.8
			c6.4-3.8,12.3-8.2,18.1-12.9c3.1-2.5,6.1-5.1,9-7.8c1.5-1.3,2.9-2.7,4.4-4c0.3-0.3,0.8-0.6,1-1c0.2-0.4,0.2-0.7,0.2-1.2
			c0.1-1.1,0.1-2.3,0.2-3.4c0.1-2,0.3-3.9,0.4-5.9c1.8-23.8,5-47.5,9.9-70.9c0.3-1.6,0.7-3.3,1-4.9c0.2-0.7,0.3-1.5,0.5-2.2
			c0.1-0.2,0.1-0.7,0.2-0.9c0-0.4,0.1-0.6,0.5-0.6c0.2,0,0.3-0.1,0.5-0.1c3.3-0.9,6.5-2,9.7-3.1c0.1,0,0.1-2.5,0-2.2
			c0-1.8,0-3.5,0-5.3c0-1.8,0-3.5,0-5.3c0,0,0-0.1,0-0.2C170.8,153.3,170.9,152,170.7,151.9z M149.4,222.2
			c-0.7,7.6-1.3,15.2-1.7,22.8c-10.6,10-21.9,19.7-34.6,27c-5.1,2.9-10.6,5.5-16.4,7c-5.6,1.4-11.5,1.9-17.3,1.7
			c-20.1-0.7-39.2-10.2-54.9-22.2c-0.9-0.7-1.9-1.4-2.8-2.2c1.6-1.7,3.2-3.5,4.8-5.2c9.4-10.2,18.8-20.3,28.1-30.5
			c10-10.8,19.9-21.6,29.9-32.4c6.1-6.6,12.1-13.2,18.2-19.8c0.2-0.3,0.7-1,1.1-1.2c0.4-0.1,1.8,0.5,2.2,0.6
			c1.8,0.5,3.5,0.9,5.3,1.3c3.5,0.8,7,1.3,10.5,1.7c11.8,1.4,23.8,0.7,35.3-1.8c-0.9,4.6-1.8,9.1-2.5,13.7
			C152.4,195.8,150.7,209,149.4,222.2z M170.7,164.6C170.7,164.6,170.7,164.6,170.7,164.6C170.7,164.6,170.7,164.6,170.7,164.6z"/>
	</g>
	<g class="st1">
		<g id="XMLID_1_">
			<g>
				<path d="M204.3,171.9c0.2-0.1,1.7-1.1,1.9-1.1c0.2,0.1,0.8,1.3,0.9,1.5c1.2,2,2.5,3.9,3.9,5.8c5.7,7.9,12.4,14.9,20,20.9
					c15.3,12.2,34,19.9,53.5,22c21.1,2.4,42.8-1.8,61.5-11.9c4.4-2.4,8.7-5.1,12.7-8.1c2-1.5,4-3.1,5.9-4.7c1-0.8,1.9-1.6,2.8-2.5
					c0.2-0.2,1.1-1.3,1.4-1.3c0.4,0,1.5,1.4,1.8,1.7c7.7,7.1,16.5,12.9,26,17.4c37.3,17.6,82.7,11.1,113.8-16
					c3.7-3.2,7.1-6.7,10.3-10.3c1.5-1.8,3-3.6,4.4-5.4c0.7-0.9,1.4-1.9,2.1-2.8c0.7-1,1.4-2.7,2.3-3.4c0.1-0.2,0.2-0.3,0.3-0.5
					c0.4,0.2,0.8,0.4,1.3,0.6c0.6,0.3,1.3,0.6,1.9,0.9c1.3,0.6,2.6,1.2,3.9,1.8c2.6,1.1,5.3,2.1,8,3c2.7,0.9,5.5,1.7,8.3,2.4
					c0.2,0.1,0.5,0.1,0.7,0.2c0.6-0.1,0.9,0.2,0.9,0.9c0.3,0.6,0.3,1.5,0.5,2.1c0.4,1.6,0.7,3.3,1,4.9c5,24.1,8.3,48.5,10,73.1
					c0.4,6.1,0.8,12.3,1,18.4c0.1,3.1,0.2,6.2,0.3,9.3c0,1.4,0.1,2.9,0.1,4.3c0,0.1,0,0.1,0,0.1c0,0.1,0,0.2,0,0.2
					c0,0.1,0,0.2,0,0.4c0,1,0,2-0.1,3c-0.1,2.3-0.2,4.6-0.3,6.9c-0.3,4.4-0.7,8.8-1.2,13.2c-1,8.2-2.4,16.4-4.2,24.5
					c-3.4,15-8.4,29.6-14.9,43.6c-11.5,24.6-27.7,46.9-47.6,65.4c-16.9,15.7-36.3,28.8-57.5,37.7c-15.4,6.5-32.7,11.6-49.5,10.3
					c-10.3-0.8-22.2-5-24.6-16.3c-0.1-0.6-0.2-1.2-0.3-1.8c0-0.3-0.1-0.6-0.1-0.8c0-0.1,0-0.2,0-0.3c0-0.1,0-0.1,0-0.2c0,0,0,0,0,0
					c0-0.4,0-0.7,0-0.9c0,0,0,0,0,0c0-0.4,0-0.7,0-0.8c0,0,0,0,0,0c0,0,0,0,0,0.1c0,0.1,0,0.2,0,0.5c0,0.1,0,0.2,0,0.3
					c0,0.2,0,0.6,0,1c0,0.1,0,0.2,0,0.3c0,0.3,0,0.6-0.1,0.8c-0.1,0.7-0.2,1.3-0.3,2c-0.3,1.2-0.6,2.3-1.1,3.5c-0.9,2.1-2.3,4-4,5.6
					c-3.9,3.7-9.2,5.6-14.4,6.5c-15.6,2.8-32.4-1.4-47-6.7c-20.8-7.6-40-19.3-56.9-33.5c-20.2-17-37.3-37.7-49.9-61
					c-14.8-27.3-23.3-57.7-25.8-88.6c-0.4-4.5-0.6-9-0.7-13.5c0-0.2,0-0.5,0-0.8c0-0.1,0-0.3,0-0.4c0-2.8,0.1-5.7,0.2-8.5
					c0.4-12.6,1.1-25.2,2.3-37.8c1.2-12.3,2.7-24.5,4.7-36.7c0.9-5.7,1.9-11.4,3.1-17.1c0.6-2.8,1.1-5.6,1.7-8.4
					c0.3-1.4,0.6-2.8,0.9-4.2c0.1-0.2,0.1-0.5,0.2-0.7c-0.1-0.6,0.2-0.9,0.9-0.9c0.8-0.4,2-0.6,2.8-0.8c5.8-1.7,11.5-4,16.9-6.7
					C201.7,173.3,203,172.6,204.3,171.9z"/>
				<path d="M367.1,479.6c0,0.1,0,0.3,0,0.8c0-0.2,0-0.3,0-0.3c0,0.1,0,0.2,0,0.3c0-0.1,0-0.2,0-0.3c0,0,0,0,0,0
					C367.1,479.8,367.1,479.7,367.1,479.6C367.1,479.6,367.1,479.6,367.1,479.6C367.1,479.5,367.1,479.6,367.1,479.6z"/>
				<path d="M167.5,310.4c2.5,30.9,11,61.3,25.8,88.6c12.6,23.2,29.6,44,49.9,61c16.9,14.2,36.2,25.9,56.9,33.5
					c14.6,5.3,31.4,9.5,47,6.7c5.2-0.9,10.5-2.8,14.4-6.5c1.7-1.6,3.1-3.5,4-5.6c0.5-1.1,0.9-2.3,1.1-3.5c0.1-0.6,0.2-1.3,0.3-2
					c0-0.3,0.1-0.6,0.1-0.8c0-0.1,0-0.2,0-0.3c0-0.4,0-0.8,0-1c0,0.2,0,0.5,0,0.9c0-0.2,0-0.5,0-0.8c0,0.3,0,0.5,0,0.8c0,0,0,0,0,0
					c0,0,0,0.1,0,0.2c0,0.1,0,0.2,0,0.3c0,0.3,0,0.6,0.1,0.8c0.1,0.6,0.2,1.2,0.3,1.8c2.4,11.4,14.3,15.6,24.6,16.3
					c16.9,1.3,34.2-3.8,49.5-10.3c21.2-9,40.7-22.1,57.5-37.7c19.9-18.5,36.2-40.8,47.6-65.4c6.5-14,11.5-28.6,14.9-43.6
					c1.8-8.1,3.2-16.3,4.2-24.5c0.5-4.4,0.9-8.8,1.2-13.2c0.2-2.3,0.3-4.6,0.3-6.9c0-1,0.1-2,0.1-3c0-0.1,0-0.2,0-0.4
					c0,0.5,0,0.9,0,1.4v0h0.2c0,0.1,0,7.5-0.1,7.5c0,0,0-0.1,0-0.2c-0.2,11.9-0.8,23.8-2.5,35.6c-3.3,23.5-10.3,46.4-20.9,67.6
					c-9.3,18.6-21.4,35.8-35.8,50.9c-12.8,13.4-27.3,25.2-43.2,34.8c-13.4,8.1-27.7,14.7-42.8,18.8c-11.2,3-23.3,5-34.8,3.1
					c-7.7-1.3-15.8-4.8-19.1-12.3c-0.8-1.7-1.2-3.6-1.4-5.5c0-0.4-0.1-0.9-0.1-1.4c0,0.4,0,0.8-0.1,1.2c-0.4,3.7-1.8,7.2-4.2,10
					c-5.7,6.6-15.3,8.4-23.6,8.6c-12.7,0.4-25.5-2.7-37.4-6.9c-15.5-5.5-30.1-13.3-43.6-22.7c-15.7-10.9-29.9-24-42.1-38.7
					c-13.7-16.6-24.8-35.2-32.9-55.1c-9.2-22.8-14.4-47-16-71.5c-0.5-7.7-0.7-15.5-0.8-23.3h0.3c0,0,0,0,0,0c0,0,0-0.1,0-0.2
					c0-0.5,0-0.9,0-1.4c0,0.3,0,0.6,0,0.8C166.9,301.4,167.1,305.9,167.5,310.4z"/>
				<path d="M166.7,295.6c0,0.1,0,0.3,0,0.4C166.7,295.9,166.7,295.8,166.7,295.6C166.7,295.7,166.7,295.7,166.7,295.6z"/>
				<path d="M178.7,187.2c-0.6,2.8-1.2,5.6-1.7,8.4c-1.1,5.7-2.1,11.4-3.1,17.1c-2,12.2-3.6,24.4-4.7,36.7
					c-1.2,12.6-2,25.2-2.3,37.8c-0.1,2.8-0.1,5.7-0.2,8.5c0-0.1,0-0.1,0-0.2c0,0.1,0,0.2,0,0.2c0,0.4,0,0.8,0,1.2c0,0.2,0,0.7,0,0.8
					c0,0,0,0,0,0h-0.3c-0.1-11.7,0.3-23.4,0.9-35c0.9-18.9,2.6-37.7,5.4-56.3c1.3-9.1,2.9-18.1,4.7-27.2c0.5-2.3,0.9-4.7,1.4-7
					c0.2-0.9,0.4-1.9,0.6-2.8c0.1-0.6,0.2-1.5,0.5-2.1c0.4-0.8-0.3-0.4,0.9-0.9c2.2-1,4.8-1.4,7-2.2c2.1-0.7,4.1-1.5,6.1-2.3
					c2.2-0.9,4.4-1.9,6.6-3c0.9-0.4,1.7-0.9,2.6-1.3c0.4-0.2,2.7-1.9,3.2-1.8c0.5,0.2,1.3,2.1,1.5,2.5c0.5,0.8,1.1,1.6,1.6,2.4
					c1,1.4,2,2.9,3.1,4.2c4.4,5.9,9.5,11.3,15,16.1c23.4,20.3,55.3,29.3,86,24.3c15.9-2.6,31.2-9,44.3-18.4c3.2-2.3,6.3-4.8,9.2-7.5
					c0.4-0.4,0.9-1,1.4-1.3c1-0.6,0.1-0.4,0.9,0c0.8,0.3,1.7,1.6,2.3,2.1c1.4,1.2,2.8,2.5,4.3,3.6c6.2,5,13,9.2,20.2,12.7
					c28.9,13.8,63.4,13.5,92-0.7c13.3-6.6,25.1-16.1,34.5-27.5c2.3-2.9,4.5-5.8,6.6-8.9c0.1-0.2,0.2-0.3,0.3-0.5
					c0.2-0.6,0.5-0.7,0.9-0.2c0.3,0.1,1,0.5,1.3,0.6c1.1,0.5,2.1,1,3.2,1.5c2,0.9,3.9,1.7,5.9,2.5c2.2,0.8,4.5,1.6,6.8,2.3
					c0.9,0.3,1.9,0.6,2.8,0.8c1,0.3,2.6,0.4,3.5,0.9c0.2,0.1,0.5,0.1,0.7,0.2c0.1,0.5,0.2,0.9,0.3,1.4c0.1,0.5,0.2,0.9,0.3,1.4
					c0.3,1.2,0.5,2.3,0.8,3.5c0.4,2.1,0.9,4.2,1.3,6.3c7.6,38.6,10.5,77.7,10.5,117h-0.2v0c0-0.1,0-0.3,0-0.7c0-0.2,0-0.5,0-0.7
					c0-0.1,0-0.2,0-0.2c0,0,0-0.1,0-0.1c0-1.4,0-2.9-0.1-4.3c-0.1-3.1-0.2-6.2-0.3-9.3c-0.2-6.1-0.6-12.3-1-18.4
					c-1.7-24.5-5-49-10-73.1c-0.3-1.6-0.7-3.3-1-4.9c-0.1-0.6-0.2-1.5-0.5-2.1c0.1-0.6-0.2-0.9-0.9-0.9c-0.2-0.1-0.5-0.1-0.7-0.2
					c-2.8-0.7-5.6-1.5-8.3-2.4c-2.7-0.9-5.4-1.9-8-3c-1.3-0.6-2.6-1.1-3.9-1.8c-0.6-0.3-1.3-0.6-1.9-0.9c-0.4-0.2-0.8-0.4-1.3-0.6
					c-0.1,0.2-0.2,0.3-0.3,0.5c-0.9,0.7-1.6,2.4-2.3,3.4c-0.7,0.9-1.4,1.9-2.1,2.8c-1.4,1.9-2.9,3.7-4.4,5.4
					c-3.2,3.7-6.6,7.1-10.3,10.3c-31,27.1-76.4,33.6-113.8,16c-9.5-4.5-18.3-10.3-26-17.4c-0.3-0.3-1.5-1.7-1.8-1.7
					c-0.2,0-1.2,1.1-1.4,1.3c-0.9,0.8-1.8,1.7-2.8,2.5c-1.9,1.6-3.9,3.2-5.9,4.7c-4,3-8.3,5.7-12.7,8.1
					c-18.7,10.1-40.4,14.2-61.5,11.9c-19.5-2.2-38.1-9.9-53.5-22c-7.6-6-14.3-13.1-20-20.9c-1.4-1.9-2.7-3.8-3.9-5.8
					c-0.1-0.2-0.7-1.4-0.9-1.5c-0.2-0.1-1.6,0.9-1.9,1.1c-1.3,0.7-2.6,1.4-3.8,2c-5.4,2.7-11.1,5-16.9,6.7c-0.9,0.3-2.1,0.4-2.8,0.8
					c-0.6-0.1-0.9,0.2-0.9,0.9c-0.1,0.2-0.1,0.5-0.2,0.7C179.3,184.4,179,185.8,178.7,187.2z"/>
			</g>
			<g>
			</g>
		</g>
	</g>
	<g class="st1">
		<path class="st2" d="M166.7,295.6C166.7,295.7,166.7,295.7,166.7,295.6c0,0.2,0,0.3,0,0.4C166.7,295.9,166.7,295.8,166.7,295.6z"
			/>
		<path class="st2" d="M567.7,297.1c0-39.3-2.9-78.4-10.5-117c-0.4-2.1-0.8-4.2-1.3-6.3c-0.2-1.2-0.5-2.3-0.8-3.5
			c-0.1-0.5-0.2-0.9-0.3-1.4s-0.2-0.9-0.3-1.4c-0.2-0.1-0.5-0.1-0.7-0.2c-0.9-0.5-2.5-0.6-3.5-0.9c-0.9-0.2-1.9-0.5-2.8-0.8
			c-2.3-0.7-4.6-1.5-6.8-2.3c-2-0.8-4-1.6-5.9-2.5c-1.1-0.5-2.2-1-3.2-1.5c-0.3-0.1-0.9-0.6-1.3-0.6c-0.5-0.5-0.8-0.5-1,0.2
			c-0.1,0.2-0.2,0.3-0.3,0.5c-2,3.1-4.2,6.1-6.6,9c-9.4,11.5-21.2,20.9-34.5,27.5c-28.6,14.2-63.1,14.5-92,0.7
			c-7.2-3.4-14-7.7-20.2-12.7c-1.5-1.2-2.9-2.4-4.3-3.6c-0.6-0.6-1.5-1.8-2.3-2.1c-0.8-0.4,0.1-0.6-0.9,0c-0.5,0.3-0.9,0.9-1.4,1.3
			c-2.9,2.7-6,5.2-9.2,7.5c-13.1,9.5-28.3,15.8-44.3,18.4c-30.6,5-62.5-3.9-86-24.3c-5.6-4.8-10.6-10.2-15-16.1
			c-1-1.4-2.1-2.8-3-4.2c-0.5-0.8-1.1-1.6-1.6-2.4c-0.3-0.4-1.1-2.3-1.5-2.5c-0.4-0.1-2.8,1.6-3.2,1.8c-0.9,0.5-1.7,0.9-2.6,1.3
			c-2.2,1.1-4.4,2.1-6.6,3c-2,0.8-4.1,1.6-6.1,2.3c-2.3,0.8-4.9,1.2-7,2.2c-1.1,0.5-0.4,0-0.9,0.9c-0.3,0.5-0.3,1.5-0.5,2.1
			c-0.2,0.9-0.4,1.9-0.6,2.8c-0.5,2.3-1,4.6-1.4,7c-1.8,9-3.4,18.1-4.7,27.2c-2.7,18.7-4.5,37.5-5.4,56.3
			c-0.9,19.4-1.3,38.9-0.1,58.3c1.6,24.5,6.8,48.8,16,71.5c8.1,19.9,19.2,38.6,32.9,55.1c12.2,14.7,26.4,27.8,42.1,38.7
			c13.5,9.4,28.1,17.2,43.6,22.7c11.9,4.2,24.7,7.2,37.5,6.9c8.3-0.2,17.9-2,23.6-8.6c2.4-2.8,3.8-6.3,4.2-10c0-0.4,0.1-0.8,0.1-1.2
			c0,0.5,0.1,0.9,0.1,1.4c0.2,1.9,0.7,3.7,1.4,5.5c3.3,7.6,11.4,11,19.1,12.3c11.5,1.9,23.6,0,34.8-3.1
			c15.1-4.1,29.5-10.7,42.8-18.8c15.9-9.6,30.4-21.4,43.2-34.8c14.4-15.1,26.4-32.3,35.8-50.9c10.6-21.2,17.5-44.2,20.9-67.7
			c1.7-11.8,2.3-23.7,2.5-35.6c0,0.1,0,0.2,0,0.2C567.7,304.6,567.7,297.1,567.7,297.1z M567.5,299.1c-0.1,2.3-0.2,4.6-0.3,6.9
			c-0.3,4.4-0.7,8.8-1.2,13.2c-1,8.2-2.4,16.4-4.2,24.5c-3.4,15-8.4,29.7-14.9,43.6c-11.5,24.6-27.7,46.9-47.6,65.4
			c-16.8,15.7-36.3,28.8-57.5,37.7c-15.4,6.5-32.7,11.6-49.5,10.3c-10.3-0.8-22.2-5-24.6-16.3c-0.1-0.6-0.2-1.2-0.3-1.8
			c0-0.3-0.1-0.6-0.1-0.8c0-0.1,0-0.2,0-0.3c0-0.4,0-0.8,0-1c0,0.2,0,0.5,0,0.9c0,0,0,0,0,0c0-0.3,0-0.6,0-0.9c0,0.3,0,0.6,0,0.9
			c0,0,0,0,0,0c0-0.4,0-0.7,0-0.9c0,0.3,0,0.6,0,1c0,0.1,0,0.2,0,0.3c0,0.3,0,0.6-0.1,0.8c-0.1,0.7-0.2,1.3-0.3,2
			c-0.3,1.2-0.6,2.3-1.1,3.5c-0.9,2.1-2.3,4-4,5.6c-3.9,3.7-9.2,5.6-14.4,6.5c-15.6,2.8-32.4-1.4-47-6.7
			c-20.8-7.6-40-19.3-56.9-33.5c-20.2-17-37.3-37.7-49.9-61c-14.8-27.3-23.3-57.7-25.8-88.5c-0.4-4.5-0.6-9-0.7-13.5
			c0-0.2,0-0.5,0-0.8c0,0.5,0,0.9,0,1.4c0,0.7,0-0.3,0-0.6c0-0.4,0-0.8,0-1.2c0-0.1,0-0.2,0-0.3c0,0.1,0,0.1,0,0.2
			c0-2.8,0.1-5.7,0.2-8.5c0.4-12.6,1.1-25.2,2.3-37.8c1.2-12.3,2.7-24.5,4.7-36.7c0.9-5.7,2-11.4,3.1-17.1c0.5-2.8,1.1-5.6,1.7-8.4
			c0.3-1.4,0.6-2.8,0.9-4.2c0-0.2,0.1-0.5,0.2-0.7c-0.1-0.6,0.2-0.9,0.9-0.9c0.8-0.4,2-0.5,2.8-0.8c5.8-1.7,11.5-4,16.9-6.7
			c1.3-0.6,2.6-1.3,3.8-2c0.2-0.1,1.7-1.1,1.9-1.1c0.2,0.1,0.8,1.3,0.9,1.5c1.2,2,2.5,3.9,3.9,5.8c5.7,7.8,12.4,14.9,20,20.9
			c15.3,12.2,34,19.9,53.5,22c21.1,2.4,42.8-1.8,61.5-11.8c4.4-2.4,8.7-5.1,12.7-8.1c2-1.5,4-3,5.9-4.7c1-0.8,1.9-1.6,2.8-2.5
			c0.2-0.2,1.1-1.3,1.4-1.3c0.4,0,1.5,1.4,1.8,1.7c7.7,7,16.5,12.9,26,17.4c37.3,17.6,82.7,11.1,113.8-16c3.7-3.2,7.1-6.7,10.3-10.3
			c1.5-1.8,3-3.6,4.4-5.5c0.7-0.9,1.4-1.9,2.1-2.8c0.7-1,1.4-2.7,2.3-3.4c0.1-0.2,0.2-0.3,0.3-0.5c0.4,0.2,0.8,0.4,1.3,0.6
			c0.6,0.3,1.3,0.6,1.9,0.9c1.3,0.6,2.6,1.2,3.9,1.8c2.6,1.1,5.3,2.1,8,3c2.7,0.9,5.5,1.7,8.3,2.4c0.2,0.1,0.5,0.1,0.7,0.2
			c0.7-0.1,0.9,0.2,0.9,0.9c0.3,0.5,0.3,1.5,0.5,2.1c0.3,1.6,0.7,3.3,1,4.9c5,24.1,8.3,48.5,10,73.1c0.4,6.1,0.8,12.3,1,18.4
			c0.1,3.1,0.2,6.2,0.3,9.3c0,1.4,0.1,2.9,0.1,4.3c0,0,0,0.1,0,0.1c0,0.2,0,0.4,0,0.6C567.5,297.1,567.5,298.1,567.5,299.1z
			 M567.6,295.7c0,0.2,0,0.4,0,0.7c0,0.4,0,0.7,0,0.7C567.6,296.6,567.6,296.1,567.6,295.7z"/>
		<path class="st2" d="M367.1,479.5C367.1,479.5,367.1,479.5,367.1,479.5c0,0.2,0,0.4,0,0.8c0-0.2,0-0.3,0-0.3c0,0.1,0,0.2,0,0.3
			c0-0.1,0-0.2,0-0.3c0,0,0,0.2,0,0.3C367.1,479.9,367.1,479.7,367.1,479.5C367.1,479.6,367.1,479.5,367.1,479.5z"/>
	</g>
	<g class="st1">
		<path class="st2" d="M344.8,411.5c0.3-0.3,0-2.1,0-2.5c0-0.6,0-1.2,0-1.8c0-0.1-0.1-0.7,0-0.7c-7.8,7.8-15.5,15.5-23.3,23.3
			c-1.1,1.1-2.2,2.2-3.3,3.3c-0.3,0.3,0,2.1,0,2.5c0,0.6,0,1.2,0,1.8c0,0.1,0,0.6,0,0.7c0,0,0,0,0,0c0,0,0,0,0,0c0,0,0,0,0,0
			c7.8,7.8,15.5,15.5,23.3,23.3c1.1,1.1,2.2,2.2,3.3,3.3c-0.2-0.2,0-2.1,0-2.5c0-0.6,0-1.2,0-1.8c0-0.1,0-0.6,0-0.7
			c-7.8-7.8-15.5-15.5-23.3-23.3c-0.3-0.3-0.6-0.6-0.8-0.8c6.9-6.9,13.9-13.9,20.8-20.8C342.6,413.7,343.7,412.6,344.8,411.5z"/>
		<path class="st2" d="M414.1,435.6c0-0.6,0-1.2,0-1.8c0-0.1,0.1-0.7,0-0.7c-7.8-7.8-15.5-15.5-23.3-23.3c-1.1-1.1-2.2-2.2-3.3-3.3
			c0.2,0.2,0,2.1,0,2.5c0,0.6,0,1.2,0,1.8c0,0.1-0.1,0.7,0,0.7c7.8,7.8,15.5,15.5,23.3,23.3c0.3,0.3,0.6,0.6,0.8,0.8
			c-6.9,6.9-13.9,13.9-20.8,20.8c-1.1,1.1-2.2,2.2-3.3,3.3c-0.3,0.3,0,2.1,0,2.5c0,0.6,0,1.2,0,1.8c0,0.1,0.1,0.7,0,0.7
			c7.8-7.8,15.5-15.5,23.3-23.3c1.1-1.1,2.2-2.2,3.3-3.3C414.4,437.8,414.1,436,414.1,435.6z"/>
		<path class="st2" d="M377.4,411.6c0-0.2-0.1-0.6,0-0.7c-2.1,5.6-4.3,11.2-6.5,16.8c-3.4,8.9-6.8,17.8-10.2,26.7
			c-0.8,2.1-1.6,4.1-2.4,6.2c-0.2,0.6,0,1.8,0,2.5c0,0.6,0,1.2,0,1.8c0,0.2,0.1,0.6,0,0.7c2.1-5.6,4.3-11.2,6.5-16.8
			c3.4-8.9,6.8-17.8,10.2-26.7c0.8-2.1,1.6-4.1,2.4-6.2c0.2-0.6,0-1.8,0-2.5C377.4,412.8,377.4,412.2,377.4,411.6z"/>
	</g>
	<g id="XMLID_3_" class="st1">
		<g>
			<path d="M684.3,28.7c0,0.4,0,0.9,0.1,1.3c0,0.3,0,0.6,0,0.8c-0.1,1.7-0.3,3.4-0.5,5.1c-0.4,3.2-0.9,6.3-1.6,9.4
				c-1.3,5.8-3,11.6-5.3,17.1C672.4,73.6,666,83.9,658.1,93c-16,18.1-37.9,30.4-61.7,34.5c-14.2,2.4-28.9,2-42.9-1.4
				c-4-0.9-7.9-2.1-11.7-3.5c-1.7-0.6-3.4-1.3-5.1-2c-1.9-0.8-4-2.2-6-2.8c-0.5-0.1-0.8-0.2-0.9-0.3c0-0.1,0-0.2-0.1-0.2
				c-12-6.2-22.7-14.7-31.6-24.8c-8.9-10.2-15.8-22.2-20.2-35c-2.6-7.5-4.3-15.2-5.1-23c0.1,0.7-0.1,1.6-0.1,2.2c0,1.8,0,3.5,0,5.3
				c0,2.5-0.2,5,0.1,7.5c1.5,13.7,5.7,27.1,12.3,39.2c6.5,11.8,15.2,22.4,25.6,31c3.6,3,7.4,5.7,11.3,8.2c-1.2,1.4-2.3,2.7-3.5,4
				c-18.4,19.9-44.2,32.2-71.3,33.7c-14.5,0.8-29.2-1.4-42.8-6.5c-6.7-2.5-13.2-5.7-19.2-9.6c-2.8-1.8-5.5-3.7-8.1-5.7
				c-1.3-1-2.6-2.1-3.8-3.1c-0.8-0.7-3.5-4-4.4-4c-0.8,0-3.3,3.1-4,3.7c-1.4,1.2-2.8,2.3-4.2,3.4c-2.9,2.2-5.9,4.3-9,6.2
				c-6,3.7-12.3,6.8-18.8,9.2c-13.8,5.1-28.7,7.2-43.4,6.3c-27.1-1.8-52.8-14.2-71-34.4c-1.7-1.9-3.4-3.9-4.9-5.9
				c8.2-5.7,15.6-12.4,21.9-20.1c8.2-10,14.5-21.4,18.6-33.6c2.4-7.1,4-14.4,4.8-21.8c0.3-2.5,0.1-5,0.1-7.5c0-1.8,0-3.5,0-5.3
				c0-0.7-0.1-1.5-0.1-2.2c-1.5,13-5.3,25.7-11.4,37.4c-5.9,11.3-13.9,21.6-23.5,30.1c-5.4,4.8-11.3,9.1-17.5,12.7
				c0,0-0.1,0.2-0.1,0.3c-0.4-0.3-0.4-0.1-1.3,0.4c-0.8,0.4-1.6,0.9-2.3,1.3c-1.6,0.8-3.2,1.6-4.8,2.4c-3.6,1.7-7.2,3.1-11,4.4
				c-14.2,4.8-29.4,6.4-44.4,4.9c-49.3-4.9-89.7-45-95-94.3c-0.2-1.4-0.3-2.7-0.4-4.1c0.2-2.8,0.5-5.5,0.9-8.3
				c0.9-6,2.3-11.9,4.2-17.6C55.8-7.3,61.6-18,69-27.5c14.8-19.1,36.1-32.8,59.6-38.3c13.3-3.1,27.1-3.6,40.6-1.6
				c4.1,0.6,8.2,1.5,12.2,2.6c1.8,0.5,3.6,1,5.4,1.6c0,0,1.9,0.8,2.1,0.7c0.6-0.2,1.5-2.6,1.8-3.2c3.4-5.4,7.4-10.4,12-14.8
				c20.5-19.7,51.2-26.2,77.9-16.5c3.3,1.2,6.6,2.6,9.7,4.3c1.4,0.8,3,2.1,4.6,2.6c1.5,0.5,1,0.4,1.7-1.1c0.4-0.8,0.8-1.6,1.3-2.4
				c3.2-5.8,7.2-11.1,11.8-15.9c8.8-9.1,19.9-16,32-19.7c25.9-8,54.9-1.2,74.5,17.6c4.6,4.4,8.6,9.4,12,14.8
				c0.5,0.8,0.9,1.6,1.4,2.3c0.6,1,0.5,1.4,1.4,1.3c1.4,0,4-1.9,5.4-2.5c3.7-1.6,7.5-2.8,11.4-3.8c14.1-3.4,29.2-2.7,42.9,2.1
				c12,4.2,22.9,11.5,31.4,21.1c2.2,2.5,4.2,5.1,6.1,7.8c0.9,1.2,1.7,2.5,2.4,3.8c0.9,1.5,1.5,3.6,2.6,4.8c1.1,1.2,0,0.5,1.4,0.4
				c0.9-0.1,2.2-1,3-1.3c1.7-0.7,3.4-1.4,5.2-2c3.8-1.4,7.8-2.5,11.8-3.4c26.1-6,54.1-1.8,77.2,11.7c20.5,12,36.8,30.8,45.5,52.9
				c2.2,5.6,3.9,11.3,5.1,17.2c0.6,2.8,1.1,5.7,1.4,8.6C684,25.8,684.2,27.3,684.3,28.7z"/>
			<path d="M47.3,34.2c5.3,49.3,45.7,89.4,95,94.3c14.9,1.5,30.1-0.2,44.4-4.9c3.7-1.2,7.4-2.7,11-4.4c1.6-0.8,3.2-1.5,4.8-2.4
				c0.8-0.4,1.6-0.8,2.3-1.3c1-0.5,1-0.7,1.3-0.4c0-0.2,0-0.3,0.1-0.3c6.2-3.6,12.1-7.9,17.5-12.7c9.5-8.5,17.5-18.7,23.5-30.1
				c6.1-11.6,10-24.3,11.4-37.4c-0.1,0.7,0,1.5,0.1,2.2c0,1.8,0,3.5,0,5.3c0,2.5,0.2,5-0.1,7.5c-0.8,7.4-2.4,14.7-4.8,21.8
				c-4.1,12.2-10.4,23.6-18.6,33.6c-6.3,7.7-13.7,14.4-21.9,20.1c1.6,2,3.2,4,4.9,5.9c18.2,20.1,43.9,32.6,71,34.4
				c14.7,1,29.5-1.2,43.4-6.3c6.6-2.4,12.9-5.5,18.8-9.2c3.1-1.9,6.1-4,9-6.2c1.4-1.1,2.8-2.3,4.2-3.4c0.7-0.6,3.2-3.7,4-3.7
				c0.9,0,3.6,3.3,4.4,4c1.2,1.1,2.5,2.1,3.8,3.1c2.6,2,5.3,3.9,8.1,5.7c6,3.8,12.5,7.1,19.2,9.6c13.6,5.1,28.3,7.3,42.8,6.5
				c27.1-1.5,52.9-13.7,71.3-33.7c1.2-1.3,2.4-2.6,3.5-4c-3.9-2.5-7.7-5.2-11.3-8.2c-10.4-8.6-19.1-19.2-25.6-31
				c-6.6-12.1-10.8-25.5-12.3-39.2c-0.3-2.5-0.1-5-0.1-7.5c0-1.8,0-3.5,0-5.3c0-0.6,0.1-1.5,0.1-2.2c0.9,7.8,2.6,15.5,5.1,23
				c4.4,12.8,11.3,24.7,20.2,35c8.9,10.2,19.6,18.6,31.6,24.8c0,0,0,0.1,0.1,0.2c0.1,0.1,0.4,0.2,0.9,0.3c2,0.5,4,1.9,6,2.8
				c1.7,0.7,3.4,1.4,5.1,2c3.8,1.4,7.7,2.6,11.7,3.5c14,3.4,28.7,3.8,42.9,1.4c23.8-4.1,45.8-16.4,61.7-34.5
				c8-9,14.4-19.4,18.9-30.5c2.2-5.5,4-11.3,5.3-17.1c0.7-3.1,1.2-6.3,1.6-9.4c0.2-1.7,0.4-3.4,0.5-5.1c0-0.1,0-0.4,0-0.8l0.4,0
				c0,0.7-0.1,1.4-0.1,2.1c0,0.7,0,1.5,0,2.2c0.1,0.9,0.3,2.4-0.1,3c0,0,0,0,0,0c-0.3,11-1.6,21.9-5,32.5
				c-7.4,23.4-23.1,43.8-43.6,57.1c-22.5,14.6-50.2,20.1-76.5,15.3c-7.9-1.4-15.5-3.7-22.9-6.8c-1.3-0.6-2.7-1.2-4-1.8
				c-0.6-0.3-1.8-1.2-2.5-1.2c-0.9,0-0.9,0.4-1.5,1.3c-0.5,0.8-1,1.5-1.6,2.3c-1.8,2.5-3.7,5-5.7,7.3c-8.8,10.4-19.5,19-31.5,25.3
				c-25.6,13.5-56.5,15.6-83.8,6c-6.8-2.4-13.3-5.5-19.4-9.2c-3.4-2.1-6.7-4.3-9.8-6.8c-1.3-1-2.6-2.1-3.8-3.1
				c-1.1-1-2.4-2.6-3.7-3.3c-0.5-0.9-1-0.9-1.4,0c-0.5,0.4-1,0.9-1.5,1.3c-0.5,0.4-1,0.9-1.5,1.3c-1.5,1.3-3,2.6-4.6,3.8
				c-2.6,2-5.3,3.9-8.1,5.7c-6.2,3.9-12.8,7.2-19.7,9.8c-27.2,10.1-58.1,8.3-84-4.9c-12-6.1-22.7-14.5-31.6-24.6
				c-2.4-2.8-4.7-5.7-6.8-8.7c-0.9-1.3-1.8-2.6-2.6-3.9c-0.3-0.5-0.8-1.7-1.2-2c-0.7-0.5-1.2,0.2-2.1,0.7c-6.9,3.8-14.2,6.8-21.8,9
				c-26.4,7.6-55.4,4.6-79.7-8.4c-21.6-11.6-38.8-30.6-48.2-53.2c-4.8-11.5-7.5-23.9-8-36.4c-0.2-3.9-0.3-7.8-0.3-11.8h0.5
				C47,31.4,47.1,32.8,47.3,34.2z"/>
			<path d="M47.8,21.8c-0.4,2.8-0.7,5.5-0.9,8.3h-0.5c-0.1-10.7,0.6-21.4,3-31.8c5.6-23.8,19.6-45.3,39-60.1
				c20.7-15.8,46.8-23.5,72.7-21.5c8.1,0.6,16.2,2.2,24,4.7c0.6,0.2,3.2,1.5,3.7,1.2c0.4-0.2,1.1-2,1.4-2.4c0.8-1.3,1.6-2.6,2.5-3.8
				c1.7-2.5,3.6-4.9,5.6-7.2c8.9-10.1,20.5-17.7,33.2-21.9c14.2-4.6,29.7-4.9,44-0.9c3.8,1.1,7.4,2.4,11,4.1
				c1.8,0.8,3.5,1.7,5.2,2.6c0.8,0.4,1.5,0.9,2.3,1.3c0.6,0.4,1.2,0.7,1.8,1.1c0.1-0.3,0.3-0.6,0.4-0.8c1.1-1.3,1.7-3.3,2.6-4.8
				c0.8-1.3,1.6-2.6,2.4-3.8c1.8-2.7,3.8-5.4,6-7.8c18-20.5,46.3-29.8,72.9-24c13.2,2.9,25.5,9.4,35.4,18.6
				c4.9,4.5,9.1,9.7,12.7,15.4c0.5,0.8,0.9,1.6,1.4,2.3c0.3,0.5,0.6,1.1,0.9,1.6c0.3-0.2,0.6-0.3,1-0.5c1.5-0.2,3.5-1.7,4.9-2.3
				c3.7-1.6,7.5-2.8,11.4-3.8c27.5-6.7,57.1,2.9,75.5,24.5c2.2,2.7,4.3,5.4,6.2,8.4c0.9,1.4,1.7,2.8,2.5,4.3
				c0.3,0.5,0.6,1.1,0.9,1.6c0.3,0.5,0.5,1.1,0.8,1.6c0.3-0.2,0.7-0.3,1-0.5c1.8-0.2,4.3-1.9,6.1-2.5c1.7-0.7,3.5-1.3,5.2-1.8
				c3.9-1.2,7.9-2.3,11.9-3c14.2-2.8,29-2.6,43.2,0.4c23.9,5.2,45.6,18.8,60.8,38c7.6,9.7,13.6,20.7,17.5,32.4
				c3.6,11,5,22.2,5.4,33.6c0-0.1,0-0.1,0.1,0.1c0.4,2.2,0.2,4.7,0.1,7.1l-0.4,0c0-0.4,0-0.9-0.1-1.3c-0.1-1.5-0.3-2.9-0.5-4.4
				c-0.4-2.9-0.8-5.7-1.4-8.6c-1.2-5.9-3-11.6-5.1-17.2c-8.7-22.1-25-40.9-45.5-52.9C608.6-67.8,580.7-72,554.6-66
				c-4,0.9-7.9,2-11.8,3.4c-1.7,0.6-3.5,1.3-5.2,2c-0.8,0.4-2.1,1.2-3,1.3c-1.4,0.2-0.3,0.9-1.4-0.4c-1.1-1.2-1.8-3.3-2.6-4.8
				c-0.8-1.3-1.6-2.6-2.4-3.8c-1.9-2.8-3.9-5.4-6.1-7.8c-8.5-9.5-19.3-16.8-31.4-21.1c-13.7-4.8-28.8-5.5-42.9-2.1
				c-3.9,0.9-7.7,2.2-11.4,3.8c-1.4,0.6-4,2.5-5.4,2.5c-0.9,0-0.8-0.4-1.4-1.3c-0.5-0.8-0.9-1.6-1.4-2.3c-3.4-5.4-7.4-10.4-12-14.8
				c-19.6-18.8-48.6-25.6-74.5-17.6c-12.1,3.7-23.2,10.6-32,19.7c-4.6,4.8-8.6,10.1-11.8,15.9c-0.4,0.8-0.9,1.6-1.3,2.4
				c-0.7,1.5-0.2,1.6-1.7,1.1c-1.5-0.5-3.1-1.9-4.6-2.6c-3.1-1.7-6.4-3.1-9.7-4.3c-26.7-9.7-57.5-3.2-77.9,16.5
				c-4.6,4.4-8.7,9.4-12,14.8c-0.4,0.6-1.3,2.9-1.8,3.2c-0.2,0.1-2.1-0.7-2.1-0.7c-1.8-0.6-3.6-1.1-5.4-1.6c-4-1.1-8.1-2-12.2-2.6
				c-13.5-2.1-27.3-1.5-40.6,1.6C105-60.3,83.8-46.6,69-27.5C61.6-18,55.8-7.3,52,4.2C50.1,9.9,48.7,15.8,47.8,21.8z"/>
		</g>
		<g>
		</g>
	</g>
	<g class="st1">
		<path class="st2" d="M289-64c3.1,0.9,6.1,2,9.1,3.4c1.3,0.6,2.7,1.3,4,2c0.7,0.4,1.4,0.8,2.1,1.2c0.3,0.2,0.6,0.3,0.8,0.5
			c0.4,0.3,1,0.8,1.3,0.6c0.3-0.3,0.6-1.3,0.9-1.7c0.3-0.6,0.7-1.2,1-1.9c0.7-1.2,1.4-2.4,2.2-3.6c1.5-2.3,3.1-4.5,4.9-6.6
			c3.5-4.2,7.6-7.9,12-11.1c18.7-13.3,43.7-15.8,64.7-6.3c10.2,4.6,19.1,11.9,25.8,20.9c1.6,2.2,3.1,4.5,4.4,6.8
			c0.3,0.5,0.2,0.6,0.6,0.6c0.3,0,0.9-0.4,1.1-0.6c0.7-0.3,1.4-0.7,2.1-1c1.6-0.7,3.3-1.4,4.9-2c6.4-2.3,13.1-3.6,19.9-3.8
			c22.7-0.7,44.5,10.7,56.9,29.7c1.5,2.2,2.8,4.6,3.9,7c-0.1-0.3,0-2,0-2.1c0-1.7,0-3.4,0-5c0-1.7,0-3.4,0-5c0-0.5,0.2-1.6,0-2.1
			c-9.8-20.1-29.7-34.1-52-36.4c-6.5-0.7-13.1-0.4-19.6,0.9c-3.3,0.7-6.5,1.6-9.6,2.7c-1.4,0.5-2.8,1.1-4.2,1.7
			c-0.8,0.3-1.5,0.7-2.3,1.1c-0.2,0.1-0.7,0.4-0.9,0.5c-0.3,0.4-0.6,0.3-0.6-0.1c-0.1-0.2-0.2-0.4-0.3-0.6
			c-5.4-9.7-13.4-17.9-22.8-23.7c-19.6-12-44.9-12.7-65.1-1.7c-9.7,5.2-18,13-23.9,22.2c-0.7,1.1-1.3,2.2-2,3.3
			c-0.3,0.6-0.7,1.2-1,1.9c-0.2,0.3-0.6,1.7-0.9,1.9c-0.2,0.1-1.9-1.2-2.1-1.3c-0.6-0.4-1.3-0.7-1.9-1.1c-1.5-0.8-3.1-1.6-4.6-2.3
			c-6-2.7-12.3-4.4-18.8-5.2c-23.2-2.8-46.7,7.4-60.5,26.3c-1.6,2.2-3.1,4.5-4.4,6.9c-0.2,0.3,0,1.9,0,2.1c0,1.7,0,3.4,0,5
			c0,1.7,0,3.4,0,5c0,0.5,0.2,1.8,0,2.1c11.2-20,32.3-33,55.2-33.6C275.9-66.6,282.5-65.8,289-64z"/>
		<path class="st2" d="M465.7,105.3c0-1.7,0-3.4,0-5c0-0.4-0.3-1.8,0-2.1c-7.7,11.9-19.3,21.2-32.7,25.8c-14.4,5-30.4,4.7-44.5-1
			c-7-2.8-13.6-6.9-19.2-12c-0.3-0.3-0.6-0.7-1-0.9c-0.6-0.4-0.1-0.2-0.5,0c-0.2,0.1-0.4,0.4-0.5,0.5c-0.7,0.7-1.5,1.3-2.2,2
			c-1.4,1.2-2.9,2.3-4.4,3.4c-3.1,2.2-6.4,4.1-9.8,5.7c-13.8,6.4-29.8,7.6-44.5,3.3c-13.6-3.9-25.6-12.5-33.8-23.9
			c-1-1.4-2-2.8-2.9-4.3c0.1,0.2,0,2.1,0,2.1c0,1.7,0,3.4,0,5c0,1.7,0,3.4,0,5c0,0.5-0.2,1.7,0,2.1c7.3,12,18.5,21.5,31.7,26.6
			c14.1,5.4,30,5.6,44.2,0.5c7.1-2.6,13.8-6.4,19.6-11.3c0.7-0.6,1.4-1.2,2.1-1.8c0.3-0.3,0.6-0.7,0.9-0.6c0.4,0.1,0.9,0.8,1.2,1.1
			c1.4,1.2,2.8,2.4,4.3,3.5c3,2.3,6.2,4.3,9.6,6c13.7,6.9,29.7,8.6,44.6,4.8c13.8-3.5,26.2-11.8,34.8-23.1c1.1-1.4,2-2.8,3-4.3
			c0.2-0.3,0-2,0-2.1C465.7,108.7,465.7,107,465.7,105.3z"/>
		<path class="st2" d="M641.9,23c0-2.5-0.2-5.1-0.4-7.6c-0.5-4.7-1.4-9.4-2.8-13.9c-5.4-17.5-17.4-32.7-33.2-42
			c-17.9-10.5-40-12.9-59.8-6.5c-2.8,0.9-5.6,2-8.3,3.3c-0.1,0-0.1,2.4,0,2.1c0,1.7,0,3.4,0,5c0,1.7,0,3.4,0,5
			c0,0.2,0.1,2.1,0.1,2.1c18.6-8.6,40.3-9.1,59.2-1.2c15.8,6.6,29.1,18.8,37,34c4.4,8.3,7,17.5,7.9,26.9
			c-1.7,17.3-9.6,33.6-22.1,45.7c-12.8,12.4-30,19.8-47.8,20.6c-12.8,0.6-25.6-2.2-37.1-8.1c0,0,0,0,0,0c0,0,0,0,0,0
			c-16.7-8.7-29.7-23.6-35.9-41.4c-1.8-5.2-3-10.5-3.6-16c0.1,0.6,0,1.5,0,2.1c0,1.7,0,3.4,0,5c0,2.4-0.2,4.8,0.1,7.1
			c2.1,18.9,11.6,36.4,26.2,48.6c4.1,3.4,8.5,6.3,13.2,8.8c0,0,0,0,0,0c0,0,0,0,0,0c19.3,9.9,42.5,10.8,62.5,2.3
			c16.9-7.2,30.8-20.8,38.3-37.5c3.9-8.6,6-17.9,6.4-27.3C642.1,34.6,642,28.8,641.9,23z"/>
		<path class="st2" d="M192-31.5C192-31.5,192-31.5,192-31.5C192-31.6,192-31.6,192-31.5z"/>
		<path class="st2" d="M234.2,33.3c0-0.7-0.1-1.4-0.1-2.1c-2.1,18.9-11.6,36.4-26.2,48.6c-4.1,3.4-8.5,6.3-13.2,8.8c0,0,0,0,0,0
			c-18.6,9.5-40.9,10.8-60.4,3.1C117.9,85.3,104.2,73,96,57.6c-4.5-8.5-7.3-17.8-8.2-27.4c1.7-16.9,9.2-32.9,21.2-44.9
			c12.3-12.3,28.8-20,46.2-21.3c12.6-1,25.3,1.3,36.8,6.6c0,0,0-2,0-2.1c0-1.7,0-3.4,0-5c0-1.7,0-3.4,0-5c0-0.2,0.1-2-0.1-2.1
			c-19.6-9-42.7-9-62.3,0.2c-16.6,7.8-29.9,21.8-36.8,38.8c-3.7,9.1-5.4,18.6-5.5,28.4c-0.1,8-0.4,16.1,0.7,24
			c0.7,4.7,1.8,9.3,3.3,13.8c6,17.4,18.6,32.1,34.8,40.8c18.5,9.9,40.8,11.4,60.5,4.1c2.7-1,5.4-2.2,8-3.5c0,0,0,0,0,0
			c16.7-8.7,29.7-23.6,35.9-41.4c1.8-5.2,3-10.5,3.6-16c0.3-2.3,0.1-4.8,0.1-7.1C234.2,36.7,234.2,35,234.2,33.3z"/>
	</g>
	<path class="st3" d="M684.8,32.2c0-3,0.4-6.3,0-9.2c0-0.3-0.1-0.2-0.1-0.1c-0.3-11.4-1.7-22.6-5.3-33.6
		c-3.9-11.7-9.8-22.7-17.5-32.4C646.7-62.4,625-76,601-81.2c-14.2-3.1-29-3.2-43.2-0.4c-4,0.8-8,1.8-11.9,3
		c-1.8,0.6-3.5,1.2-5.2,1.8c-1.8,0.7-4.3,2.3-6.1,2.5c-0.3,0.2-0.7,0.3-1,0.5c-0.3-0.5-0.5-1.1-0.8-1.6s-0.6-1.1-0.9-1.6
		c-0.8-1.5-1.7-2.9-2.5-4.3c-1.9-2.9-3.9-5.7-6.2-8.4c-18.3-21.6-47.9-31.2-75.5-24.5c-3.9,0.9-7.7,2.2-11.4,3.8
		c-1.4,0.6-3.4,2-4.9,2.3c-0.3,0.2-0.6,0.3-1,0.5c-0.3-0.5-0.6-1.1-0.9-1.6c-0.5-0.8-0.9-1.6-1.4-2.3c-3.5-5.7-7.8-10.9-12.7-15.4
		c-9.9-9.2-22.2-15.7-35.4-18.6c-26.6-5.8-54.9,3.5-72.9,24c-2.2,2.5-4.2,5.1-6,7.8c-0.8,1.2-1.6,2.5-2.4,3.8
		c-0.8,1.5-1.5,3.5-2.6,4.8c-0.1,0.3-0.3,0.5-0.4,0.8c-0.6-0.4-1.2-0.8-1.8-1.1c-0.8-0.5-1.5-0.9-2.3-1.3c-1.7-0.9-3.4-1.8-5.2-2.6
		c-3.5-1.6-7.2-3-11-4.1c-14.3-4.1-29.8-3.8-44,0.9c-12.8,4.2-24.4,11.8-33.2,21.9c-2,2.3-3.9,4.7-5.6,7.2c-0.9,1.2-1.7,2.5-2.5,3.8
		c-0.2,0.4-1,2.2-1.4,2.4c-0.5,0.2-3.1-1-3.7-1.2c-7.8-2.5-15.8-4-24-4.7c-25.9-2-52,5.7-72.7,21.5C69.1-47,55.1-25.5,49.5-1.7
		c-3.3,14.2-3.3,29.1-2.7,43.6c0.5,12.5,3.2,24.8,8,36.4c9.3,22.6,26.6,41.6,48.2,53.2c24.3,13,53.2,16,79.7,8.4
		c7.6-2.2,14.9-5.2,21.8-9c0.9-0.5,1.4-1.1,2.1-0.6c0.5,0.3,0.9,1.5,1.2,2c0.8,1.3,1.7,2.6,2.6,3.9c2.1,3,4.4,5.9,6.9,8.7
		c8.8,10.1,19.6,18.5,31.6,24.6c25.9,13.2,56.8,14.9,84,4.9c6.9-2.5,13.5-5.8,19.7-9.8c2.8-1.8,5.5-3.7,8.1-5.7
		c1.6-1.2,3.1-2.5,4.6-3.8c0.5-0.4,1-0.9,1.5-1.3c0.5-0.4,1-0.9,1.5-1.3c0.5-0.9,1-0.9,1.4,0c1.3,0.8,2.5,2.3,3.7,3.3
		c1.3,1.1,2.5,2.1,3.8,3.1c3.1,2.4,6.4,4.7,9.8,6.8c6.1,3.7,12.6,6.8,19.4,9.2c27.3,9.6,58.1,7.5,83.8-6c12-6.3,22.8-15,31.5-25.3
		c2-2.4,3.9-4.8,5.7-7.3c0.5-0.8,1.1-1.5,1.6-2.3c0.6-1,0.6-1.3,1.5-1.3c0.7,0,1.9,0.9,2.5,1.2c1.3,0.6,2.7,1.2,4,1.8
		c7.3,3.1,15,5.4,22.9,6.8c26.4,4.7,54-0.8,76.5-15.3c20.6-13.3,36.2-33.7,43.6-57.1c3.4-10.7,4.6-21.5,5-32.5c0,0,0,0,0,0
		c0.3-0.6,0.1-2.1,0.1-3C684.7,33.6,684.7,32.9,684.8,32.2z M683.8,35.9c-0.4,3.2-0.9,6.3-1.6,9.4c-1.3,5.8-3,11.6-5.3,17.1
		C672.4,73.6,666,84,658.1,93c-16,18.1-37.9,30.4-61.7,34.5c-14.2,2.4-28.9,2-42.9-1.4c-4-1-7.9-2.1-11.7-3.5
		c-1.7-0.6-3.4-1.3-5.1-2c-1.9-0.8-4-2.2-6-2.8c-0.5-0.1-0.8-0.2-0.9-0.3c0-0.1,0-0.2-0.1-0.2c-12-6.2-22.7-14.7-31.6-24.8
		c-8.9-10.2-15.8-22.2-20.2-35c-2.6-7.4-4.3-15.2-5.2-23c0.1,0.7,0,1.6,0,2.2c0,1.8,0,3.5,0,5.3c0,2.5-0.2,5,0.1,7.5
		c1.5,13.7,5.7,27.1,12.3,39.2c6.5,11.8,15.2,22.4,25.6,31c3.6,3,7.4,5.7,11.3,8.2c-1.1,1.4-2.3,2.7-3.5,4
		c-18.4,19.9-44.2,32.2-71.3,33.7c-14.5,0.8-29.2-1.4-42.8-6.5c-6.7-2.5-13.2-5.7-19.2-9.6c-2.8-1.8-5.5-3.7-8.1-5.7
		c-1.3-1-2.6-2-3.8-3.1c-0.8-0.7-3.5-4-4.4-4c-0.8,0-3.3,3.1-4,3.7c-1.4,1.2-2.8,2.3-4.2,3.5c-2.9,2.2-5.9,4.3-9,6.2
		c-6,3.7-12.3,6.8-18.8,9.2c-13.8,5.1-28.7,7.2-43.4,6.3c-27.1-1.8-52.8-14.2-71-34.4c-1.7-1.9-3.4-3.9-4.9-5.9
		c8.2-5.7,15.5-12.4,21.8-20.1c8.2-10,14.5-21.4,18.6-33.6c2.4-7.1,4-14.4,4.8-21.8c0.3-2.5,0.1-5,0.1-7.5c0-1.8,0-3.5,0-5.3
		c0-0.7-0.1-1.5,0-2.2c-1.5,13-5.4,25.7-11.5,37.4c-5.9,11.3-13.9,21.5-23.5,30.1c-5.4,4.8-11.3,9-17.5,12.7c0,0,0,0.1-0.1,0.3
		c-0.4-0.3-0.4-0.1-1.3,0.4c-0.8,0.4-1.5,0.9-2.3,1.3c-1.6,0.8-3.2,1.6-4.8,2.4c-3.6,1.7-7.2,3.1-11,4.4
		c-14.2,4.8-29.4,6.4-44.4,4.9c-49.3-4.9-89.7-45-95-94.3c-0.2-1.4-0.3-2.7-0.3-4.1c0.2-2.8,0.5-5.5,0.9-8.3
		c0.9-6,2.3-11.9,4.2-17.6C55.8-7.2,61.6-18,69-27.5c14.8-19.1,36.1-32.8,59.6-38.3c13.3-3.1,27.1-3.6,40.6-1.6
		c4.1,0.6,8.2,1.5,12.2,2.6c1.8,0.5,3.6,1.1,5.4,1.6c0,0,1.9,0.8,2.1,0.7c0.6-0.2,1.5-2.6,1.9-3.2c3.4-5.4,7.4-10.4,12-14.8
		c20.5-19.6,51.2-26.2,77.9-16.5c3.3,1.2,6.6,2.6,9.7,4.3c1.4,0.8,3,2.1,4.6,2.6c1.5,0.5,1,0.4,1.7-1.1c0.4-0.8,0.8-1.6,1.3-2.4
		c3.2-5.8,7.2-11.1,11.8-15.9c8.8-9.1,19.9-16,32-19.7c25.9-8,54.9-1.2,74.5,17.6c4.6,4.4,8.6,9.4,12,14.8c0.5,0.8,1,1.6,1.4,2.4
		c0.6,1,0.5,1.4,1.4,1.3c1.4,0,4-2,5.4-2.5c3.7-1.6,7.5-2.8,11.4-3.8c14.1-3.4,29.2-2.7,42.9,2.1c12,4.2,22.9,11.5,31.4,21
		c2.2,2.5,4.2,5.1,6.1,7.9c0.8,1.2,1.7,2.5,2.4,3.8c0.9,1.5,1.5,3.6,2.6,4.8c1.1,1.2,0,0.5,1.4,0.4c0.9-0.1,2.2-1,3-1.3
		c1.7-0.7,3.4-1.4,5.2-2c3.8-1.4,7.8-2.5,11.8-3.4c26.1-6,54.1-1.8,77.2,11.7c20.5,12,36.8,30.8,45.5,52.9
		c2.2,5.6,3.9,11.3,5.2,17.2c0.6,2.8,1.1,5.7,1.4,8.6c0.2,1.4,0.3,2.9,0.5,4.4c0,0.4,0.1,0.8,0.1,1.3c0,0.3,0,0.6,0,0.8
		C684.2,32.5,684,34.2,683.8,35.9z"/>
</g>
<g id="sheep">
	<g>
		<path d="M354.9,217.8c-1.7-1.9-3.5-3.8-5.2-5.7c-3.9-4.3-7.9-8.5-11.8-12.8c-4.2-4.5-8.3-9-12.5-13.6c-2.5-2.7-5-5.5-7.6-8.2
			c-0.1-0.1-0.3-0.4-0.4-0.5c0,0-0.3,0.1-0.3,0.1c-0.3,0.1-0.7,0.2-1,0.3c-0.8,0.2-1.5,0.4-2.3,0.6c-1.4,0.3-2.9,0.6-4.3,0.8
			c-6,0.8-12.1,0.4-17.9-1.2c-0.3-0.1-0.7-0.2-1-0.3c-0.2,0-0.2-0.1-0.3,0.1c-0.2,0.2-0.4,0.4-0.7,0.6c0,0,0,0.6,0,0.6
			c0,0.5,0,0.9,0,1.4c0,0.5,0,0.9,0,1.4c0,0.1,0,0.6,0,0.6c0,0,0,0,0,0c0,0,0,0,0,0c0,0,0,0,0,0c1.1,0.4,2.2,0.7,3.3,0.9
			c0.2,0,0.3,0,0.4,0.2c0.1,0.1,0.1,0.2,0.1,0.4c0.1,0.3,0.1,0.5,0.2,0.8c0.1,0.5,0.2,1.1,0.3,1.6c0.5,2.2,0.9,4.3,1.3,6.5
			c0.8,4.5,1.5,9,2,13.6c0.3,2.3,0.5,4.6,0.7,6.9c0.1,1.2,0.2,2.4,0.3,3.6c0,0.3,0,0.6,0.1,0.9c0,0.2,0,0.6,0.1,0.8
			c0.1,0.2,0.3,0.4,0.5,0.5c0.2,0.2,0.5,0.4,0.7,0.7c3.2,3,6.5,5.9,10,8.5c3,2.2,6.3,4.2,9.8,5.4c3.2,1.1,6.7,1.4,10.1,1.1
			c6.2-0.5,12.1-3,17.3-6.3c1.9-1.2,3.8-2.6,5.6-4c0.9-0.7,1.9-1.5,2.6-2.3c0,0,0.1-0.1,0.1-0.1c0,0,0,0,0,0c0,0,0,0,0,0
			c0,0,0,0,0,0c0-0.1,0-0.3,0-0.5c0-0.1,0-0.1,0-0.1c0-0.5,0-0.9,0-1.4c0-0.5,0-0.9,0-1.4C354.9,218.3,355,217.9,354.9,217.8z
			 M348.2,223.2c-5,3.4-10.6,6.1-16.5,7c-3.4,0.6-6.9,0.5-10.3-0.2c-3.5-0.8-6.7-2.5-9.6-4.4c-3.6-2.3-6.9-5.1-10.1-7.9
			c-0.8-0.8-1.7-1.5-2.5-2.3c-0.4-0.4-1-0.8-1.1-1.3c-0.1-0.6-0.1-1.3-0.1-1.9c-0.2-2.3-0.4-4.6-0.6-6.8c-0.5-4.5-1-9.1-1.8-13.6
			c-0.4-2.2-0.7-4.4-1.2-6.6c-0.2-1-0.4-2-0.6-2.9c0.7,0.2,1.4,0.3,2.1,0.4c3,0.5,6.1,0.7,9.2,0.6c3-0.1,5.9-0.5,8.8-1.2
			c0.7-0.2,1.4-0.4,2.1-0.6c0.3-0.1,0.7-0.2,1-0.3c0,0,0.3-0.1,0.3-0.1c0,0,0.1,0.1,0.1,0.1c0.3,0.3,0.5,0.6,0.8,0.9
			c0.5,0.5,0.9,1,1.4,1.5c1.5,1.6,2.9,3.2,4.4,4.7c4.1,4.4,8.1,8.8,12.2,13.2c4.1,4.4,8.1,8.8,12.2,13.2c1.4,1.5,2.8,3.1,4.2,4.6
			c0.1,0.1,0.1,0.1,0.2,0.2C351.4,220.9,349.8,222.1,348.2,223.2z"/>
		<path d="M125.9,179.8c0-0.1,0-0.2,0-0.3c0-0.5,0-0.9,0-1.4c0-0.1,0-0.5,0-0.6c-0.2-0.1-0.4-0.5-0.6-0.5c-0.1,0-0.4,0.1-0.5,0.2
			c-0.2,0.1-0.3,0.1-0.5,0.2c-0.3,0.1-0.7,0.2-1,0.3c-1.4,0.4-2.8,0.8-4.2,1c-2.9,0.6-5.9,0.8-8.9,0.8c-3,0-6-0.4-8.9-1
			c-0.7-0.2-1.4-0.3-2.1-0.5c-0.2,0-0.7-0.3-0.9-0.2c0,0-0.1,0.1-0.1,0.2c-2.2,2.4-4.4,4.7-6.6,7.1c-4,4.4-8,8.7-12.1,13.1
			c-4,4.3-8,8.7-12,13c-1.4,1.5-2.8,3-4.2,4.5c-0.4,0.5-0.9,1-1.3,1.4c-0.2,0.2-0.5,0.5-0.7,0.8c0,0-0.1,0.1-0.1,0.1c0,0,0,0,0,0
			c0,0,0,0,0,0c0,0,0,0.6,0,0.6c0,0.5,0,0.9,0,1.4c0,0.5,0,0.9,0,1.4c0,0.1-0.1,0.5,0,0.6c2,2.1,4.4,3.8,6.7,5.4
			c5,3.4,10.6,6.1,16.6,7.1c3.4,0.6,6.9,0.5,10.2-0.2c3.5-0.8,6.8-2.6,9.8-4.5c3.6-2.4,7-5.2,10.2-8.1c0.4-0.4,0.8-0.7,1.2-1.1
			c0.2-0.2,0.4-0.3,0.4-0.6c0.1-0.3,0-0.7,0.1-1c0.1-1.2,0.2-2.5,0.3-3.7c0.2-2.3,0.4-4.6,0.6-6.9c0.5-4.5,1.1-9,1.8-13.4
			c0.4-2.2,0.8-4.4,1.2-6.5c0.2-1.1,0.4-2.1,0.7-3.2c0.1-0.5,0.2-1.1,0.3-1.6c0-0.1,0-0.3,0.1-0.4c0.1-0.3,0-0.1,0.2-0.2
			c0.3-0.1,0.6-0.2,0.9-0.3c1.1-0.3,2.2-0.7,3.3-1.1c0,0,0,0,0,0c0,0,0,0,0,0c0,0,0,0,0,0C126,181.3,126,180.3,125.9,179.8z
			 M119.8,187.5c-0.8,4.4-1.5,8.9-2,13.3c-0.6,4.6-1,9.2-1.3,13.8c0,0.3,0,0.5,0,0.8c0,0.4-0.1,0.6-0.4,0.8
			c-0.4,0.4-0.9,0.8-1.3,1.2c-0.8,0.8-1.7,1.5-2.5,2.3c-1.7,1.4-3.4,2.8-5.1,4.1c-3.1,2.2-6.3,4.3-9.9,5.6
			c-3.2,1.1-6.8,1.5-10.2,1.2c-6.2-0.5-12.2-3-17.4-6.3c-2.2-1.4-4.3-3-6.3-4.7c1-1.1,2.1-2.3,3.1-3.4c3.9-4.2,7.7-8.4,11.6-12.6
			c4.1-4.5,8.2-8.9,12.3-13.4c2.5-2.7,5-5.4,7.5-8.2c0.1-0.1,0.3-0.4,0.5-0.5c0.2-0.1,0.7,0.2,0.9,0.2c0.8,0.2,1.5,0.4,2.3,0.6
			c1.4,0.3,2.9,0.6,4.4,0.7c5,0.6,10,0.3,14.9-0.9C120.4,184,120.1,185.8,119.8,187.5z"/>
	</g>
	<g>
		<path d="M207.1,313.3c0-0.1,0-0.2,0-0.2C207.1,313.1,207.1,313.2,207.1,313.3z"/>
		<path d="M289.9,236.4c0-0.1,0-1.7,0-2c-0.1-15.2-1.4-30.3-4.3-45.3c-0.2-0.9-0.3-1.7-0.5-2.6c-0.1-0.5-0.2-1-0.3-1.4
			c0-0.2-0.1-0.4-0.1-0.6c0-0.2-0.1-0.4-0.1-0.6c-0.1,0-0.2,0-0.3-0.1c-0.4-0.2-1-0.3-1.5-0.4c-0.4-0.1-0.8-0.2-1.1-0.3
			c-0.9-0.3-1.9-0.6-2.8-1c-0.8-0.3-1.6-0.7-2.5-1c-0.4-0.2-0.9-0.4-1.3-0.6c-0.1-0.1-0.4-0.2-0.5-0.3c-0.2-0.2-0.3-0.2-0.4,0.1
			c0,0.1-0.1,0.1-0.1,0.2c-0.8,1.3-1.7,2.5-2.7,3.7c-3.9,4.7-8.8,8.6-14.3,11.4c-11.8,5.9-26.1,6-38,0.3c-3-1.4-5.8-3.2-8.3-5.2
			c-0.6-0.5-1.2-1-1.8-1.5c-0.3-0.2-0.6-0.7-1-0.9c-0.3-0.1,0-0.2-0.4,0c-0.2,0.1-0.4,0.4-0.6,0.5c-1.2,1.1-2.5,2.1-3.8,3.1
			c-5.4,3.9-11.7,6.5-18.3,7.6c-12.6,2.1-25.8-1.6-35.5-10c-2.3-2-4.4-4.2-6.2-6.6c-0.4-0.6-0.9-1.2-1.3-1.8c-0.2-0.3-0.4-0.7-0.7-1
			c-0.1-0.2-0.4-1-0.6-1c-0.2-0.1-1.2,0.6-1.3,0.7c-0.4,0.2-0.7,0.4-1.1,0.5c-0.9,0.4-1.8,0.9-2.7,1.2c-0.8,0.3-1.7,0.7-2.5,1
			c-0.9,0.3-2,0.5-2.9,0.9c-0.5,0.2-0.2,0-0.4,0.4c-0.1,0.2-0.1,0.6-0.2,0.9c-0.1,0.4-0.2,0.8-0.2,1.1c-0.2,1-0.4,1.9-0.6,2.9
			c-0.7,3.7-1.4,7.5-1.9,11.2c-1.1,7.7-1.9,15.5-2.2,23.2c-0.3,7.3-0.5,14.7,0,22c0.7,10.1,2.8,20.1,6.6,29.5
			c3.3,8.2,7.9,15.9,13.6,22.8c5,6.1,10.9,11.5,17.4,16c5.6,3.9,11.6,7.1,18,9.4c4.9,1.7,10.2,3,15.5,2.8c3.4-0.1,7.4-0.8,9.7-3.6
			c1-1.2,1.6-2.6,1.7-4.1c0-0.2,0-0.4,0-0.6c0,0,0,0,0-0.1c0,0,0,0.1,0,0.1c0,0.2,0,0.4,0,0.7c0.1,0.8,0.3,1.5,0.6,2.3
			c1.4,3.1,4.7,4.6,7.9,5.1c4.8,0.8,9.8,0,14.4-1.3c6.2-1.7,12.2-4.4,17.7-7.8c6.6-4,12.6-8.8,17.8-14.4c5.9-6.2,10.9-13.3,14.8-21
			c4.4-8.8,7.2-18.2,8.6-27.9c0.7-5,1-9.9,1-15c0-0.3,0-0.7,0-1.1C289.9,236.8,289.9,236.6,289.9,236.4z M289.8,238.2
			c0,1-0.1,1.9-0.1,2.9c-0.1,1.8-0.3,3.7-0.5,5.5c-0.4,3.4-1,6.8-1.7,10.1c-1.4,6.2-3.5,12.2-6.1,18c-4.7,10.2-11.5,19.4-19.7,27
			c-7,6.5-15,11.9-23.8,15.6c-6.3,2.7-13.5,4.8-20.5,4.3c-4.3-0.3-9.2-2.1-10.2-6.7c-0.1-0.3-0.1-0.8-0.1-1.1c0-0.1,0-0.3,0-0.4
			c0,0.1,0,0.2,0,0.3c0-0.2,0-0.2,0,0.4c0,0.2,0,0.4,0,0.6c0-2.3,0-0.3-0.2,0.4c-0.1,0.5-0.3,1-0.5,1.4c-0.4,0.9-1,1.7-1.7,2.3
			c-1.6,1.5-3.8,2.3-6,2.7c-6.5,1.2-13.4-0.6-19.4-2.8c-8.6-3.1-16.5-8-23.5-13.8c-8.4-7-15.4-15.6-20.6-25.2
			c-6.1-11.3-9.6-23.8-10.7-36.6c-0.2-1.9-0.3-3.7-0.3-5.6c0-0.4,0-0.8,0-1.2c0-0.2,0-0.4,0-0.6c0-1.4,0-2.9,0.1-4.3
			c0.2-5.2,0.5-10.4,1-15.6c0.5-5.1,1.1-10.1,1.9-15.2c0.4-2.4,0.8-4.7,1.3-7.1c0.2-1.2,0.5-2.3,0.7-3.5c0.1-0.6,0.2-1.1,0.4-1.7
			c0-0.1,0-0.2,0.1-0.3c0-0.3,0.1-0.4,0.4-0.4c0.3-0.2,0.8-0.2,1.2-0.3c2.4-0.7,4.7-1.6,7-2.8c0.5-0.3,1.1-0.5,1.6-0.8
			c0.1-0.1,0.7-0.5,0.8-0.4c0.1,0,0.3,0.5,0.4,0.6c0.5,0.8,1,1.6,1.6,2.4c2.3,3.2,5.1,6.2,8.3,8.6c6.3,5,14,8.2,22.1,9.1
			c8.7,1,17.7-0.7,25.4-4.9c1.8-1,3.6-2.1,5.3-3.3c0.8-0.6,1.6-1.3,2.4-1.9c0.4-0.3,0.8-0.7,1.2-1c0.1-0.1,0.5-0.5,0.6-0.5
			c0.1,0,0.6,0.6,0.8,0.7c3.2,2.9,6.8,5.3,10.7,7.2c15.4,7.3,34.2,4.6,47-6.6c1.5-1.3,2.9-2.8,4.3-4.3c0.6-0.7,1.2-1.5,1.8-2.3
			c0.3-0.4,0.6-0.8,0.9-1.2c0.3-0.4,0.6-1.1,1-1.4c0-0.1,0.1-0.1,0.1-0.2c0.2,0.1,0.3,0.2,0.5,0.3c0.3,0.1,0.5,0.3,0.8,0.4
			c0.5,0.3,1.1,0.5,1.6,0.7c1.1,0.5,2.2,0.9,3.3,1.3c1.1,0.4,2.3,0.7,3.4,1c0.1,0,0.2,0,0.3,0.1c0.3,0,0.4,0.1,0.4,0.4
			c0.1,0.2,0.1,0.6,0.2,0.9c0.1,0.7,0.3,1.3,0.4,2c2.1,10,3.4,20.1,4.1,30.2c0.3,4.9,0.6,9.9,0.6,14.8c0,0.2,0,0.7,0,0.8
			C289.8,237.3,289.8,237.8,289.8,238.2z"/>
	</g>
	<g>
		<path d="M197.8,302.6c-3-3-6-6-9-9c2.5-2.5,5.1-5.1,7.6-7.6c0.5-0.5,0.9-0.9,1.4-1.4c0,0,0-0.6,0-0.6c0-0.5,0-0.9,0-1.4
			c0-0.5,0-0.9,0-1.4c0-0.1-0.1-0.5,0-0.6c-3.2,3.2-6.4,6.4-9.6,9.6c-0.5,0.5-0.9,0.9-1.4,1.4c0,0,0,0.6,0,0.6c0,0.5,0,0.9,0,1.4
			c0,0.5,0,0.9,0,1.4c0,0.1-0.1,0.5,0,0.6c3.2,3.2,6.4,6.4,9.6,9.6c0.5,0.5,0.9,0.9,1.4,1.4c0,0,0-0.6,0-0.6c0-0.5,0-0.9,0-1.4
			c0-0.5,0-0.9,0-1.4C197.8,303.1,197.9,302.6,197.8,302.6z"/>
		<path d="M226.5,293.6c0-0.5,0-0.9,0-1.4c0-0.1,0.1-0.5,0-0.6c-3.2-3.2-6.4-6.4-9.6-9.6c-0.5-0.5-0.9-0.9-1.4-1.4c0,0,0,0.6,0,0.6
			c0,0.5,0,0.9,0,1.4c0,0.5,0,0.9,0,1.4c0,0.1-0.1,0.5,0,0.6c3,3,6,6,9,9c-2.5,2.5-5.1,5.1-7.6,7.6c-0.5,0.5-0.9,0.9-1.4,1.4
			c0,0,0,0.6,0,0.6c0,0.5,0,0.9,0,1.4c0,0.5,0,0.9,0,1.4c0,0.1,0.1,0.5,0,0.6c3.2-3.2,6.4-6.4,9.6-9.6c0.5-0.5,0.9-0.9,1.4-1.4
			c0,0,0-0.6,0-0.6C226.5,294.5,226.5,294.1,226.5,293.6z"/>
		<path d="M211.3,284.4c0-0.5,0-0.9,0-1.4c0-0.2-0.1-0.4,0-0.6c-0.9,2.3-1.8,4.6-2.7,6.9c-1.4,3.7-2.8,7.4-4.2,11.1
			c-0.3,0.9-0.7,1.7-1,2.6c0,0.1,0,0.5,0,0.6c0,0.5,0,0.9,0,1.4c0,0.5,0,0.9,0,1.4c0,0.2,0.1,0.5,0,0.6c0.9-2.3,1.8-4.6,2.7-6.9
			c1.4-3.7,2.8-7.4,4.2-11.1c0.3-0.9,0.7-1.7,1-2.6c0-0.1,0-0.5,0-0.6C211.3,285.3,211.3,284.9,211.3,284.4z"/>
	</g>
	<path d="M269.7,95.3c-4.3-8.7-12.9-14.8-22.5-15.8c-2.8-0.3-5.7-0.2-8.5,0.4c-1.4,0.3-2.8,0.7-4.2,1.2c-0.6,0.2-1.2,0.5-1.8,0.7
		c-0.3,0.2-0.7,0.3-1,0.5c-0.1,0-0.3,0.2-0.4,0.2c-0.1,0.2-0.2,0.1-0.3-0.1c0-0.1-0.1-0.2-0.1-0.2c-2.4-4.2-5.8-7.8-9.9-10.3
		c-8.5-5.2-19.4-5.5-28.2-0.8c-4.2,2.3-7.8,5.6-10.4,9.6c-0.3,0.5-0.6,0.9-0.8,1.4c-0.1,0.3-0.3,0.5-0.4,0.8
		c-0.1,0.1-0.3,0.8-0.4,0.8c-0.1,0-0.8-0.5-0.9-0.6c-0.3-0.2-0.6-0.3-0.8-0.5c-0.7-0.4-1.3-0.7-2-1c-2.6-1.2-5.3-1.9-8.2-2.3
		c-10.1-1.2-20.2,3.2-26.2,11.4c-0.7,1-1.3,1.9-1.9,3c-0.1,0.1,0,0.5,0,0.6c0,0.5,0,0.9,0,1.4c0,0.5,0,0.9,0,1.4
		c0,0.1,0.1,0.5,0,0.6c4.8-8.7,14-14.3,23.9-14.6c2.9-0.1,5.8,0.3,8.6,1.1c1.3,0.4,2.7,0.9,3.9,1.5c0.6,0.3,1.2,0.6,1.7,0.9
		c0.3,0.2,0.6,0.3,0.9,0.5c0.1,0.1,0.2,0.1,0.4,0.2c0.2,0.1,0.4,0.4,0.6,0.3c0.2-0.1,0.3-0.6,0.4-0.7c0.1-0.3,0.3-0.5,0.4-0.8
		c0.3-0.5,0.6-1.1,0.9-1.6c0.6-1,1.4-1.9,2.1-2.9c1.5-1.8,3.3-3.4,5.2-4.8c8.1-5.8,19-6.8,28-2.7c4.4,2,8.3,5.1,11.2,9.1
		c0.7,0.9,1.3,1.9,1.9,3c0.1,0.2,0.1,0.3,0.3,0.3c0.1,0,0.4-0.2,0.5-0.2c0.3-0.1,0.6-0.3,0.9-0.4c0.7-0.3,1.4-0.6,2.1-0.9
		c2.8-1,5.7-1.5,8.6-1.6c9.8-0.3,19.3,4.6,24.7,12.9c0.6,1,1.2,2,1.7,3c0-0.1,0-0.6,0-0.6c0-0.5,0-0.9,0-1.4c0-0.5,0-0.9,0-1.4
		C269.7,95.8,269.8,95.5,269.7,95.3z"/>
	<path d="M255.1,158.7c0-0.5,0-0.9,0-1.4c0-0.5,0-0.9,0-1.4c0-0.1-0.1-0.5,0-0.6c-3.9,5.4-9.6,9.3-16,11.2c-7,2.2-14.8,2-21.7-0.5
		c-3.3-1.2-6.5-2.9-9.2-5.2c-0.1-0.1-0.3-0.3-0.5-0.4c-0.2-0.1,0-0.1-0.2,0c-0.1,0-0.2,0.2-0.3,0.2c-0.3,0.3-0.7,0.5-1,0.8
		c-0.7,0.5-1.4,1-2.2,1.5c-1.5,0.9-3.1,1.8-4.7,2.4c-6.8,2.8-14.5,3.3-21.6,1.5c-6.4-1.6-12.4-5.2-16.5-10.4c-0.5-0.6-1-1.3-1.4-1.9
		c0,0,0,0.6,0,0.6c0,0.5,0,0.9,0,1.4c0,0.5,0,0.9,0,1.4c0,0.1-0.1,0.5,0,0.6c3.7,5.4,9.3,9.4,15.5,11.5c6.9,2.4,14.6,2.4,21.6,0.2
		c3.4-1.1,6.6-2.7,9.5-4.9c0.3-0.3,0.7-0.5,1-0.8c0.1-0.1,0.3-0.3,0.5-0.3c0.2,0,0.4,0.3,0.5,0.4c0.7,0.5,1.4,1.1,2.1,1.6
		c1.5,1,3,1.9,4.6,2.6c6.7,3.1,14.5,3.8,21.7,2.2c6.5-1.5,12.7-4.9,17-10c0.5-0.6,1-1.2,1.5-1.9
		C255.1,159.3,255.1,158.8,255.1,158.7z"/>
	<path d="M324.8,115.1c-2.3-7.6-7.5-14.2-14.4-18.2c-7.8-4.6-17.4-5.6-26-2.8c-1.2,0.4-2.4,0.9-3.6,1.4c0,0,0,0.7,0,0.6
		c0,0.5,0,0.9,0,1.4c0,0.5,0,0.9,0,1.4c0,0.1,0,0.6,0,0.6c8.3-3.8,18.1-3.9,26.5-0.2c7,3.2,12.8,8.9,16,15.9
		c1.6,3.5,2.6,7.4,2.8,11.3c0,0.3,0,0.6-0.1,0.9c-0.1,1-0.2,2-0.4,3.1c-0.4,1.9-0.9,3.8-1.6,5.7c-2.8,7.2-8.3,13.3-15.2,16.8
		c-7.9,4-17.4,4.6-25.7,1.5c-1.2-0.4-2.3-0.9-3.4-1.5c0,0,0,0,0,0c0,0,0,0,0,0c-7.3-3.8-12.9-10.3-15.6-18c-0.8-2.2-1.3-4.5-1.5-6.9
		c0.1,0.6,0,1.4,0,2c0,0.7-0.1,1.3,0,2c0.9,8.2,5,15.8,11.4,21.1c1.8,1.4,3.7,2.7,5.7,3.7c0,0,0,0,0,0c0,0,0,0,0,0
		c8.4,4.3,18.4,4.7,27.1,1c7.3-3.1,13.3-9,16.6-16.2c1.7-3.7,2.6-7.8,2.8-11.8C326.4,124.8,326.3,119.8,324.8,115.1z"/>
	<path d="M149.5,129.9c0-0.7-0.1-1.4,0-2c-0.9,8.2-5,15.8-11.4,21.1c-1.8,1.4-3.7,2.7-5.7,3.7c0,0,0,0,0,0c-8.2,4.2-18,4.7-26.6,1.2
		c-7.2-2.9-13.1-8.4-16.6-15.3c-1.8-3.5-2.9-7.4-3.2-11.3c0-0.3,0-0.6-0.1-0.9c0.1-0.9,0.1-1.9,0.3-2.8c0.3-2,0.8-3.9,1.4-5.8
		c2.6-7.3,7.8-13.6,14.6-17.3c7.7-4.3,17-5.2,25.4-2.5c1.2,0.4,2.4,0.9,3.6,1.4c0,0,0-0.7,0-0.6c0-0.5,0-0.9,0-1.4
		c0-0.5,0-0.9,0-1.4c0-0.1,0-0.6,0-0.6c-8.5-3.9-18.5-3.9-27,0.1c-7.2,3.4-13,9.5-16,16.8c-1.6,3.9-2.3,8-2.4,12.2
		c0,2.8-0.1,5.6,0.3,8.4c0.3,2,0.8,4,1.4,5.9c2.6,7.5,8.1,13.9,15.1,17.7c8,4.3,17.7,4.9,26.3,1.8c1.2-0.4,2.3-0.9,3.4-1.5
		c0,0,0,0,0,0c7.3-3.8,12.9-10.3,15.6-18c0.8-2.2,1.3-4.5,1.5-6.9C149.5,131.3,149.5,130.6,149.5,129.9z M85.9,126.2
		c0-0.1,0-0.3,0-0.4c0-0.1,0-0.3,0-0.4C85.8,124.7,85.9,123.7,85.9,126.2z"/>
	<g>
		<path d="M338.2,124.2C338.2,124.2,338.2,124.2,338.2,124.2C338.2,124.2,338.2,124.2,338.2,124.2
			C338.2,124.2,338.2,124.2,338.2,124.2z"/>
		<path d="M338.2,126.4c0,0.3,0,0.7,0,1C338.1,127.1,338.1,126.7,338.2,126.4z"/>
		<path d="M338.1,127.4c-0.5,9.4-4.7,18.8-10.9,25.7c-6.6,7.5-15.7,12.6-25.5,14.2c-5.9,1-11.9,0.8-17.7-0.6
			c-1.6-0.4-3.3-0.9-4.8-1.5c-0.7-0.3-1.4-0.5-2.1-0.8c-0.8-0.3-1.6-0.9-2.5-1.1c-0.2-0.1-0.3-0.1-0.4-0.1c0,0,0-0.1,0-0.1
			c-4.9-2.6-9.4-6.1-13-10.3c-3.7-4.2-6.5-9.2-8.4-14.4c-1.1-3.1-1.8-6.3-2.1-9.5c0.1,0.6,0,1.4,0,2c0,0.7-0.1,1.3,0,2
			c0.6,5.7,2.4,11.2,5.1,16.2c2.7,4.9,6.3,9.2,10.6,12.8c1.8,1.5,3.8,2.9,5.9,4.1c-0.8,1.1-1.7,2.1-2.6,3.2
			c-7.6,8.2-18.3,13.3-29.4,13.9c-6,0.3-12.1-0.6-17.7-2.7c-2.8-1-5.4-2.4-7.9-4c-1.2-0.7-2.3-1.5-3.4-2.4c-0.5-0.4-1.1-0.8-1.6-1.3
			c-0.3-0.3-1.4-1.6-1.8-1.6c-0.3,0-1.4,1.3-1.7,1.5c-0.6,0.5-1.1,1-1.7,1.4c-1.2,0.9-2.4,1.8-3.7,2.6c-2.5,1.5-5.1,2.8-7.8,3.8
			c-5.7,2.1-11.8,3-17.9,2.6c-11.2-0.7-21.8-5.9-29.3-14.2c-0.9-0.9-1.7-1.9-2.4-2.9c-0.2-0.3-0.5-0.6-0.7-1c3.8-2.5,7.2-5.5,10.1-9
			c3.4-4.1,6-8.8,7.7-13.9c1-2.9,1.6-6,2-9c0.1-0.7,0-1.3,0-2c0-0.7-0.1-1.4,0-2c-0.6,5.4-2.2,10.6-4.7,15.4
			c-2.5,4.7-5.8,8.9-9.7,12.4c-2.2,2-4.7,3.7-7.2,5.2c0,0,0,0.1,0,0.2c-0.2-0.1-0.1-0.1-0.6,0.2c-0.3,0.2-0.6,0.4-1,0.5
			c-0.7,0.3-1.3,0.7-2,1c-1.5,0.7-3,1.3-4.5,1.8c-5.9,2-12.2,2.6-18.3,2c-20.4-2-37.1-18.6-39.2-38.9c-0.1-0.8-0.1-1.5-0.2-2.3
			c0-0.2,0-0.5,0-0.7c0,0,0,0,0,0c0.1-1.4,0.2-2.9,0.4-4.3c0.4-2.5,0.9-4.9,1.7-7.3c1.6-4.7,3.9-9.2,7-13.1
			c6.1-7.9,14.9-13.5,24.6-15.8c5.5-1.3,11.2-1.5,16.8-0.7c1.7,0.3,3.4,0.6,5,1.1c0.7,0.2,1.5,0.4,2.2,0.7c0,0,0.8,0.3,0.9,0.3
			c0.2-0.1,0.6-1.1,0.8-1.3c1.4-2.2,3.1-4.3,5-6.1c8.5-8.1,21.1-10.8,32.2-6.8c1.4,0.5,2.7,1.1,4,1.8c0.6,0.3,1.3,0.9,1.9,1.1
			c0.6,0.2,0.4,0.2,0.7-0.4c0.2-0.3,0.3-0.7,0.5-1c1.3-2.4,3-4.6,4.9-6.6c3.6-3.8,8.2-6.6,13.2-8.1c10.7-3.3,22.7-0.5,30.8,7.3
			c1.9,1.8,3.6,3.9,5,6.1c0.2,0.3,0.4,0.6,0.6,1c0.2,0.4,0.2,0.6,0.6,0.6c0.6,0,1.7-0.8,2.2-1c1.5-0.6,3.1-1.2,4.7-1.6
			c5.8-1.4,12.1-1.1,17.7,0.9c5,1.7,9.5,4.8,13,8.7c0.9,1,1.8,2.1,2.5,3.2c0.4,0.5,0.7,1,1,1.6c0.4,0.6,0.6,1.5,1.1,2
			c0.5,0.5,0,0.2,0.6,0.1c0.4,0,0.9-0.4,1.3-0.5c0.7-0.3,1.4-0.6,2.1-0.8c1.6-0.6,3.2-1,4.9-1.4c10.8-2.5,22.3-0.7,31.9,4.8
			c8.5,4.9,15.2,12.7,18.8,21.8c1.7,4.4,2.9,9.3,3,14.1c0,0.1,0,0.2,0,0.3c0,0,0-0.1,0-0.1c0,0.1,0,0.2,0,0.4c0,0.3,0,1.3,0,1.4
			c0-0.5,0-0.9,0-1.4c0-0.1,0-0.4,0-0.7c0-0.2,0-0.3,0-0.4c0-0.4,0-0.9,0-1.3c0,0.2,0,1.1,0,1.3c0,0,0,0,0,0c0-0.6,0-1.3,0-1.4
			c-0.1-4.7-0.7-9.4-2.2-13.9c-1.6-4.8-4.1-9.4-7.2-13.4c-6.3-7.9-15.2-13.6-25.1-15.7c-5.9-1.3-12-1.3-17.8-0.2
			c-1.7,0.3-3.3,0.7-4.9,1.3c-0.7,0.2-1.4,0.5-2.2,0.8c-0.7,0.3-1.8,1-2.5,1c-0.1,0.1-0.3,0.1-0.4,0.2c-0.1-0.2-0.2-0.5-0.3-0.7
			c-0.1-0.2-0.2-0.4-0.4-0.7c-0.3-0.6-0.7-1.2-1.1-1.8c-0.8-1.2-1.6-2.4-2.6-3.5c-7.6-8.9-19.8-12.9-31.2-10.1
			c-1.6,0.4-3.2,0.9-4.7,1.6c-0.6,0.2-1.4,0.8-2,0.9c-0.1,0.1-0.3,0.1-0.4,0.2c-0.1-0.2-0.2-0.4-0.4-0.7c-0.2-0.3-0.4-0.7-0.6-1
			c-1.5-2.3-3.2-4.5-5.2-6.4c-4.1-3.8-9.2-6.5-14.6-7.7c-11-2.4-22.7,1.4-30.1,9.9c-0.9,1-1.7,2.1-2.5,3.2c-0.3,0.5-0.7,1-1,1.6
			c-0.4,0.6-0.6,1.4-1.1,2c-0.1,0.1-0.1,0.2-0.2,0.3c-0.2-0.2-0.5-0.3-0.7-0.5c-0.3-0.2-0.6-0.4-0.9-0.5c-0.7-0.4-1.4-0.8-2.1-1.1
			c-1.5-0.7-3-1.2-4.5-1.7c-5.9-1.7-12.3-1.6-18.2,0.4c-5.3,1.7-10.1,4.9-13.7,9c-0.8,0.9-1.6,1.9-2.3,3c-0.4,0.5-0.7,1-1,1.6
			c-0.1,0.2-0.4,0.9-0.6,1c-0.2,0.1-1.3-0.4-1.5-0.5c-3.2-1-6.5-1.7-9.9-1.9c-10.7-0.8-21.5,2.4-30,8.9c-8,6.1-13.8,15-16.1,24.8
			c-1.2,5.2-1.3,10.5-1.1,15.8c0.2,5.1,1.3,10.2,3.3,15c3.9,9.3,11,17.2,19.9,22c10,5.4,22,6.6,32.9,3.5c3.1-0.9,6.1-2.2,9-3.7
			c0.4-0.2,0.6-0.5,0.9-0.3c0.2,0.1,0.4,0.6,0.5,0.8c0.3,0.5,0.7,1.1,1.1,1.6c0.9,1.3,1.8,2.5,2.8,3.6c3.7,4.2,8.1,7.7,13,10.2
			c10.7,5.4,23.4,6.2,34.7,2c2.8-1.1,5.6-2.4,8.1-4c1.2-0.7,2.3-1.5,3.4-2.4c0.6-0.5,1.3-1,1.9-1.6c0.2-0.2,0.4-0.4,0.6-0.5
			c0.2-0.2,0.4-0.4,0.6-0.6c0.2-0.4,0.4-0.4,0.6,0c0.5,0.3,1,1,1.5,1.4c0.5,0.4,1,0.9,1.6,1.3c1.3,1,2.7,1.9,4,2.8
			c2.5,1.5,5.2,2.8,8,3.8c11.3,4,24,3.1,34.6-2.5c5-2.6,9.4-6.2,13-10.5c0.8-1,1.6-2,2.3-3c0.2-0.3,0.4-0.6,0.6-0.9
			c0.3-0.4,0.2-0.5,0.6-0.5c0.3,0,0.8,0.4,1,0.5c0.5,0.3,1.1,0.5,1.7,0.7c3,1.3,6.2,2.2,9.5,2.8c10.9,2,22.3-0.3,31.6-6.3
			c8.5-5.5,15-13.9,18-23.6c1.4-4.4,1.9-8.8,2.1-13.4C338.1,128,338.1,127.7,338.1,127.4z"/>
		<polygon points="338.2,128 338.2,128 338.2,128 		"/>
	</g>
</g>
<g id="name">
	<g id="Camada_7_2_">
		<g>
			<path d="M391.7,30.1c1,26.6,1.6,53.2,1.9,79.8c0.2,13.3,0.3,26.6,0.4,39.9l0.1,39.9l-0.1,39.9c-0.1,13.3-0.2,26.6-0.4,39.9
				c-0.4,26.6-0.9,53.2-2,79.8c-1-26.6-1.6-53.2-2-79.8c-0.2-13.3-0.3-26.6-0.4-39.9l-0.1-39.9l0.1-39.9c0.1-13.3,0.2-26.6,0.4-39.9
				C390.1,83.4,390.6,56.8,391.7,30.1z"/>
		</g>
		<g>
			<g>
				<path d="M474.4,176.7c-6.7,0-12.3-1.4-16.8-4.3c-4.5-2.9-7.8-6.9-10.1-11.9c-2.3-5.1-3.6-11-4-17.7l14.4-3.9
					c0.3,4.1,0.9,8.1,1.9,11.9s2.7,7,5,9.4c2.3,2.4,5.5,3.7,9.6,3.7c4.2,0,7.4-1.2,9.6-3.5c2.2-2.4,3.2-5.7,3.2-10.1
					c0-5.3-1.2-9.5-3.6-12.7c-2.4-3.2-5.4-6.5-9.1-9.7L455,110.5c-3.8-3.4-6.7-7-8.5-11s-2.7-8.9-2.7-14.7c0-8.5,2.4-15.1,7.3-19.9
					c4.9-4.7,11.5-7.1,20-7.1c4.6,0,8.7,0.6,12.2,1.8s6.4,3,8.8,5.5c2.3,2.5,4.2,5.6,5.6,9.4c1.4,3.8,2.3,8.2,2.8,13.3l-13.8,3.7
					c-0.3-3.8-0.9-7.4-1.7-10.6c-0.9-3.2-2.4-5.8-4.5-7.8c-2.2-2-5.2-2.9-9.3-2.9s-7.2,1.1-9.4,3.2s-3.4,5.3-3.4,9.6
					c0,3.5,0.6,6.5,1.8,8.8c1.2,2.3,3.1,4.6,5.8,7l19.7,17.3c4.4,3.8,8.3,8.4,11.7,13.7c3.4,5.3,5,11.6,5,18.9
					c0,5.8-1.2,10.7-3.6,14.9c-2.4,4.2-5.7,7.4-9.8,9.6C484.7,175.6,479.9,176.7,474.4,176.7z"/>
				<path d="M514.1,175.4V58.9h15.4v42c2.8-2.7,5.9-5,9.3-6.9c3.5-1.9,7.3-2.9,11.5-2.9c3.3,0,5.8,0.9,7.5,2.6
					c1.8,1.7,3,3.9,3.7,6.5s1.1,5.2,1.1,7.9v67.3h-15.4v-62.8c0-3-0.4-5.3-1.3-6.9s-2.6-2.4-5.3-2.4c-1.8,0-3.7,0.5-5.7,1.6
					c-2,1.1-3.8,2.4-5.5,3.9v66.7H514.1z"/>
				<path d="M600.7,176.5c-6.5,0-11.5-1.3-15.1-3.8s-6-6.3-7.4-11.2c-1.4-4.9-2.1-11-2.1-18.2v-19c0-7.4,0.7-13.5,2.2-18.4
					s4-8.6,7.5-11.1c3.6-2.5,8.6-3.7,14.9-3.7c7,0,12.2,1.4,15.5,4.3c3.3,2.9,5.5,7,6.5,12.4s1.6,11.9,1.6,19.5v6.8h-32.8v16.7
					c0,3.4,0.3,6.1,0.9,8.2c0.6,2.1,1.6,3.7,3,4.7c1.4,1,3.2,1.5,5.4,1.5c2.3,0,4-0.5,5.2-1.6s2-2.7,2.4-4.8
					c0.4-2.1,0.7-4.5,0.7-7.3v-5h15v3.2c0,8.3-1.8,14.9-5.3,19.7C615.2,174.2,609.2,176.5,600.7,176.5z M591.5,125.8h17.7v-7.5
					c0-3.5-0.2-6.4-0.6-8.7c-0.4-2.4-1.2-4.1-2.4-5.3s-3.1-1.8-5.7-1.8c-2.5,0-4.4,0.6-5.7,1.7c-1.3,1.1-2.2,3.1-2.7,5.8
					s-0.7,6.5-0.7,11.3L591.5,125.8L591.5,125.8z"/>
				<path d="M661.2,176.5c-6.5,0-11.5-1.3-15.1-3.8s-6-6.3-7.4-11.2c-1.4-4.9-2.1-11-2.1-18.2v-19c0-7.4,0.7-13.5,2.2-18.4
					s4-8.6,7.5-11.1c3.6-2.5,8.6-3.7,14.9-3.7c7,0,12.2,1.4,15.5,4.3c3.3,2.9,5.5,7,6.5,12.4s1.6,11.9,1.6,19.5v6.8H652v16.7
					c0,3.4,0.3,6.1,0.9,8.2c0.6,2.1,1.6,3.7,3,4.7c1.4,1,3.2,1.5,5.4,1.5c2.3,0,4-0.5,5.2-1.6s2-2.7,2.4-4.8
					c0.4-2.1,0.7-4.5,0.7-7.3v-5h15v3.2c0,8.3-1.8,14.9-5.3,19.7C675.8,174.2,669.8,176.5,661.2,176.5z M652,125.8h17.7v-7.5
					c0-3.5-0.2-6.4-0.6-8.7c-0.4-2.4-1.2-4.1-2.4-5.3s-3.1-1.8-5.7-1.8c-2.5,0-4.4,0.6-5.7,1.7c-1.3,1.1-2.2,3.1-2.7,5.8
					s-0.7,6.5-0.7,11.3L652,125.8L652,125.8z"/>
				<path d="M698.8,202.7V92.3h15.4v6.6c1.8-2.1,4-3.9,6.6-5.5c2.6-1.5,5.7-2.3,9.2-2.3c4.3,0,7.7,1.1,10.3,3.4
					c2.5,2.2,4.4,5.1,5.7,8.5c1.2,3.4,2.1,6.9,2.4,10.4c0.4,3.5,0.6,6.5,0.6,9v20.1c0,5.9-0.6,11.4-1.7,16.6
					c-1.2,5.2-3.2,9.4-6.3,12.7c-3,3.2-7.3,4.8-12.7,4.8c-3,0-5.6-0.7-7.9-2.2s-4.4-3.2-6.2-5.1v33.5L698.8,202.7L698.8,202.7z
					 M725.2,164.5c2.7,0,4.6-1,5.8-3c1.2-2,1.9-4.6,2.2-8c0.3-3.4,0.4-7,0.4-11.1v-20.1c0-3.5-0.2-6.6-0.6-9.6
					c-0.4-2.9-1.2-5.2-2.4-7c-1.2-1.7-3.2-2.6-5.9-2.6c-2,0-3.9,0.4-5.8,1.3c-1.8,0.9-3.4,1.9-4.8,3v53.2c1.4,1.1,3.1,1.9,4.9,2.7
					C720.9,164.1,722.9,164.5,725.2,164.5z"/>
			</g>
		</g>
		<g>
			<g>
				<path class="st4" d="M475,325.7c-8.2,0-14.6-1.7-19.2-5.2c-4.6-3.5-7.7-8.1-9.5-14c-1.8-5.9-2.7-12.4-2.7-19.6v-41.1
					c0-7.9,0.9-14.7,2.7-20.6c1.8-5.9,4.9-10.4,9.5-13.6s11-4.8,19.2-4.8c7.3,0,13.1,1.3,17.3,4c4.3,2.7,7.3,6.5,9.2,11.5
					c1.9,5,2.8,11,2.8,18v9.2h-15.4v-8.2c0-4.3-0.2-8.1-0.7-11.4s-1.6-5.9-3.5-7.7c-1.9-1.8-5.1-2.7-9.6-2.7c-4.6,0-8,1-10.1,3
					c-2.1,2-3.5,4.8-4.1,8.3s-0.9,7.8-0.9,12.6v46.2c0,5.9,0.5,10.5,1.4,13.9s2.5,5.8,4.8,7.3c2.2,1.4,5.2,2.2,8.9,2.2
					c4.4,0,7.6-1,9.5-3c1.9-2,3.1-4.7,3.6-8.1c0.5-3.5,0.7-7.5,0.7-12.1v-8.6h15.4v8.6c0,7.1-0.9,13.4-2.6,18.8
					c-1.7,5.4-4.7,9.6-8.9,12.7C488.6,324.2,482.7,325.7,475,325.7z"/>
				<path class="st4" d="M541.4,325.5c-6.1,0-11-1.2-14.5-3.7c-3.5-2.5-6.1-6-7.5-10.6c-1.5-4.6-2.2-10-2.2-16.2v-24.2
					c0-6.2,0.7-11.6,2.2-16.2c1.5-4.6,4-8.1,7.5-10.6c3.5-2.5,8.4-3.7,14.5-3.7s11,1.2,14.5,3.7s6,6,7.5,10.6
					c1.5,4.6,2.2,10,2.2,16.2v24.2c0,6.2-0.7,11.6-2.2,16.2s-4,8.1-7.5,10.6C552.4,324.3,547.6,325.5,541.4,325.5z M541.4,314.2
					c3,0,5.1-0.9,6.3-2.6s1.9-4,2.2-6.8s0.4-5.8,0.4-8.8v-26c0-3.2-0.1-6.1-0.4-8.9c-0.2-2.8-1-5.1-2.2-6.8
					c-1.2-1.8-3.3-2.7-6.3-2.7c-3,0-5.1,0.9-6.3,2.7c-1.2,1.8-2,4-2.2,6.8s-0.4,5.8-0.4,8.9v26c0,3.1,0.1,6,0.4,8.8
					c0.2,2.8,1,5.1,2.2,6.8C536.3,313.3,538.5,314.2,541.4,314.2z"/>
				<path class="st4" d="M599,325.5c-7,0-12.2-2.6-15.7-7.7c-3.5-5.1-5.2-13.8-5.2-26.1v-16.1c0-6.3,0.5-12.2,1.6-17.6
					c1-5.4,3-9.7,6-13c2.9-3.3,7.2-4.9,12.9-4.9c2.8,0,5.3,0.6,7.6,1.9s4.4,2.8,6.2,4.6v-38.7h15.4v116.5h-15.4v-5.3
					c-1.8,1.9-3.8,3.5-6,4.7C604.2,324.9,601.7,325.5,599,325.5z M602.8,313.5c1.4,0,3-0.3,4.6-0.8s3.3-1.3,4.9-2.4v-54.5
					c-1.3-1-2.8-1.8-4.5-2.5s-3.4-1.1-5.3-1.1c-3.5,0-6,1.7-7.2,5.1c-1.2,3.4-1.9,7.5-1.9,12.3V293c0,3.8,0.2,7.3,0.7,10.4
					c0.4,3.1,1.3,5.6,2.7,7.3C598.1,312.6,600.1,313.5,602.8,313.5z"/>
				<path class="st4" d="M666.3,325.5c-6.5,0-11.5-1.3-15.1-3.8s-6-6.3-7.4-11.2c-1.4-4.9-2.1-11-2.1-18.2v-19
					c0-7.4,0.7-13.5,2.2-18.4c1.4-4.9,4-8.6,7.5-11.1c3.6-2.5,8.6-3.7,14.9-3.7c7,0,12.2,1.4,15.5,4.3c3.3,2.9,5.5,7,6.5,12.4
					c1,5.4,1.6,11.9,1.6,19.5v6.8H657v16.7c0,3.4,0.3,6.1,0.9,8.2c0.6,2.1,1.6,3.7,3,4.7c1.4,1,3.2,1.5,5.4,1.5c2.3,0,4-0.5,5.2-1.6
					s2-2.7,2.4-4.8c0.4-2.1,0.7-4.5,0.7-7.3v-5h15v3.2c0,8.3-1.8,14.9-5.3,19.7C680.8,323.1,674.8,325.5,666.3,325.5z M657,274.8
					h17.7v-7.5c0-3.5-0.2-6.4-0.6-8.7c-0.4-2.4-1.2-4.1-2.4-5.3s-3.1-1.8-5.7-1.8c-2.5,0-4.4,0.6-5.7,1.7c-1.3,1.1-2.2,3.1-2.7,5.8
					s-0.7,6.5-0.7,11.3L657,274.8L657,274.8z"/>
			</g>
		</g>
	</g>
</g>
<g id="Camada_1" class="st0">
	<g class="st1">
		<g>
			<g>
				<path d="M317.8,199c-2.1,2.1-4.5,3.9-6.9,5.6c-5.1,3.4-10.8,6.1-16.8,7.1c-3.5,0.5-7.1,0.5-10.5-0.3c-3.5-0.8-6.7-2.6-9.6-4.5
					c-3.7-2.4-7.1-5.2-10.3-8.2c-0.8-0.7-1.6-1.5-2.4-2.2c-1.1-1-0.9-2.2-1-3.6c-0.2-2.3-0.4-4.5-0.6-6.8c-0.5-5-1.2-10.1-2.1-15.1
					c-0.4-2.5-0.9-5-1.4-7.4c-0.1-0.6-0.2-1.2-0.4-1.8c-0.1-0.3-0.1-1.5-0.4-1.8s-1.5-0.4-1.9-0.5c-0.6-0.2-1.2-0.4-1.9-0.6
					c0,2.2,0,4.3,0,6.5c0.2-0.2,0.4-0.5,0.7-0.6c0.5-0.2,0.9,0.1,1.5,0.2c1.5,0.4,3,0.8,4.5,1c3,0.5,6.1,0.7,9.2,0.6
					c3-0.1,6-0.5,9-1.2c0.7-0.2,1.5-0.4,2.2-0.6c0.2,0,1.1-0.5,1.3-0.4c0.1,0,0.1,0.1,0.1,0.1c0.3,0.2,0.6,0.6,0.8,0.9
					c0.5,0.5,1,1,1.4,1.5c1.5,1.6,3,3.2,4.4,4.8c8.2,8.9,16.5,17.8,24.7,26.7c2.2,2.4,4.3,4.7,6.5,7.1c0,0,0-1,0-1
					c0-0.8,0-1.5,0-2.3s0-1.5,0-2.3C317.8,199.8,317.9,199.2,317.8,199c-5.7-6.2-11.5-12.4-17.2-18.6c-6.8-7.3-13.5-14.7-20.3-22
					c-0.3-0.3-0.3-0.4-0.7-0.4c-0.7,0-1.7,0.5-2.4,0.7c-0.8,0.2-1.6,0.4-2.5,0.6c-1.7,0.4-3.4,0.6-5,0.8c-3.5,0.3-6.9,0.2-10.4-0.3
					c-1.7-0.2-3.3-0.6-5-1c-0.5-0.1-1.5-0.6-2-0.5c-0.2,0.1-0.6,0.6-0.8,0.7c-0.1,0.1,0,1,0,1c0,0.8,0,1.5,0,2.3
					c0,0.3-0.2,3.2,0,3.2c1,0.3,1.9,0.6,2.9,0.8c0.7,0.2,0.8,0.1,1,0.9c0.1,0.7,0.3,1.3,0.4,2c0.5,2.2,0.9,4.3,1.3,6.5
					c0.8,4.5,1.5,9,2,13.6c0.3,2.3,0.5,4.6,0.7,6.9c0.1,1.2,0.2,2.5,0.3,3.7c0,0.6,0.1,1.1,0.1,1.7c0,0.7,0.2,0.8,0.7,1.3
					c3.2,3.1,6.6,6.1,10.3,8.8c3.1,2.3,6.4,4.4,10,5.7c3.2,1.2,6.7,1.5,10.1,1.3c6.4-0.4,12.5-3,17.8-6.3c3-1.9,6-4.1,8.5-6.6
					c0.1-0.1,0-1,0-1c0-0.8,0-1.5,0-2.3s0-1.5,0-2.3C317.8,199.8,317.7,199.1,317.8,199z"/>
			</g>
		</g>
		<g>
			<g>
				<path d="M86.1,158.2c-1,0.4-2,0.7-3.1,1c-0.5,0.1-1.1,0.2-1.4,0.6c-0.3,0.4-0.3,1.5-0.4,2c-0.5,2.1-0.9,4.3-1.3,6.5
					c-0.8,4.5-1.5,9-2.1,13.6c-0.5,4.5-0.9,9-1.2,13.4c0,0.6,0,1.2-0.3,1.8c-0.3,0.5-0.8,0.9-1.2,1.3c-0.9,0.8-1.9,1.7-2.8,2.5
					c-1.6,1.4-3.4,2.8-5.1,4.1c-3.1,2.3-6.4,4.4-10.1,5.7c-3.2,1.2-6.7,1.5-10.2,1.3c-6.4-0.4-12.5-3-17.8-6.3c-3-1.9-6-4.1-8.5-6.6
					c0,2.2,0,4.3,0,6.5c5.7-6.1,11.3-12.3,17-18.4c6.7-7.3,13.4-14.5,20.1-21.8c0.1-0.1,0.3-0.4,0.4-0.5c0.4-0.2,2.2,0.6,2.6,0.7
					c0.7,0.2,1.5,0.3,2.2,0.5c1.7,0.3,3.3,0.5,5,0.6c3.4,0.2,6.8,0,10.1-0.5c1.6-0.3,3.2-0.6,4.8-1.1c0.7-0.2,1.4-0.5,2.1-0.7
					c0.6-0.1,0.6,0,1,0.4c0,0,0-1,0-1c0-0.8,0-1.5,0-2.3s0-1.5,0-2.3C86.1,159,86.2,158.3,86.1,158.2c-0.1-0.1-0.4-0.5-0.6-0.5
					c-0.4-0.1-1.7,0.6-2.1,0.7c-1.4,0.4-2.9,0.8-4.4,1c-2.9,0.5-5.8,0.8-8.7,0.8c-3.1,0-6.1-0.4-9.1-1c-0.6-0.1-1.2-0.3-1.8-0.4
					c-0.2-0.1-1.1-0.4-1.3-0.4c-0.1,0-0.1,0.1-0.1,0.1c-0.3,0.2-0.6,0.6-0.8,0.9c-0.5,0.5-0.9,1-1.4,1.5c-1.5,1.6-2.9,3.2-4.4,4.7
					c-8.1,8.8-16.2,17.6-24.4,26.4c-2.1,2.3-4.3,4.6-6.4,7c-0.1,0.1,0,1,0,1c0,0.8,0,1.5,0,2.3s0,1.5,0,2.3c0,0.2-0.1,0.8,0,1
					c2.1,2.1,4.5,3.9,6.9,5.6c5.1,3.4,10.8,6.1,16.8,7.1c3.5,0.5,7.1,0.5,10.5-0.3c3.5-0.8,6.7-2.6,9.7-4.5
					c3.7-2.4,7.1-5.3,10.4-8.2c0.4-0.4,0.9-0.7,1.2-1.1c0.4-0.4,0.4-0.6,0.4-1.2c0.1-1.3,0.2-2.7,0.3-4c0.2-2.4,0.4-4.8,0.6-7.1
					c0.5-5,1.2-10.1,2.1-15c0.4-2.5,0.9-4.9,1.4-7.4c0.1-0.6,0.2-1.2,0.4-1.8c0.1-0.2,0.1-0.6,0.2-0.9c0.2-0.5,0.1-0.3,0.6-0.6
					c1.2-0.6,2.7-0.8,4-1.3c0.2-0.1,0-3,0-3.2C86.1,161.2,85.9,158.3,86.1,158.2z"/>
			</g>
		</g>
	</g>
	<g class="st1">
		<g>
			<path d="M252,218.2c0-0.6,0,0.3,0,0.4c0,0.5,0,0.9,0,1.4c0,1-0.1,2-0.1,3c-0.1,1.9-0.3,3.7-0.5,5.5c-0.4,3.4-1,6.9-1.8,10.2
				c-1.4,6.2-3.5,12.3-6.2,18c-4.8,10.3-11.6,19.6-19.9,27.3c-7,6.5-15.1,12-23.9,15.7c-6.4,2.7-13.7,4.9-20.7,4.3
				c-4.3-0.3-9.2-2-10.3-6.8c-0.1-0.7-0.2-2.7-0.2-0.3c0,0,0-1.6,0-1.6s0,1.6,0,1.6c0-2.4,0-0.4-0.2,0.3c-0.1,0.5-0.3,0.9-0.4,1.4
				c-0.4,0.9-1,1.7-1.7,2.4c-1.6,1.5-3.8,2.3-6,2.7c-6.5,1.2-13.5-0.5-19.6-2.8c-8.6-3.1-16.6-8-23.7-13.8
				c-8.5-7-15.6-15.6-20.9-25.3c-6.2-11.3-9.9-24-11-36.8c-0.2-1.9-0.3-3.8-0.3-5.6c0-0.5,0-0.9,0-1.4c0-0.7,0,1.1,0,0.5
				c0,1.2,0,0.3,0,0c0-1.4,0.1-2.8,0.1-4.3c0.2-5.4,0.5-10.7,1-16c0.5-5.1,1.2-10.1,2-15.1c0.4-2.5,0.9-4.9,1.3-7.3
				c0.2-1.2,0.5-2.3,0.7-3.5c0.1-0.5,0.1-1.3,0.6-1.6c0.4-0.3,1.4-0.4,1.9-0.6c2.3-0.7,4.6-1.6,6.7-2.8c0.5-0.3,1-0.5,1.5-0.8
				c0.7-0.4,0.6-0.2,1,0.5c0.6,0.9,1.1,1.7,1.7,2.5c2.4,3.2,5.1,6.1,8.2,8.5c6.4,5,14.1,8.2,22.2,9.1c8.8,1,17.9-0.7,25.7-4.9
				c1.9-1,3.7-2.2,5.4-3.5c0.8-0.6,1.6-1.3,2.4-1.9c0.4-0.3,0.8-0.7,1.2-1c0.1-0.1,0.5-0.5,0.6-0.5c0.1,0,0.6,0.6,0.7,0.7
				c3.2,2.9,6.8,5.3,10.6,7.2c15.5,7.4,34.5,4.9,47.5-6.3c3-2.6,5.7-5.6,7.9-8.9c0.4-0.6,0.4-0.8,1.1-0.5c0.5,0.3,1.1,0.5,1.6,0.8
				c1.1,0.5,2.3,1,3.5,1.4c1.1,0.4,2.3,0.7,3.4,1c0.2,0.1,0.6,0.1,0.9,0.2c0.6,0.3,0.3,0,0.5,0.5c0.3,0.6,0.3,1.5,0.5,2.2
				c2.1,10,3.5,20.2,4.3,30.5c0.2,2.5,0.3,4.9,0.4,7.4c0,1.3,0.1,2.6,0.1,3.9c0,0.7,0,1.4,0,2.1c0,0.3,0,0.6,0,1c0,0.1,0,0.9,0,0.4
				c0,0.2,0,3.2,0,3.2s0-3.2,0-3.2c0-16.2-1.2-32.4-4.3-48.4c-0.2-0.9-0.4-1.8-0.5-2.6c-0.2-0.9-0.3-2-0.6-2.8
				c-0.1-0.4,0-0.3-0.3-0.5c-0.1-0.1-0.5-0.1-0.7-0.2c-0.5-0.1-1-0.3-1.5-0.4c-0.9-0.3-1.9-0.6-2.8-0.9c-0.8-0.3-1.7-0.6-2.5-1
				c-0.4-0.2-0.8-0.4-1.2-0.5c-0.2-0.1-1.4-0.8-1.6-0.8c-0.4,0.1-1,1.5-1.2,1.8c-0.5,0.6-0.9,1.3-1.4,1.9
				c-3.9,4.9-8.8,8.9-14.4,11.8c-11.9,6.1-26.2,6.3-38.4,0.7c-3-1.4-5.9-3.1-8.5-5.2c-0.7-0.5-1.3-1-1.9-1.6
				c-0.3-0.3-0.6-0.5-0.9-0.8c-0.5-0.4-0.5-0.6-1-0.1c-1.2,1.1-2.5,2.2-3.9,3.2c-5.4,4-11.8,6.7-18.4,7.9
				c-12.8,2.2-26.3-1.4-36.1-9.9c-2.3-2-4.4-4.2-6.3-6.7c-0.4-0.6-0.9-1.2-1.3-1.8c-0.4-0.6-0.8-1.5-1.3-2c-0.4-0.4-0.1-0.2-0.6-0.1
				c-0.2,0-0.4,0.2-0.6,0.3c-0.4,0.2-0.8,0.4-1.2,0.6c-0.9,0.4-1.7,0.8-2.6,1.2c-1.8,0.8-3.6,1.4-5.4,1.9c-0.2,0-0.5,0.1-0.6,0.2
				c-0.3,0.2-0.2,0.1-0.3,0.5c-0.2,0.4-0.2,0.9-0.3,1.3c-0.2,0.9-0.4,1.9-0.6,2.8c-0.8,3.8-1.4,7.6-2,11.4
				c-1.2,7.9-1.9,15.8-2.3,23.7c-0.4,7.9-0.5,15.8-0.1,23.7c0.5,10.3,2.6,20.6,6.4,30.3c3.3,8.5,7.9,16.4,13.6,23.4
				c5.1,6.2,11,11.8,17.5,16.4c5.7,4,11.8,7.4,18.4,9.7c5,1.8,10.4,3.1,15.9,3.1c3.5-0.1,7.6-0.8,10.1-3.5c1-1.1,1.6-2.6,1.8-4.1
				c0.1-0.6,0.1-1.3,0.1-2c0-0.8-0.1-0.8,0,0c0,0.3,0,0.6,0,0.9c0,0.2,0,0.5,0,0.7c0.1,0.8,0.2,1.6,0.5,2.3c1.3,3.2,4.6,4.8,7.8,5.3
				c4.8,0.9,9.9,0.1,14.5-1.2c6.3-1.7,12.4-4.5,18-7.8c6.6-4,12.7-8.9,18.1-14.5c6.1-6.4,11.2-13.6,15.1-21.5
				c4.5-8.9,7.4-18.6,8.7-28.5c0.8-5.6,1-11.3,1-17c0-1.3,0.2-2.7,0-4c-0.1-0.3,0,0.4,0,0.3C252,216.9,252,217.5,252,218.2z"/>
		</g>
	</g>
	<g class="st1">
		<g>
			<g>
				<path d="M158.8,284.8c-3.7-3.7-7.4-7.4-11.1-11.1c0,2.2,0,4.3,0,6.5c3.7-3.7,7.4-7.4,11.1-11.1c0.1-0.1,0-1,0-1
					c0-0.8,0-1.5,0-2.3s0-1.5,0-2.3c0-0.1-0.1-0.9,0-1c-3.7,3.7-7.4,7.4-11.1,11.1c-0.1,0.1,0,1,0,1c0,0.8,0,1.5,0,2.3s0,1.5,0,2.3
					c0,0.2-0.1,0.8,0,1c3.7,3.7,7.4,7.4,11.1,11.1c0,0,0-1,0-1c0-0.8,0-1.5,0-2.3s0-1.5,0-2.3C158.9,285.6,158.9,284.9,158.8,284.8
					L158.8,284.8z"/>
			</g>
		</g>
		<g>
			<g>
				<path d="M176.7,291.3c3.7-3.7,7.4-7.4,11.1-11.1c0.1-0.1,0-1,0-1c0-0.8,0-1.5,0-2.3s0-1.5,0-2.3c0-0.2,0.1-0.8,0-1
					c-3.7-3.7-7.4-7.4-11.1-11.1c0,0,0,1,0,1c0,0.8,0,1.5,0,2.3s0,1.5,0,2.3c0,0.2-0.1,0.8,0,1c3.7,3.7,7.4,7.4,11.1,11.1
					c0-2.2,0-4.3,0-6.5c-3.7,3.7-7.4,7.4-11.1,11.1c-0.1,0.1,0,1,0,1c0,0.8,0,1.5,0,2.3s0,1.5,0,2.3
					C176.7,290.5,176.8,291.3,176.7,291.3L176.7,291.3z"/>
			</g>
		</g>
		<g>
			<g>
				<path d="M172.4,264.4c-2.3,6.1-4.6,12.1-7,18.2c-0.3,0.9-0.7,1.7-1,2.6c-0.1,0.2,0,0.8,0,1c0,0.8,0,1.5,0,2.3s0,1.5,0,2.3
					c0,0.2,0.1,0.7,0,1c2.3-6.1,4.6-12.1,7-18.2c0.3-0.9,0.7-1.7,1-2.6c0.1-0.2,0-0.8,0-1c0-0.8,0-1.5,0-2.3s0-1.5,0-2.3
					C172.5,265.1,172.4,264.6,172.4,264.4L172.4,264.4z"/>
			</g>
		</g>
	</g>
	<g class="st1">
		<g>
			<path d="M101,80.2c4.9-8.8,14.2-14.5,24.3-14.8c2.9-0.1,5.8,0.3,8.6,1.1c1.3,0.4,2.5,0.8,3.7,1.3c0.6,0.3,1.2,0.6,1.9,0.9
				c0.3,0.1,2,1.3,2.1,1.2c0.3-0.1,0.7-1.3,0.8-1.6c0.3-0.5,0.6-1,0.9-1.5c0.6-1,1.3-1.9,2.1-2.8c1.6-1.9,3.4-3.6,5.4-5
				c8.1-5.8,19-6.9,28.1-2.9c4.5,2,8.4,5.1,11.3,9c0.7,1,1.4,2,2,3c0.2,0.4,0.2,0.5,0.5,0.5c0.2,0,0.7-0.4,1-0.5
				c0.8-0.4,1.5-0.7,2.4-1c2.7-1,5.6-1.6,8.5-1.7c11.4-0.5,22.1,5.9,27.1,16.1c-0.1-0.1,0-0.9,0-1c0-0.8,0-1.5,0-2.3s0-1.5,0-2.3
				c0-0.2,0.1-0.7,0-1c-4.4-8.9-13.2-15.1-23.1-16c-2.9-0.3-5.8-0.1-8.6,0.5c-1.3,0.3-2.6,0.7-3.9,1.1c-0.7,0.2-1.3,0.5-2,0.8
				c-0.3,0.1-0.6,0.3-1,0.5c-0.6,0.3-0.6,0.3-0.9-0.3c-2.4-4.2-5.9-7.8-10.1-10.3c-8.6-5.1-19.5-5.4-28.3-0.6
				c-4.2,2.3-7.9,5.7-10.5,9.7c-0.3,0.5-0.6,1-0.9,1.5c-0.1,0.2-0.6,1.5-0.8,1.6c-0.2,0-1.6-0.9-1.8-1c-0.7-0.4-1.5-0.8-2.2-1.1
				c-2.6-1.1-5.3-1.9-8-2.2c-11.5-1.4-22.8,4.5-28.5,14.6c-0.1,0.1,0,0.9,0,1c0,0.8,0,1.5,0,2.3s0,1.5,0,2.3
				C101,79.5,101.1,80.1,101,80.2L101,80.2z"/>
		</g>
	</g>
	<g class="st1">
		<g>
			<path d="M120.1,141.7c8.2,11.9,24.1,16.2,37.6,11.8c3.4-1.1,6.7-2.8,9.6-5c0.3-0.3,0.7-0.6,1.1-0.8c0.3-0.2,0.1-0.2,0.4-0.1
				c0.1,0,0.3,0.3,0.4,0.4c0.7,0.6,1.4,1.1,2.2,1.6c1.5,1,3.1,1.9,4.8,2.7c6.8,3.1,14.7,3.8,21.9,2.1c7.4-1.7,14.1-5.9,18.6-12
				c0.1-0.1,0-0.9,0-1c0-0.8,0-1.5,0-2.3s0-1.5,0-2.3c0-0.2-0.1-0.8,0-1c-8.5,11.6-24.6,15.6-37.9,11c-3.4-1.2-6.6-2.9-9.4-5.2
				c-0.1-0.1-0.3-0.3-0.4-0.4c-0.4-0.2,0-0.3-0.6,0c-0.3,0.2-0.6,0.5-0.9,0.7c-0.7,0.5-1.5,1.1-2.2,1.5c-1.6,1-3.2,1.8-4.9,2.6
				c-6.9,2.9-14.7,3.4-22,1.6c-7.3-1.9-13.9-6.2-18.3-12.4c0.1,0.1,0,1,0,1c0,0.8,0,1.5,0,2.3s0,1.5,0,2.3
				C120.1,141,120,141.6,120.1,141.7L120.1,141.7z"/>
		</g>
	</g>
	<g class="st1">
		<g>
			<g>
				<path d="M242.9,81.7c8.3-3.8,18-4,26.5-0.3c7.1,3.1,13,8.8,16.3,15.9c1.7,3.7,2.8,7.7,3,11.7c0,0.3,0,0.6,0,0.9
					c0,0.8,0.1-5.9,0-3.8c0,0.5-0.1,1.1-0.1,1.6c-0.1,1-0.2,2-0.4,3c-0.4,2-1,3.9-1.7,5.8c-2.9,7.2-8.4,13.3-15.3,16.8
					c-9.2,4.7-20.3,4.6-29.5-0.1c0.2,0.1,0,2.9,0,3.2c0,0.8,0,1.5,0,2.3c0,0.1,0,0.9,0,1c8.7,4.4,19.1,4.8,28,0.8
					c7.5-3.3,13.5-9.5,16.6-17.1c1.6-3.9,2.4-8,2.5-12.2c0.1-5.1,0.2-10.3-1.1-15.2c-2.2-8-7.4-14.9-14.5-19.2
					c-9.1-5.5-20.6-6.1-30.2-1.6c-0.2,0.1,0,2.9,0,3.2C242.9,78.8,243.1,81.6,242.9,81.7L242.9,81.7z"/>
			</g>
		</g>
		<g>
			<g>
				<path d="M224.4,114.6c1.2,10.7,7.8,20.2,17.3,25.2c-0.2-0.1,0-2.9,0-3.2c0-0.8,0-1.5,0-2.3c0-0.1,0.1-0.9,0-1
					c-9.5-5-16.1-14.4-17.3-25.2C224.6,110.2,224.1,112.5,224.4,114.6L224.4,114.6z"/>
			</g>
		</g>
	</g>
	<g class="st1">
		<g>
			<g>
				<path d="M91.4,75.2c-8.8-4-19-4-27.6,0.2C56.3,79,50.5,85.4,47.6,93c-1.6,4.1-2.1,8.4-2.1,12.8c0,5,0,9.9,1.4,14.7
					c2.4,7.9,7.9,14.7,15.1,18.7c9.4,5.3,21,5.4,30.6,0.6c0.2-0.1,0-2.9,0-3.2c0-0.3-0.3-3.1,0-3.2c-8.3,4.2-18.1,4.7-26.7,1.3
					c-7.2-2.9-13.3-8.4-16.8-15.3c-1.8-3.5-2.9-7.4-3.3-11.4c-0.1-0.6-0.1-1.2-0.1-1.8c-0.1-2.3-0.1,6,0,3.1
					c0.1-1.1,0.2-2.2,0.4-3.3c0.3-2,0.8-4,1.5-5.9c2.7-7.3,8-13.5,14.8-17.3c8.9-4.9,19.9-5.2,29.1-1c-0.2-0.1,0-3,0-3.2
					C91.4,78.1,91.6,75.4,91.4,75.2L91.4,75.2z"/>
			</g>
		</g>
		<g>
			<g>
				<path d="M109.9,108.1c-1.2,10.7-7.8,20.2-17.3,25.2c-0.2,0.1,0,2.9,0,3.2c0,0.8,0,1.5,0,2.3c0,0.1,0.1,0.9,0,1
					c9.6-5,16.1-14.4,17.3-25.2C110.1,112.5,109.6,110.2,109.9,108.1L109.9,108.1z"/>
			</g>
		</g>
	</g>
	<g class="st1">
		<g>
			<g>
				<path d="M300.9,106.6c0-1.9-0.1,0.6-0.1,1c0,0.7-0.1,1.4-0.2,2.1c-0.2,1.3-0.4,2.6-0.7,3.9c-0.5,2.4-1.3,4.8-2.2,7.2
					c-1.9,4.7-4.6,9-7.9,12.8c-6.7,7.6-15.9,12.7-25.8,14.4c-5.9,1-12.1,0.8-17.9-0.6c-1.7-0.4-3.3-0.9-4.9-1.5
					c-0.7-0.3-1.4-0.5-2.1-0.9c-0.8-0.4-1.7-0.9-2.5-1.2c-0.8-0.2-0.2-0.2-0.6,0.1c-0.2,0.2-0.5,0.7-0.6,1c-0.4,0.5-0.7,1-1.1,1.6
					c-0.9,1.1-1.8,2.2-2.7,3.2c-7.7,8.3-18.5,13.5-29.8,14.1c-6.1,0.3-12.2-0.6-17.9-2.7c-2.8-1-5.5-2.4-8-4
					c-1.2-0.7-2.3-1.5-3.4-2.4c-0.6-0.4-1.1-0.9-1.6-1.3c-0.3-0.3-1.5-1.7-1.8-1.7c-0.3,0-1.4,1.3-1.7,1.5c-0.6,0.5-1.2,1-1.8,1.4
					c-1.2,0.9-2.4,1.8-3.8,2.6c-2.5,1.5-5.1,2.8-7.9,3.9c-5.8,2.1-12,3-18.1,2.6c-11.3-0.7-22.1-6-29.7-14.4c-0.9-1-1.7-2-2.5-3
					c-0.4-0.5-0.8-1-1.1-1.6c-0.4-0.5-0.8-1.5-1.3-2c-0.4-0.4-0.2-0.3-0.8,0c-0.3,0.2-0.6,0.4-1,0.5c-0.7,0.4-1.3,0.7-2,1
					c-1.5,0.7-3,1.3-4.6,1.8c-5.9,2-12.3,2.7-18.5,2.1c-20.6-2-37.5-18.8-39.7-39.4c-0.1-0.8-0.1-1.5-0.2-2.3c0-0.3,0-0.6,0-0.9
					c0,1.1,0,2.2,0,3.3c0-0.2,0-0.5,0-0.7c0.1-1.4,0.2-2.9,0.4-4.3c0.4-2.5,1-5,1.8-7.4c1.6-4.8,4-9.3,7.1-13.3
					c6.2-8,15.1-13.7,24.9-16c5.5-1.3,11.3-1.5,17-0.7c1.7,0.3,3.4,0.6,5.1,1.1c0.8,0.2,1.5,0.4,2.2,0.7c0,0,0.8,0.3,0.9,0.3
					c0.2-0.1,0.6-1.1,0.8-1.3c1.4-2.3,3.1-4.4,5-6.2c8.6-8.2,21.4-11,32.6-6.9c1.4,0.5,2.7,1.1,4.1,1.8c0.6,0.3,1.3,0.9,1.9,1.1
					c0.6,0.2,0.4,0.2,0.7-0.5c0.2-0.3,0.4-0.7,0.5-1c1.3-2.4,3-4.6,4.9-6.6c3.7-3.8,8.3-6.7,13.4-8.2c10.8-3.3,22.9-0.5,31.1,7.4
					c1.9,1.8,3.6,3.9,5,6.2c0.2,0.3,0.4,0.6,0.6,1c0.2,0.4,0.2,0.6,0.6,0.6c0.6,0,1.7-0.8,2.2-1.1c1.5-0.6,3.1-1.2,4.8-1.6
					c5.9-1.4,12.2-1.1,17.9,0.9c5,1.8,9.6,4.8,13.1,8.8c0.9,1,1.8,2.1,2.6,3.3c0.4,0.5,0.7,1.1,1,1.6c0.4,0.6,0.6,1.5,1.1,2
					c0.5,0.5,0,0.2,0.6,0.1c0.4,0,0.9-0.4,1.3-0.5c0.7-0.3,1.4-0.6,2.1-0.8c1.6-0.6,3.2-1,4.9-1.4c10.9-2.5,22.6-0.7,32.3,4.9
					c8.6,5,15.4,12.9,19,22.1c0.9,2.3,1.6,4.7,2.1,7.2c0.2,1.2,0.5,2.4,0.6,3.6c0.1,0.6,0.1,1.2,0.2,1.8c0,0.5,0.1,0.9,0.1,1.4
					c0,0.4,0,1.7,0,0c0,0.6,0,1.3,0,1.9c0,0.3-0.1,0.5,0,0.3c0.2-0.3,0-1.2,0-1.5C301,108.2,301,107.4,300.9,106.6
					c0.1-5.6-0.4-11.1-2.2-16.4c-1.6-4.9-4.1-9.5-7.3-13.5c-6.3-8-15.4-13.7-25.4-15.9c-5.9-1.3-12.1-1.4-18-0.2
					c-1.7,0.3-3.3,0.8-5,1.3c-0.7,0.2-1.5,0.5-2.2,0.8c-0.7,0.3-1.8,1-2.5,1.1c-0.1,0.1-0.3,0.1-0.4,0.2c-0.1-0.2-0.2-0.5-0.3-0.7
					c-0.1-0.2-0.2-0.5-0.4-0.7c-0.3-0.6-0.7-1.2-1.1-1.8c-0.8-1.2-1.6-2.4-2.6-3.5c-7.7-9-20-13.1-31.5-10.3
					c-1.6,0.4-3.2,0.9-4.8,1.6c-0.6,0.2-1.4,0.9-2,0.9c-0.1,0.1-0.3,0.1-0.4,0.2c-0.1-0.2-0.2-0.4-0.4-0.7c-0.2-0.3-0.4-0.7-0.6-1
					c-1.5-2.4-3.3-4.5-5.3-6.4c-4.1-3.9-9.3-6.6-14.8-7.8c-11.1-2.4-23,1.5-30.5,10c-0.9,1-1.8,2.1-2.5,3.3c-0.4,0.5-0.7,1.1-1,1.6
					c-0.4,0.6-0.6,1.5-1.1,2c-0.1,0.1-0.1,0.2-0.2,0.3c-0.2-0.2-0.5-0.3-0.7-0.5c-0.3-0.2-0.6-0.4-0.9-0.6c-0.7-0.4-1.4-0.8-2.2-1.1
					c-1.5-0.7-3-1.2-4.6-1.7c-6-1.7-12.5-1.6-18.4,0.4c-5.3,1.7-10.2,4.9-13.9,9.1c-0.8,1-1.6,2-2.3,3c-0.4,0.5-0.7,1.1-1,1.6
					c-0.1,0.2-0.4,0.9-0.6,1c-0.2,0.1-1.3-0.4-1.6-0.5c-3.2-1-6.6-1.7-10-2c-10.8-0.8-21.8,2.4-30.4,9c-8.1,6.2-14,15.2-16.3,25.1
					c-1.4,6-1.4,12.3-1.1,18.4c0.2,5.2,1.3,10.4,3.3,15.2c3.9,9.5,11.1,17.4,20.1,22.2c10.1,5.4,22.3,6.7,33.3,3.5
					c3.2-0.9,6.2-2.2,9.1-3.8c0.4-0.2,0.6-0.5,0.9-0.3c0.2,0.1,0.4,0.6,0.5,0.8c0.4,0.5,0.7,1.1,1.1,1.6c0.9,1.3,1.8,2.5,2.9,3.6
					c3.7,4.2,8.2,7.7,13.2,10.3c10.8,5.5,23.7,6.2,35.1,2c2.9-1.1,5.6-2.4,8.2-4.1c1.2-0.7,2.3-1.5,3.4-2.4c0.6-0.5,1.3-1,1.9-1.6
					c0.2-0.2,0.4-0.4,0.6-0.5c0.2-0.2,0.4-0.4,0.6-0.6c0.2-0.4,0.4-0.4,0.6,0c0.6,0.3,1.1,1,1.5,1.4c0.5,0.5,1.1,0.9,1.6,1.3
					c1.3,1,2.7,2,4.1,2.8c2.6,1.6,5.3,2.9,8.1,3.9c11.4,4,24.3,3.1,35-2.5c5-2.6,9.5-6.2,13.2-10.6c0.8-1,1.6-2,2.4-3.1
					c0.2-0.3,0.4-0.6,0.7-1c0.3-0.4,0.2-0.5,0.6-0.5c0.3,0,0.8,0.4,1,0.5c0.5,0.3,1.1,0.5,1.7,0.8c3.1,1.3,6.3,2.3,9.6,2.9
					c11,2,22.6-0.3,32-6.4c8.6-5.6,15.1-14.1,18.2-23.9c1.6-5.2,2.1-10.4,2.1-15.9c0-1.3,0.2-2.7,0-4c-0.1-0.3,0,0.4,0,0.3
					C300.8,105.3,300.9,106,300.9,106.6z"/>
			</g>
		</g>
		<g>
			<g>
				<path d="M212.3,115.6c1.7,14.7,10.7,27.8,23.8,34.6c-0.2-0.1,0-2.9,0-3.2c0-0.8,0-1.5,0-2.3c0-0.1,0.1-0.9,0-1
					c-13.1-6.9-22.1-19.9-23.8-34.6C212.5,111.3,212,113.5,212.3,115.6L212.3,115.6z"/>
			</g>
		</g>
		<g>
			<g>
				<path d="M100.9,149.2c12.1-7.1,20.3-19.5,21.9-33.5c0.2-2.1-0.2-4.4,0-6.5c-1.6,14-9.8,26.4-21.9,33.5c-0.3,0.2,0,2.9,0,3.2
					c0,0.8,0,1.5,0,2.3C100.9,148.4,100.9,149.2,100.9,149.2L100.9,149.2z"/>
			</g>
		</g>
	</g>
	<g class="st1">
		<path d="M352.3,11.9c1,26.6,1.6,53.2,1.9,79.8c0.2,13.3,0.3,26.6,0.4,39.9l0.1,39.9l-0.1,39.9c-0.1,13.3-0.2,26.6-0.4,39.9
			c-0.4,26.6-0.9,53.2-2,79.8c-1-26.6-1.6-53.2-2-79.8c-0.2-13.3-0.3-26.6-0.4-39.9l-0.1-39.9l0.1-39.9c0.1-13.3,0.2-26.6,0.4-39.9
			C350.7,65.1,351.2,38.5,352.3,11.9z"/>
	</g>
	<g class="st1">
		<g>
			<path d="M435,158.4c-6.7,0-12.3-1.4-16.8-4.3c-4.5-2.9-7.8-6.9-10.1-11.9c-2.3-5.1-3.6-11-4-17.7l14.4-3.9
				c0.3,4.1,0.9,8.1,1.9,11.9s2.7,7,5,9.4c2.3,2.4,5.5,3.7,9.6,3.7c4.2,0,7.4-1.2,9.6-3.5c2.2-2.4,3.2-5.7,3.2-10.1
				c0-5.3-1.2-9.5-3.6-12.7c-2.4-3.2-5.4-6.5-9.1-9.7l-19.6-17.3c-3.8-3.4-6.7-7-8.5-11s-2.7-8.9-2.7-14.7c0-8.5,2.4-15.1,7.3-19.9
				c4.9-4.7,11.5-7.1,20-7.1c4.6,0,8.6,0.6,12.1,1.8s6.4,3,8.8,5.5c2.3,2.5,4.2,5.6,5.6,9.4c1.4,3.8,2.3,8.2,2.8,13.3l-13.8,3.7
				c-0.3-3.8-0.9-7.4-1.7-10.6c-0.9-3.2-2.4-5.8-4.5-7.8c-2.2-2-5.2-2.9-9.3-2.9s-7.2,1.1-9.4,3.2c-2.2,2.2-3.4,5.3-3.4,9.6
				c0,3.5,0.6,6.5,1.8,8.8c1.2,2.3,3.1,4.6,5.8,7L446.2,98c4.4,3.8,8.3,8.4,11.7,13.7c3.4,5.3,5,11.6,5,18.9
				c0,5.8-1.2,10.7-3.6,14.9c-2.4,4.2-5.7,7.4-9.8,9.6C445.3,157.3,440.5,158.4,435,158.4z"/>
			<path d="M474.7,157.1V40.6h15.4v42c2.8-2.7,5.9-5,9.3-6.9c3.5-1.9,7.3-2.9,11.5-2.9c3.3,0,5.8,0.9,7.6,2.6c1.8,1.7,3,3.9,3.7,6.5
				s1.1,5.2,1.1,7.9v67.3h-15.4V94.2c0-3-0.4-5.3-1.3-6.9s-2.6-2.4-5.3-2.4c-1.8,0-3.7,0.5-5.7,1.6c-2,1.1-3.8,2.4-5.5,3.9v66.7
				L474.7,157.1L474.7,157.1z"/>
			<path d="M561.3,158.3c-6.5,0-11.5-1.3-15.1-3.8s-6-6.3-7.4-11.2c-1.4-4.9-2.1-11-2.1-18.2v-19c0-7.4,0.7-13.5,2.2-18.4
				s4-8.6,7.5-11.1c3.6-2.5,8.6-3.7,14.9-3.7c7,0,12.2,1.4,15.5,4.3c3.3,2.9,5.5,7,6.5,12.4s1.6,11.9,1.6,19.5v6.8h-32.8v16.7
				c0,3.4,0.3,6.1,0.9,8.2c0.6,2.1,1.6,3.7,3,4.7c1.4,1,3.2,1.5,5.4,1.5c2.3,0,4-0.5,5.2-1.6s2-2.7,2.4-4.8c0.4-2.1,0.7-4.5,0.7-7.3
				v-5h15v3.2c0,8.3-1.8,14.9-5.3,19.7C575.9,155.9,569.8,158.3,561.3,158.3z M552.1,107.5h17.7V100c0-3.5-0.2-6.4-0.6-8.7
				c-0.4-2.4-1.2-4.1-2.4-5.3s-3.1-1.8-5.7-1.8c-2.5,0-4.4,0.6-5.7,1.7c-1.3,1.1-2.2,3.1-2.7,5.8s-0.7,6.5-0.7,11.3L552.1,107.5
				L552.1,107.5z"/>
			<path d="M621.8,158.3c-6.5,0-11.5-1.3-15.1-3.8s-6-6.3-7.4-11.2c-1.4-4.9-2.1-11-2.1-18.2v-19c0-7.4,0.7-13.5,2.2-18.4
				s4-8.6,7.5-11.1c3.6-2.5,8.6-3.7,14.9-3.7c7,0,12.2,1.4,15.5,4.3c3.3,2.9,5.5,7,6.5,12.4s1.6,11.9,1.6,19.5v6.8h-32.8v16.7
				c0,3.4,0.3,6.1,0.9,8.2c0.6,2.1,1.6,3.7,3,4.7c1.4,1,3.2,1.5,5.4,1.5c2.3,0,4-0.5,5.2-1.6s2-2.7,2.4-4.8c0.4-2.1,0.7-4.5,0.7-7.3
				v-5h15v3.2c0,8.3-1.8,14.9-5.3,19.7C636.4,155.9,630.4,158.3,621.8,158.3z M612.6,107.5h17.7V100c0-3.5-0.2-6.4-0.6-8.7
				c-0.4-2.4-1.2-4.1-2.4-5.3s-3.1-1.8-5.7-1.8c-2.5,0-4.4,0.6-5.7,1.7c-1.3,1.1-2.2,3.1-2.7,5.8s-0.7,6.5-0.7,11.3L612.6,107.5
				L612.6,107.5z"/>
			<path d="M659.4,184.4V74h15.4v6.6c1.8-2.1,4-3.9,6.6-5.5c2.6-1.5,5.7-2.3,9.2-2.3c4.3,0,7.7,1.1,10.3,3.4
				c2.5,2.2,4.4,5.1,5.7,8.5c1.2,3.4,2.1,6.9,2.4,10.4c0.4,3.5,0.6,6.5,0.6,9v20.1c0,5.9-0.6,11.4-1.7,16.6
				c-1.2,5.2-3.2,9.4-6.3,12.7c-3,3.2-7.3,4.8-12.7,4.8c-3,0-5.6-0.7-7.9-2.2s-4.4-3.2-6.2-5.1v33.5L659.4,184.4L659.4,184.4z
				 M685.8,146.2c2.7,0,4.6-1,5.8-3c1.2-2,1.9-4.6,2.2-8c0.3-3.4,0.4-7,0.4-11.1V104c0-3.5-0.2-6.6-0.6-9.6c-0.4-2.9-1.2-5.2-2.4-7
				c-1.2-1.7-3.2-2.6-5.9-2.6c-2,0-3.9,0.4-5.8,1.3c-1.8,0.9-3.4,1.9-4.8,3v53.2c1.4,1.1,3.1,1.9,4.9,2.7
				C681.5,145.8,683.5,146.2,685.8,146.2z"/>
		</g>
	</g>
	<g class="st1">
		<g>
			<path class="st4" d="M435.6,307.4c-8.2,0-14.6-1.7-19.2-5.2c-4.6-3.5-7.7-8.1-9.5-14c-1.8-5.9-2.7-12.4-2.7-19.6v-41.1
				c0-7.9,0.9-14.7,2.7-20.6c1.8-5.9,4.9-10.4,9.5-13.6s11-4.8,19.2-4.8c7.3,0,13.1,1.3,17.3,4c4.3,2.7,7.3,6.5,9.2,11.5
				c1.9,5,2.8,11,2.8,18v9.2h-15.4v-8.2c0-4.3-0.2-8.1-0.7-11.4s-1.6-5.9-3.5-7.7c-1.9-1.8-5.1-2.7-9.6-2.7c-4.6,0-8,1-10.1,3
				c-2.1,2-3.5,4.8-4.1,8.3s-0.9,7.8-0.9,12.6v46.2c0,5.9,0.5,10.5,1.4,13.9s2.5,5.8,4.8,7.3c2.2,1.4,5.2,2.2,8.9,2.2
				c4.4,0,7.6-1,9.5-3c1.9-2,3.1-4.7,3.6-8.1c0.5-3.5,0.7-7.5,0.7-12.1v-8.6H465v8.6c0,7.1-0.9,13.4-2.6,18.8
				c-1.7,5.4-4.7,9.6-8.9,12.7C449.2,305.9,443.3,307.4,435.6,307.4z"/>
			<path class="st4" d="M502,307.2c-6.1,0-11-1.2-14.5-3.7c-3.5-2.5-6.1-6-7.5-10.6c-1.5-4.6-2.2-10-2.2-16.2v-24.2
				c0-6.2,0.7-11.6,2.2-16.2s4-8.1,7.5-10.6c3.5-2.5,8.4-3.7,14.5-3.7s11,1.2,14.5,3.7s6,6,7.5,10.6s2.2,10,2.2,16.2v24.2
				c0,6.2-0.7,11.6-2.2,16.2s-4,8.1-7.5,10.6C513,306,508.2,307.2,502,307.2z M502,295.9c3,0,5.1-0.9,6.3-2.6s1.9-4,2.2-6.8
				s0.4-5.8,0.4-8.8v-26c0-3.2-0.1-6.1-0.4-8.9c-0.2-2.8-1-5.1-2.2-6.8c-1.2-1.8-3.3-2.7-6.3-2.7c-3,0-5.1,0.9-6.3,2.7
				c-1.2,1.8-2,4-2.2,6.8s-0.4,5.8-0.4,8.9v26c0,3.1,0.1,6,0.4,8.8c0.2,2.8,1,5.1,2.2,6.8C496.9,295,499.1,295.9,502,295.9z"/>
			<path class="st4" d="M559.6,307.2c-7,0-12.2-2.6-15.7-7.7c-3.5-5.1-5.2-13.8-5.2-26.1v-16.1c0-6.3,0.5-12.2,1.6-17.6
				c1-5.4,3-9.8,6-13c2.9-3.3,7.2-4.9,12.9-4.9c2.8,0,5.3,0.6,7.6,1.9s4.4,2.8,6.2,4.6v-38.7h15.4v116.5h-15.4v-5.3
				c-1.8,1.9-3.8,3.5-6,4.7C564.8,306.6,562.3,307.2,559.6,307.2z M563.4,295.2c1.4,0,3-0.3,4.6-0.8s3.3-1.3,4.9-2.4v-54.5
				c-1.3-1-2.8-1.8-4.5-2.5s-3.4-1.1-5.3-1.1c-3.5,0-6,1.7-7.2,5.1c-1.2,3.4-1.9,7.5-1.9,12.3v23.4c0,3.8,0.2,7.3,0.7,10.4
				c0.4,3.1,1.3,5.6,2.7,7.3C558.7,294.3,560.8,295.2,563.4,295.2z"/>
			<path class="st4" d="M626.9,307.2c-6.5,0-11.5-1.3-15.1-3.8s-6-6.3-7.4-11.2c-1.4-4.9-2.1-11-2.1-18.2v-19
				c0-7.4,0.7-13.5,2.2-18.4s4-8.6,7.5-11.1c3.6-2.5,8.6-3.7,14.9-3.7c7,0,12.2,1.4,15.5,4.3c3.3,2.9,5.5,7,6.5,12.4
				s1.6,11.9,1.6,19.5v6.8h-32.8v16.7c0,3.4,0.3,6.1,0.9,8.2c0.6,2.1,1.6,3.7,3,4.7c1.4,1,3.2,1.5,5.4,1.5c2.3,0,4-0.5,5.2-1.6
				s2-2.7,2.4-4.8c0.4-2.1,0.7-4.5,0.7-7.3v-5h15v3.2c0,8.3-1.8,14.9-5.3,19.7C641.4,304.9,635.4,307.2,626.9,307.2z M617.7,256.5
				h17.7V249c0-3.5-0.2-6.4-0.6-8.7c-0.4-2.4-1.2-4.1-2.4-5.3s-3.1-1.8-5.7-1.8c-2.5,0-4.4,0.6-5.7,1.7c-1.3,1.1-2.2,3.1-2.7,5.8
				s-0.7,6.5-0.7,11.3L617.7,256.5L617.7,256.5z"/>
		</g>
	</g>
</g>
</svg>
