<svg id="sheep" xmlns="http://www.w3.org/2000/svg" viewBox="0 0 728.35 673.97"><defs><style>.cls-1{fill:#fff;}</style></defs><path class="cls-1" d="M765.53,469.46l-13-14q-14.64-15.86-29.28-31.71l-31-33.62q-9.36-10.14-18.72-20.28c-.26-.28-.69-1-1-1.13,0,0-.83.26-.86.27-.85.28-1.7.55-2.56.81-1.87.55-3.75,1.07-5.64,1.52a105.89,105.89,0,0,1-10.72,2,109.28,109.28,0,0,1-44.36-3.06c-.86-.24-1.73-.6-2.59-.76-.58-.11-.44-.13-.85.26s-1.08,1-1.63,1.49a6.65,6.65,0,0,0,0,1.45c0,1.17,0,2.34,0,3.51s0,2.34,0,3.51a6.65,6.65,0,0,0,0,1.44h0c2.72.88,5.47,1.66,8.25,2.32.46.11.75.09,1,.44a3.06,3.06,0,0,1,.2.88c.15.67.29,1.33.43,2,.29,1.33.58,2.66.86,4q1.68,8.07,3.12,16.18,3,16.72,4.9,33.61,1,8.54,1.71,17.13.39,4.5.69,9l.15,2.18a7,7,0,0,0,.13,1.95,4.33,4.33,0,0,0,1.19,1.31l1.69,1.63a241.29,241.29,0,0,0,24.85,21.08c7.52,5.44,15.59,10.48,24.4,13.51a61.85,61.85,0,0,0,25,2.8c15.39-1.27,30-7.45,43-15.62a137.71,137.71,0,0,0,13.85-10,52.88,52.88,0,0,0,6.52-5.8l.29-.29s0,0,0,0l0,0a.07.07,0,0,1,0-.05,7.23,7.23,0,0,0,0-1.18,1.31,1.31,0,0,1,0-.22c0-1.17,0-2.34,0-3.51s0-2.34,0-3.51C765.57,470.64,765.7,469.64,765.53,469.46ZM748.82,483c-12.3,8.38-26.18,15-41,17.46a67.57,67.57,0,0,1-25.55-.51c-8.58-1.89-16.5-6.14-23.81-10.89a197.15,197.15,0,0,1-24.94-19.67q-3.11-2.82-6.13-5.72c-.9-.87-2.47-1.9-2.73-3.15a35.19,35.19,0,0,1-.31-4.6q-.6-8.49-1.45-17-1.69-16.89-4.4-33.67-1.34-8.21-2.9-16.35c-.46-2.44-1-4.87-1.46-7.29,1.74.38,3.48.72,5.24,1a110,110,0,0,0,22.71,1.49,108.46,108.46,0,0,0,21.74-3.05c1.75-.42,3.48-.9,5.21-1.41.86-.26,1.71-.53,2.56-.81a7.18,7.18,0,0,1,.87-.26c.11.05.22.26.31.34a28.66,28.66,0,0,1,2,2.14l3.45,3.76,10.88,11.78,30.31,32.82,30.25,32.78,10.5,11.38c.14.15.28.29.41.44A131.41,131.41,0,0,1,748.82,483Z" transform="translate(-37.27 -63.02)"/><path class="cls-1" d="M197.8,375.22c0-.26,0-.52,0-.79,0-1.17,0-2.34,0-3.5,0-.23.11-1.28,0-1.43-.37-.35-1-1.18-1.43-1.33-.2-.07-1,.36-1.26.44l-1.27.41c-.84.28-1.7.54-2.55.8-3.44,1-6.93,1.86-10.44,2.53a109.74,109.74,0,0,1-44-.6c-1.78-.39-3.54-.82-5.29-1.31-.39-.11-1.8-.75-2.19-.6-.12.05-.27.3-.36.4l-16.29,17.64-29.9,32.41L53,452.55q-5.19,5.61-10.37,11.25l-3.29,3.57a23.37,23.37,0,0,0-1.73,1.86,2.09,2.09,0,0,1-.2.22h0v0a6.54,6.54,0,0,0,0,1.44c0,1.17,0,2.34,0,3.51s0,2.34,0,3.51c0,.26-.13,1.29,0,1.45a112.38,112.38,0,0,0,16.71,13.51C66.4,501.31,80.34,508,95.18,510.38a67.5,67.5,0,0,0,25.38-.54c8.78-1.93,16.89-6.34,24.34-11.23a203.87,203.87,0,0,0,25.32-20.15c1-.9,2-1.82,2.94-2.74.53-.49.93-.73,1.06-1.4a17.43,17.43,0,0,0,.14-2.41q.28-4.61.64-9.2.65-8.56,1.56-17.1,1.78-16.73,4.54-33.32,1.35-8.12,3-16.19c.52-2.66,1.07-5.31,1.64-8,.28-1.32.57-2.63.86-3.94a5.11,5.11,0,0,1,.2-.88c.27-.65,0-.3.57-.55a14.75,14.75,0,0,1,2.3-.64q4.1-1.2,8.09-2.7l0,0h0A19.81,19.81,0,0,0,197.8,375.22Zm-15.29,19.23q-3,16.43-5,33-2,17-3.11,34.14l-.12,1.93a2.58,2.58,0,0,1-.93,2.09l-3.29,3.05q-3.1,2.85-6.3,5.59c-4.11,3.53-8.33,6.94-12.7,10.13-7.58,5.55-15.73,10.7-24.63,13.83a61.8,61.8,0,0,1-25.26,2.95C85.73,499.94,71,493.75,58,485.54A132.49,132.49,0,0,1,42.33,474l7.76-8.41,28.8-31.2,30.61-33.16q9.33-10.12,18.68-20.24c.29-.32.74-1,1.13-1.22s1.78.48,2.19.6q2.85.78,5.73,1.4a108.12,108.12,0,0,0,10.88,1.77,109.45,109.45,0,0,0,37-2.18C184.17,385.69,183.3,390.06,182.51,394.45Z" transform="translate(-37.27 -63.02)"/><path class="cls-1" d="M604.32,515.49c0-.34,0-4.3,0-4.88-.28-37.67-3.44-75.22-10.74-112.23-.43-2.16-.86-4.32-1.32-6.48-.25-1.19-.5-2.39-.76-3.58-.1-.48-.21-.95-.31-1.43s-.21-.95-.32-1.41l-.72-.17a18.82,18.82,0,0,0-3.6-.92c-.95-.26-1.9-.54-2.84-.83-2.35-.71-4.68-1.5-7-2.37q-3.08-1.15-6.09-2.51c-1.11-.5-2.21-1-3.3-1.55a7.51,7.51,0,0,0-1.3-.65c-.47-.52-.8-.46-1,.17-.11.17-.22.34-.32.51a111.92,111.92,0,0,1-6.74,9.17,107.47,107.47,0,0,1-150.25,16q-2.25-1.8-4.41-3.72a13,13,0,0,0-2.36-2.16c-.78-.37.08-.58-.93,0a9.61,9.61,0,0,0-1.41,1.31A107.6,107.6,0,0,1,240.43,383q-1.62-2.14-3.12-4.36c-.55-.83-1.11-1.66-1.64-2.49-.29-.45-1.09-2.37-1.58-2.54s-2.85,1.6-3.23,1.8c-.87.46-1.76.92-2.64,1.35q-3.33,1.67-6.76,3.1-3.11,1.29-6.29,2.39c-2.32.81-5,1.21-7.21,2.21-1.15.52-.45,0-.89.91a8.8,8.8,0,0,0-.46,2.12c-.21.94-.42,1.89-.62,2.84-.5,2.38-1,4.77-1.48,7.16q-2.74,13.85-4.78,27.8c-2.79,19.09-4.6,38.33-5.48,57.61-.84,18.09-1.26,36.35-.09,54.43a234.26,234.26,0,0,0,16.37,73.16,215.91,215.91,0,0,0,76.82,96.13A188.76,188.76,0,0,0,332,729.84c12.22,4.3,25.31,7.42,38.36,7,8.48-.25,18.3-2.07,24.16-8.82a18.34,18.34,0,0,0,4.3-10.25c.05-.5.08-1,.11-1.48,0-.06,0-.12,0-.18v.19c0,.54.06,1.1.12,1.64a19.19,19.19,0,0,0,1.44,5.59c3.36,7.75,11.66,11.32,19.51,12.63,11.82,1.95,24.2-.06,35.63-3.16a172.79,172.79,0,0,0,43.86-19.25,213.24,213.24,0,0,0,44.22-35.64A216.15,216.15,0,0,0,580.36,626a226.34,226.34,0,0,0,21.4-69.28,284,284,0,0,0,2.54-37.08c0-.7,0-1.76,0-2.64C604.32,516.51,604.32,516,604.32,515.49Zm-.24,4.67c-.07,2.36-.19,4.72-.34,7.08-.29,4.55-.7,9.1-1.23,13.62a240,240,0,0,1-4.3,25.12A223.62,223.62,0,0,1,583,610.63a216.36,216.36,0,0,1-48.77,67,203.65,203.65,0,0,1-58.92,38.64c-15.74,6.65-33.45,11.87-50.73,10.56-10.57-.82-22.75-5.09-25.19-16.74a27.32,27.32,0,0,1-.31-2.85,7.38,7.38,0,0,0-.05-1.06c0,.21,0,.43,0,.67,0-.51-.06-.44-.06,1,0,.52-.09,1-.1,1.41,0-5.72-.07-.66-.42,1a19.11,19.11,0,0,1-1.15,3.55,17.69,17.69,0,0,1-4.11,5.74c-4,3.78-9.45,5.7-14.78,6.65-16,2.86-33.14-1.4-48.12-6.87-21.27-7.76-41-19.79-58.3-34.31a216.56,216.56,0,0,1-51.09-62.43c-15.19-27.94-23.87-59-26.45-90.68-.37-4.64-.62-9.3-.74-13.95,0-1,0-2.07-.06-3.1,0-.49,0-1,0-1.47,0-3.55.1-7.11.21-10.66q.57-19.43,2.39-38.8,1.78-18.87,4.82-37.59,1.44-8.77,3.14-17.48c.56-2.87,1.15-5.73,1.75-8.6l.93-4.26c0-.24.11-.47.16-.7-.07-.66.23-1,.89-.9a15,15,0,0,1,2.91-.83,107.31,107.31,0,0,0,17.34-6.87c1.33-.66,2.64-1.34,3.94-2.07.25-.14,1.7-1.17,1.93-1.09s.79,1.29.94,1.53q1.91,3,4,5.94a107.46,107.46,0,0,0,151.21,23.59c2.06-1.53,4.06-3.13,6-4.8,1-.83,1.93-1.69,2.87-2.56.2-.19,1.15-1.32,1.4-1.32s1.57,1.48,1.87,1.75A108.23,108.23,0,0,0,429,425.47c38.23,18,84.73,11.41,116.51-16.37a109.75,109.75,0,0,0,10.54-10.59q2.36-2.72,4.52-5.58c.73-.95,1.43-1.92,2.12-2.9s1.43-2.74,2.36-3.48l.33-.51c.43.22.86.45,1.3.65.65.33,1.31.65,2,1,1.32.62,2.65,1.22,4,1.79,2.7,1.15,5.45,2.19,8.23,3.12s5.66,1.76,8.54,2.46l.72.18c.66-.08,1,.22.88.88a9.61,9.61,0,0,1,.47,2.14q.54,2.5,1.06,5a562.6,562.6,0,0,1,10.26,74.93c.83,12.22,1.38,24.46,1.4,36.69,0,.38,0,1.65,0,1.93C604.16,517.91,604.12,519,604.08,520.16Z" transform="translate(-37.27 -63.02)"/><path class="cls-1" d="M376,679.68l-22.31-22.31,18.93-18.92,3.38-3.38a6.55,6.55,0,0,0,0-1.44c0-1.17,0-2.34,0-3.51s0-2.34,0-3.51a6,6,0,0,1,0-1.45L352.16,649l-3.38,3.38a6.63,6.63,0,0,0,0,1.45c0,1.16,0,2.33,0,3.5s0,2.34,0,3.51c0,.26-.13,1.29,0,1.45l23.88,23.88,3.38,3.38a10.61,10.61,0,0,1,0-1.45c0-1.17,0-2.34,0-3.51s0-2.34,0-3.51C376.07,680.86,376.19,679.84,376,679.68Z" transform="translate(-37.27 -63.02)"/><path class="cls-1" d="M447.09,657.37c0-1.17,0-2.34,0-3.5,0-.26.13-1.29,0-1.45l-23.87-23.88-3.38-3.38a10.61,10.61,0,0,1,0,1.45c0,1.17,0,2.34,0,3.51s0,2.34,0,3.51c0,.25-.13,1.28,0,1.44l22.3,22.3L423.17,676.3l-3.38,3.38a6.54,6.54,0,0,0,0,1.44c0,1.17,0,2.34,0,3.51s0,2.34,0,3.51c0,.23.17,1.33,0,1.45l23.87-23.88,3.38-3.38a6.64,6.64,0,0,0,0-1.45C447.09,659.71,447.1,658.54,447.09,657.37Z" transform="translate(-37.27 -63.02)"/><path class="cls-1" d="M409.44,634.56c0-1.17,0-2.34,0-3.51a5.07,5.07,0,0,1,0-1.45l-6.57,17.17-10.5,27.4c-.81,2.12-1.61,4.23-2.43,6.34a6.44,6.44,0,0,0,0,1.44c0,1.17,0,2.34,0,3.51s0,2.34,0,3.51a5.93,5.93,0,0,1,0,1.45l6.57-17.17,10.5-27.4,2.43-6.34a6.43,6.43,0,0,0,0-1.44C409.44,636.9,409.45,635.73,409.44,634.56Z" transform="translate(-37.27 -63.02)"/><path class="cls-1" d="M234.33,167.42c0,1.17,0,2.34,0,3.51,0,.32.19,1.2,0,1.45A70.18,70.18,0,0,1,315,138.9a69.33,69.33,0,0,1,9.77,3.6q2.18,1,4.26,2.12c.78.42,1.54.85,2.3,1.3l.91.54c.46.29,1.09.9,1.43.64s.69-1.39.93-1.83c.34-.68.71-1.34,1.08-2,.74-1.32,1.52-2.6,2.34-3.87a70.63,70.63,0,0,1,18.16-18.95,70.08,70.08,0,0,1,97.2,15.67,71.55,71.55,0,0,1,4.72,7.34c.27.5.22.7.68.69s.92-.48,1.21-.62c.73-.37,1.47-.71,2.21-1.05,1.74-.79,3.51-1.52,5.31-2.16a69.87,69.87,0,0,1,21.36-4.06,70.66,70.66,0,0,1,61.16,32,74,74,0,0,1,4.24,7.52,6.07,6.07,0,0,1,0-1.44c0-1.17,0-2.34,0-3.51s0-2.34,0-3.51a4.12,4.12,0,0,0,0-1.45A70.06,70.06,0,0,0,467,130.59c-1.54.56-3.06,1.19-4.55,1.85-.83.38-1.65.76-2.46,1.16a5.19,5.19,0,0,1-1,.49c-.37.4-.61.35-.71-.15-.11-.2-.21-.41-.33-.61a70.1,70.1,0,0,0-120.2-3.49c-.74,1.15-1.44,2.31-2.1,3.5-.37.67-.74,1.33-1.08,2-.19.36-.67,1.89-1,2a16.13,16.13,0,0,1-2.24-1.39c-.68-.41-1.36-.8-2.06-1.17-1.62-.89-3.29-1.72-5-2.47a70.2,70.2,0,0,0-89.92,30.1,6,6,0,0,0,0,1.45C234.33,165.08,234.32,166.25,234.33,167.42Z" transform="translate(-37.27 -63.02)"/><path class="cls-1" d="M518,319.53c0-1.17,0-2.34,0-3.51a5.43,5.43,0,0,1,0-1.44c-9.68,13.38-23.92,23-39.65,27.83a86,86,0,0,1-53.82-1.19,78.81,78.81,0,0,1-22.91-12.79,8.91,8.91,0,0,0-1.17-1c-.6-.31-.1-.2-.58,0a3.7,3.7,0,0,0-.72.61c-.83.68-1.67,1.34-2.54,2q-2.6,1.95-5.35,3.68a79,79,0,0,1-11.75,6.05,85.81,85.81,0,0,1-53.68,3.71c-15.88-4.07-30.62-12.91-41-25.68q-1.86-2.29-3.52-4.72a8.24,8.24,0,0,1,0,1.45c0,1.17,0,2.34,0,3.51s0,2.34,0,3.5c0,.31-.14,1.18,0,1.43,9.2,13.47,23,23.34,38.38,28.58a86,86,0,0,0,53.47.45A79.25,79.25,0,0,0,396.51,340c.87-.64,1.71-1.31,2.54-2,.35-.28.8-.82,1.16-.72s1,.82,1.31,1.08c1.67,1.35,3.41,2.63,5.2,3.84a78.26,78.26,0,0,0,11.48,6.42A85.61,85.61,0,0,0,472,354c16.21-3.64,31.39-12.18,42.27-24.83,1.29-1.51,2.51-3.08,3.68-4.68a6,6,0,0,0,0-1.45C518,321.87,518,320.7,518,319.53Z" transform="translate(-37.27 -63.02)"/><path class="cls-1" d="M691,214.81a79.07,79.07,0,0,0-109-48.69,10.81,10.81,0,0,0,0,1.45c0,1.17,0,2.34,0,3.51s0,2.33,0,3.5c0,.16.09,1.43,0,1.45a79.13,79.13,0,0,1,105.35,39.12,78.46,78.46,0,0,1,6.89,27.9c0,.71-.1,1.42-.17,2.13a74.88,74.88,0,0,1-1.06,7.57,79,79,0,0,1-4,14.06,79.09,79.09,0,0,1-109.91,41.46h0a78.93,78.93,0,0,1-42.41-61.63,48.33,48.33,0,0,1,0,5,47.92,47.92,0,0,0,0,4.94,79.28,79.28,0,0,0,42.41,61.65v0h0a79.11,79.11,0,0,0,115.28-67.06C694.86,238.91,694.56,226.58,691,214.81Z" transform="translate(-37.27 -63.02)"/><path class="cls-1" d="M256.07,246.64A79.63,79.63,0,0,1,227.75,299a80.88,80.88,0,0,1-14.08,9.29h0a79.09,79.09,0,0,1-107-35,78.63,78.63,0,0,1-8-28.08c-.07-.72-.12-1.43-.16-2.14.14-2.35.36-4.71.71-7a78.64,78.64,0,0,1,3.53-14.28,79.07,79.07,0,0,1,108-45.69s0-1.66,0-1.45c0-1.17,0-2.34,0-3.5s0-2.34,0-3.51a6.88,6.88,0,0,0,0-1.46A79.14,79.14,0,0,0,104.2,208a82,82,0,0,0-5.9,30.37c-.08,6.94-.16,13.93.83,20.83a79.13,79.13,0,0,0,106,62.79,82.35,82.35,0,0,0,8.49-3.76h0a79,79,0,0,0,42.41-61.64,45.39,45.39,0,0,0,.05-4.95A48.56,48.56,0,0,1,256.07,246.64ZM98.46,242.25c0-.34,0-.67,0-1l0-1C98.33,238.5,98.58,236.11,98.46,242.25Z" transform="translate(-37.27 -63.02)"/><path class="cls-1" d="M724.12,237.36s0,0,0,.06v.07C724.09,237.42,724.1,237.37,724.12,237.36Z" transform="translate(-37.27 -63.02)"/><path class="cls-1" d="M724,242.82c0,.82-.1,1.76-.1,2.52C724,244.5,724,243.66,724,242.82Z" transform="translate(-37.27 -63.02)"/><path class="cls-1" d="M723.9,245.34c-1.3,23.33-11.74,46.51-27,63.85a109,109,0,0,1-119.15,30.23c-1.76-.65-3.52-1.34-5.24-2.09-2-.84-4.07-2.3-6.12-2.83a5.36,5.36,0,0,1-.94-.31c0-.11,0-.19-.06-.21A108.68,108.68,0,0,1,507,249.16a45.65,45.65,0,0,1-.05,5,45.55,45.55,0,0,0,.05,5A108.67,108.67,0,0,0,545.84,331a110.46,110.46,0,0,0,14.52,10.15q-3.09,4.07-6.56,7.81a107.69,107.69,0,0,1-116.88,27.81,105.85,105.85,0,0,1-19.67-9.8c-2.87-1.81-5.64-3.77-8.32-5.84q-2-1.55-3.93-3.2c-.78-.66-3.58-4.07-4.51-4.07s-3.42,3.13-4.13,3.74q-2.12,1.82-4.33,3.53a107.54,107.54,0,0,1-145.56-12.94q-3.18-3.51-6-7.29-.88-1.17-1.74-2.37a108.57,108.57,0,0,0,49.08-79.19,43.18,43.18,0,0,0,.05-5,45.47,45.47,0,0,1-.05-5,108.55,108.55,0,0,1-35.76,69,110.66,110.66,0,0,1-17.94,13,1,1,0,0,0,0,.37c-.41-.33-.37-.14-1.4.43-.79.45-1.59.88-2.39,1.3-1.62.85-3.26,1.65-4.9,2.43a108.64,108.64,0,0,1-56.69,9.51c-50.51-5-91.88-46.08-97.32-96.53q-.31-2.83-.46-5.68c0-.54,0-1.23,0-1.82v-.06c.18-3.54.53-7.08,1.06-10.59a107.37,107.37,0,0,1,4.29-18,109,109,0,0,1,78.41-71.75,109.86,109.86,0,0,1,41.55-1.61,106.91,106.91,0,0,1,12.5,2.67c1.84.52,3.67,1.07,5.5,1.69a12.94,12.94,0,0,0,2.16.75c.59-.26,1.53-2.64,1.89-3.23a77.49,77.49,0,0,1,92.13-32.1,76.17,76.17,0,0,1,9.91,4.39c1.46.77,3.11,2.17,4.67,2.68s1,.4,1.74-1.09c.42-.82.86-1.64,1.3-2.46a77.42,77.42,0,0,1,133.46-3.29c.49.8,1,1.6,1.43,2.41.58,1,.48,1.4,1.4,1.39,1.47,0,4.11-2,5.52-2.59a77.31,77.31,0,0,1,87.79,19.87,75.85,75.85,0,0,1,6.26,8q1.32,1.92,2.5,3.93c.89,1.5,1.56,3.65,2.69,4.92s0,.53,1.43.36a15.37,15.37,0,0,0,3.11-1.34c1.73-.72,3.5-1.39,5.27-2a111.79,111.79,0,0,1,12-3.5,108.93,108.93,0,0,1,125.66,66.16,102.93,102.93,0,0,1,7.5,35.08c0,.21,0,.43,0,.65,0-.1,0-.19,0-.29,0,.3,0,.6,0,.9,0,.68,0,3.32.05,3.45q0-1.71.06-3.42c0-.2,0-.87-.08-1.7,0-.48.06-.84.06-1,0-1.1,0-2.2,0-3.3-.07.57,0,2.82,0,3.32,0,0,0,.07,0,.11a16.85,16.85,0,0,1,.05-3.5,117.42,117.42,0,0,0-5.49-34.51,108.88,108.88,0,0,0-124.37-72.6A107.14,107.14,0,0,0,582,133.43c-1.79.58-3.58,1.2-5.35,1.86s-4.36,2.37-6.25,2.59l-1,.47c-.26-.57-.55-1.12-.83-1.68s-.57-1.1-.87-1.64c-.82-1.5-1.69-3-2.61-4.41a77.34,77.34,0,0,0-83.62-33.71,76.43,76.43,0,0,0-11.71,3.86c-1.43.61-3.53,2.09-5,2.34l-1,.51c-.3-.55-.61-1.1-.92-1.64-.46-.81-.94-1.61-1.43-2.41A77.37,77.37,0,0,0,337.52,89.3a80,80,0,0,0-6.18,8c-.86,1.28-1.67,2.59-2.45,3.92-.88,1.48-1.54,3.58-2.65,4.89l-.41.84c-.6-.39-1.21-.77-1.82-1.14-.77-.47-1.55-.92-2.33-1.35-1.73-1-3.5-1.86-5.29-2.7a77.42,77.42,0,0,0-96.12,26.51q-1.32,1.92-2.53,3.93c-.25.41-1,2.26-1.41,2.44s-3.15-1.08-3.8-1.29A108.24,108.24,0,0,0,188,128.61,108.9,108.9,0,0,0,73.6,212.2c-3,12.84-3.33,26.15-2.79,39.28a108.85,108.85,0,0,0,161.36,91c.92-.51,1.41-1.14,2.14-.66.47.3.95,1.54,1.26,2,.85,1.34,1.73,2.64,2.64,3.94a106.13,106.13,0,0,0,7,8.94,107.46,107.46,0,0,0,118.35,30.18,106.54,106.54,0,0,0,20.16-10c2.86-1.81,5.64-3.75,8.31-5.84,1.61-1.23,3.18-2.52,4.7-3.85l1.52-1.35,1.49-1.37q.74-1.4,1.47,0c1.35.78,2.6,2.37,3.78,3.38s2.6,2.16,3.93,3.2a107.51,107.51,0,0,0,148-15.71q3-3.6,5.78-7.48c.55-.77,1.08-1.56,1.61-2.35.64-1,.59-1.36,1.54-1.34.67,0,1.9,1,2.51,1.24,1.36.65,2.72,1.26,4.1,1.86a108.14,108.14,0,0,0,23.44,7A108.91,108.91,0,0,0,719,280.09a117.34,117.34,0,0,0,5.09-33.2A3.38,3.38,0,0,1,723.9,245.34Z" transform="translate(-37.27 -63.02)"/><polygon class="cls-1" points="686.83 183.86 686.83 183.87 686.83 183.87 686.83 183.86"/></svg>