<?xml version="1.0" encoding="utf-8"?>
<!-- Generator: Adobe Illustrator 25.3.0, SVG Export Plug-In . SVG Version: 6.00 Build 0)  -->
<svg version="1.1" xmlns="http://www.w3.org/2000/svg" xmlns:xlink="http://www.w3.org/1999/xlink" x="0px" y="0px"
	 viewBox="0 0 882 768" style="enable-background:new 0 0 882 768;" xml:space="preserve">
<style type="text/css">
	.st0{display:none;}
	.st1{display:inline;}
	.st2{stroke:#000000;stroke-width:0.5;stroke-miterlimit:10;}
</style>
<g id="Camada_8" class="st0">
	<g class="st1">
		<g>
			<g>
				<path d="M389.66,399.5c-2.08,2.1-4.49,3.93-6.93,5.59c-5.06,3.43-10.76,6.14-16.84,7.09c-3.48,0.55-7.06,0.49-10.5-0.31
					c-3.48-0.82-6.69-2.58-9.65-4.53c-3.67-2.41-7.07-5.24-10.3-8.2c-0.81-0.74-1.61-1.49-2.4-2.25c-1.06-1.02-0.94-2.24-1.04-3.63
					c-0.17-2.26-0.37-4.52-0.6-6.77c-0.52-5.05-1.2-10.09-2.06-15.1c-0.42-2.48-0.89-4.95-1.39-7.42c-0.12-0.59-0.25-1.18-0.37-1.77
					c-0.07-0.34-0.14-1.51-0.39-1.76c-0.25-0.25-1.55-0.38-1.9-0.48c-0.62-0.17-1.24-0.36-1.86-0.56c0,1.67,0,3.33,0,5
					c0.18-0.17,0.44-0.52,0.67-0.62c0.46-0.2,0.94,0.09,1.48,0.23c1.48,0.41,2.97,0.75,4.49,1c3.02,0.51,6.1,0.71,9.16,0.6
					c3.02-0.11,6.02-0.53,8.96-1.25c0.74-0.18,1.47-0.38,2.2-0.6c0.17-0.05,1.14-0.46,1.3-0.41c0.06,0.02,0.09,0.12,0.14,0.15
					c0.29,0.16,0.57,0.62,0.8,0.86c0.47,0.51,0.95,1.03,1.42,1.54c1.47,1.6,2.95,3.19,4.42,4.79c8.23,8.91,16.45,17.82,24.68,26.74
					c2.17,2.35,4.34,4.71,6.52,7.06c-0.24-0.26,0.02-2.11,0.02-2.5c0-0.59,0-1.18-0.01-1.77
					C389.68,400.1,389.75,399.59,389.66,399.5c-5.74-6.22-11.47-12.43-17.21-18.65c-6.77-7.34-13.55-14.68-20.32-22.01
					c-0.31-0.33-0.3-0.39-0.66-0.41c-0.66-0.05-1.72,0.53-2.39,0.72c-0.81,0.22-1.63,0.41-2.45,0.58c-1.67,0.35-3.35,0.59-5.04,0.75
					c-3.45,0.31-6.93,0.22-10.36-0.27c-1.67-0.24-3.33-0.58-4.97-1c-0.52-0.14-1.53-0.65-2.02-0.52c-0.25,0.07-0.6,0.56-0.79,0.73
					c-0.25,0.23-0.07,4.98,0,5c0.96,0.31,1.93,0.59,2.91,0.84c0.73,0.18,0.83,0.13,0.99,0.86c0.15,0.66,0.29,1.32,0.43,1.99
					c0.45,2.16,0.87,4.32,1.26,6.49c0.81,4.51,1.48,9.05,2.01,13.61c0.27,2.29,0.5,4.58,0.7,6.87c0.11,1.25,0.21,2.5,0.3,3.75
					c0.04,0.56,0.08,1.13,0.12,1.69c0.04,0.64,0.25,0.78,0.71,1.23c3.24,3.13,6.63,6.13,10.26,8.8c3.09,2.27,6.41,4.38,10.04,5.68
					c3.23,1.16,6.73,1.51,10.14,1.27c6.37-0.44,12.46-2.97,17.83-6.34c3.02-1.9,6.01-4.08,8.53-6.63c0.27-0.28,0.02-2.1,0.02-2.5
					c0-0.59,0-1.18-0.01-1.77C389.68,400.12,389.6,399.56,389.66,399.5z"/>
			</g>
		</g>
		<g>
			<g>
				<path d="M157.92,358.7c-1.02,0.38-2.04,0.73-3.08,1.04c-0.5,0.15-1.15,0.2-1.4,0.6c-0.28,0.44-0.32,1.46-0.43,1.98
					c-0.46,2.15-0.89,4.31-1.28,6.47c-0.82,4.5-1.5,9.03-2.05,13.57c-0.54,4.46-0.95,8.93-1.24,13.42c-0.04,0.63,0,1.24-0.27,1.81
					c-0.26,0.54-0.78,0.92-1.22,1.32c-0.92,0.84-1.85,1.68-2.79,2.49c-1.65,1.42-3.35,2.8-5.1,4.09c-3.1,2.28-6.44,4.41-10.08,5.72
					c-3.23,1.16-6.74,1.51-10.15,1.28c-6.37-0.44-12.46-2.97-17.83-6.34c-3.02-1.9-6.01-4.08-8.53-6.63c0,1.67,0,3.33,0,5
					c5.67-6.14,11.33-12.28,17-18.41c6.7-7.26,13.4-14.51,20.09-21.77c0.11-0.12,0.29-0.42,0.45-0.49c0.37-0.16,2.21,0.59,2.6,0.69
					c0.73,0.17,1.47,0.32,2.22,0.45c1.66,0.29,3.33,0.49,5.01,0.6c3.38,0.21,6.79,0.04,10.14-0.52c1.63-0.27,3.24-0.63,4.83-1.08
					c0.71-0.2,1.41-0.49,2.13-0.66c0.59-0.15,0.55-0.02,1,0.4c-0.22-0.21,0.02-2.15,0.02-2.5c0-0.59,0-1.18-0.01-1.77
					C157.93,359.31,158,358.78,157.92,358.7c-0.14-0.13-0.4-0.49-0.59-0.54c-0.42-0.11-1.72,0.57-2.12,0.68
					c-1.44,0.42-2.89,0.77-4.36,1.05c-2.87,0.54-5.79,0.79-8.7,0.76c-3.06-0.03-6.12-0.38-9.11-1.03c-0.59-0.13-1.17-0.27-1.75-0.42
					c-0.21-0.06-1.11-0.44-1.3-0.36c-0.06,0.02-0.08,0.12-0.14,0.15c-0.29,0.17-0.58,0.62-0.8,0.87c-0.48,0.52-0.95,1.03-1.43,1.55
					c-1.46,1.58-2.91,3.16-4.37,4.74c-8.13,8.8-16.25,17.61-24.38,26.42c-2.14,2.32-4.28,4.63-6.41,6.95
					c-0.28,0.3-0.02,2.08-0.02,2.5c0,0.59,0,1.18,0.01,1.77c0,0.13-0.07,0.65,0.02,0.73c2.08,2.1,4.49,3.93,6.93,5.59
					c5.06,3.43,10.76,6.14,16.84,7.09c3.48,0.55,7.06,0.49,10.5-0.31c3.49-0.82,6.72-2.6,9.7-4.55c3.69-2.43,7.1-5.27,10.35-8.25
					c0.4-0.37,0.84-0.72,1.21-1.12c0.38-0.41,0.36-0.56,0.39-1.14c0.08-1.34,0.17-2.67,0.27-4.01c0.18-2.38,0.4-4.77,0.65-7.14
					c0.54-5.04,1.24-10.06,2.11-15.05c0.43-2.47,0.9-4.94,1.42-7.39c0.12-0.59,0.25-1.18,0.38-1.77c0.05-0.24,0.09-0.64,0.19-0.88
					c0.21-0.47,0.08-0.34,0.55-0.56c1.24-0.56,2.7-0.82,3.98-1.29c0.15-0.06,0.02-2.27,0.02-2.5
					C157.94,360.98,157.79,358.75,157.92,358.7z"/>
			</g>
		</g>
	</g>
	<g class="st1">
		<g>
			<path d="M323.82,418.09c-0.02,13.39-3.04,26.99-8.7,39.12c-4.81,10.29-11.61,19.61-19.94,27.33
				c-7.02,6.51-15.12,11.95-23.94,15.69c-6.43,2.72-13.67,4.86-20.72,4.32c-4.29-0.33-9.25-2.05-10.28-6.76
				c-0.05-0.25-0.1-0.5-0.13-0.75c-0.05-0.43-0.06-1.6-0.05,0.09c0-0.02,0-1.24-0.02-1.24c-0.02,0-0.02,1.22-0.02,1.24
				c0.01-1.69,0.01-0.56-0.04-0.14c-0.03,0.28-0.08,0.57-0.14,0.85c-0.11,0.47-0.26,0.94-0.45,1.38c-0.39,0.89-0.97,1.69-1.68,2.36
				c-1.63,1.53-3.83,2.32-5.99,2.71c-6.5,1.18-13.47-0.54-19.56-2.75c-8.62-3.13-16.62-7.98-23.66-13.83
				c-8.46-7.03-15.59-15.65-20.89-25.29c-6.24-11.33-9.85-23.96-10.97-36.82c-0.16-1.89-0.28-3.78-0.34-5.68
				c-0.02-0.48-0.02-0.96-0.04-1.43c0-0.05-0.01-0.58,0-0.11c0,0.59,0.01-0.4,0.01-0.53c0.02-1.48,0.05-2.97,0.1-4.45
				c0.17-5.36,0.51-10.72,1.04-16.06c0.5-5.06,1.16-10.1,1.99-15.11c0.41-2.45,0.85-4.89,1.34-7.32c0.23-1.16,0.48-2.33,0.73-3.49
				c0.11-0.53,0.15-1.29,0.55-1.57c0.44-0.31,1.4-0.39,1.92-0.56c2.31-0.73,4.56-1.65,6.71-2.75c0.52-0.26,1.03-0.54,1.54-0.82
				c0.72-0.4,0.63-0.2,1.04,0.45c0.55,0.87,1.12,1.72,1.73,2.54c2.35,3.2,5.13,6.09,8.25,8.55c6.37,5.02,14.11,8.22,22.17,9.13
				c8.82,1,17.86-0.7,25.69-4.9c1.89-1.02,3.71-2.17,5.44-3.45c0.83-0.62,1.65-1.27,2.43-1.94c0.39-0.34,0.78-0.68,1.16-1.03
				c0.1-0.09,0.49-0.53,0.57-0.53c0.14-0.01,0.61,0.57,0.71,0.66c3.17,2.9,6.77,5.33,10.64,7.19c15.51,7.43,34.45,4.92,47.5-6.26
				c3.04-2.6,5.71-5.61,7.94-8.93c0.43-0.64,0.35-0.83,1.09-0.46c0.53,0.26,1.06,0.51,1.59,0.75c1.14,0.51,2.31,0.98,3.49,1.39
				c1.12,0.39,2.26,0.74,3.42,1.04c0.24,0.06,0.63,0.11,0.87,0.22c0.65,0.29,0.31,0.01,0.53,0.54c0.28,0.64,0.33,1.49,0.47,2.17
				c2.11,10.05,3.52,20.24,4.26,30.48c0.37,5.14,0.62,10.3,0.63,15.45c0,0.19,0,2.5,0.02,2.5c0.03,0,0.03-2.48,0.03-2.5
				c-0.02-15.99-1.22-31.92-4.27-47.64c-0.17-0.88-0.35-1.76-0.53-2.64c-0.19-0.9-0.26-1.98-0.61-2.83
				c-0.15-0.36-0.01-0.28-0.32-0.48c-0.14-0.1-0.49-0.12-0.66-0.16c-0.51-0.13-1.01-0.26-1.51-0.41c-0.93-0.27-1.85-0.57-2.75-0.89
				c-0.83-0.3-1.66-0.63-2.47-0.98c-0.41-0.17-0.81-0.35-1.21-0.54c-0.25-0.12-1.37-0.84-1.58-0.77c-0.35,0.12-0.99,1.48-1.22,1.81
				c-0.46,0.64-0.93,1.27-1.42,1.89c-3.9,4.89-8.83,8.93-14.4,11.77c-11.87,6.06-26.25,6.34-38.35,0.74
				c-3.02-1.4-5.88-3.14-8.5-5.18c-0.67-0.52-1.32-1.05-1.95-1.61c-0.29-0.26-0.58-0.52-0.87-0.78c-0.48-0.44-0.49-0.6-0.99-0.13
				c-1.24,1.15-2.54,2.23-3.89,3.23c-5.42,3.99-11.76,6.7-18.39,7.86c-12.84,2.24-26.26-1.42-36.15-9.91
				c-2.33-2-4.45-4.24-6.32-6.68c-0.44-0.57-0.87-1.16-1.28-1.76c-0.42-0.61-0.78-1.45-1.29-1.97c-0.43-0.44-0.08-0.23-0.57-0.09
				c-0.19,0.05-0.4,0.22-0.57,0.32c-0.38,0.21-0.77,0.41-1.16,0.61c-0.85,0.43-1.71,0.83-2.58,1.21c-1.76,0.76-3.57,1.4-5.41,1.92
				c-0.17,0.05-0.5,0.08-0.64,0.18c-0.29,0.21-0.17,0.13-0.31,0.49c-0.16,0.39-0.2,0.88-0.28,1.3c-0.2,0.94-0.4,1.89-0.59,2.83
				c-0.76,3.77-1.43,7.56-1.99,11.36c-1.17,7.84-1.93,15.74-2.31,23.66c-0.36,7.39-0.52,14.86-0.14,22.25
				c0.53,10.33,2.57,20.59,6.35,30.24c3.31,8.45,7.91,16.38,13.63,23.43c5.06,6.24,10.98,11.79,17.54,16.44
				c5.66,4.01,11.83,7.37,18.36,9.73c5.04,1.82,10.45,3.15,15.85,3.06c3.51-0.06,7.59-0.75,10.06-3.49c1.04-1.15,1.65-2.6,1.83-4.14
				c0.07-0.57,0.07-1.15,0.08-1.73c0.01-1.21-0.03,0.36-0.02,0.75c0.01,0.21,0.02,0.43,0.03,0.64c0.07,0.79,0.23,1.58,0.52,2.32
				c1.28,3.21,4.62,4.75,7.83,5.32c4.81,0.86,9.87,0.06,14.54-1.19c6.33-1.69,12.37-4.46,17.98-7.83
				c6.64-3.99,12.73-8.91,18.07-14.51c6.06-6.35,11.17-13.6,15.09-21.45c4.46-8.93,7.36-18.59,8.74-28.47
				c0.76-5.44,1.01-10.92,1.02-16.41c0-0.98,0.17-2.12-0.02-3.08c-0.05-0.25-0.02,0.26-0.02,0.25
				C323.8,417.1,323.82,417.6,323.82,418.09z"/>
		</g>
	</g>
	<g class="st1">
		<g>
			<g>
				<path d="M230.69,485.3c-3.71-3.71-7.42-7.42-11.13-11.13c0,1.67,0,3.33,0,5c3.71-3.71,7.42-7.42,11.13-11.13
					c0.05-0.05,0.02-0.77,0.02-0.73c0.01-0.59,0.01-1.18,0.01-1.77c0-0.59,0-1.18-0.01-1.77c0-0.11-0.08-0.67-0.02-0.73
					c-3.71,3.71-7.42,7.42-11.13,11.13c-0.05,0.05-0.02,0.77-0.02,0.73c-0.01,0.59-0.01,1.18-0.01,1.77c0,0.59,0,1.18,0.01,1.77
					c0,0.13-0.06,0.65,0.02,0.73c3.71,3.71,7.42,7.42,11.13,11.13c-0.03-0.03,0.02-0.8,0.02-0.73c0.01-0.59,0.01-1.18,0.01-1.77
					c0-0.59,0-1.18-0.01-1.77C230.7,485.9,230.77,485.39,230.69,485.3L230.69,485.3z"/>
			</g>
		</g>
		<g>
			<g>
				<path d="M248.55,490.3c3.71-3.71,7.42-7.42,11.13-11.13c0.05-0.05,0.02-0.77,0.02-0.73c0.01-0.59,0.01-1.18,0.01-1.77
					c0-0.59,0-1.18-0.01-1.77c0-0.13,0.07-0.65-0.02-0.73c-3.71-3.71-7.42-7.42-11.13-11.13c0.03,0.03-0.02,0.8-0.02,0.73
					c-0.01,0.59-0.01,1.18-0.01,1.77c0,0.59,0,1.18,0.01,1.77c0,0.13-0.07,0.65,0.02,0.73c3.71,3.71,7.42,7.42,11.13,11.13
					c0-1.67,0-3.33,0-5c-3.71,3.71-7.42,7.42-11.13,11.13c-0.05,0.05-0.02,0.77-0.02,0.73c-0.01,0.59-0.01,1.18-0.01,1.77
					c0,0.59,0,1.18,0.01,1.77C248.53,489.69,248.61,490.24,248.55,490.3L248.55,490.3z"/>
			</g>
		</g>
		<g>
			<g>
				<path d="M244.3,464.86c-2.32,6.06-4.64,12.13-6.97,18.19c-0.33,0.86-0.66,1.72-0.99,2.59c-0.25,0.64-0.02,1.81-0.02,2.5
					c0,0.59,0,1.18,0.01,1.77c0,0.19,0.08,0.56,0.02,0.73c2.32-6.06,4.64-12.13,6.97-18.19c0.33-0.86,0.66-1.72,0.99-2.59
					c0.25-0.64,0.02-1.81,0.02-2.5c0-0.59,0-1.18-0.01-1.77C244.32,465.41,244.24,465.03,244.3,464.86L244.3,464.86z"/>
			</g>
		</g>
	</g>
	<g class="st1">
		<g>
			<path d="M172.87,279.21c4.93-8.77,14.18-14.49,24.27-14.75c2.89-0.08,5.78,0.28,8.56,1.06c1.26,0.36,2.5,0.8,3.7,1.33
				c0.63,0.27,1.24,0.57,1.85,0.89c0.26,0.14,1.96,1.31,2.12,1.24c0.26-0.11,0.68-1.34,0.82-1.58c0.29-0.51,0.59-1.02,0.91-1.52
				c0.63-0.99,1.33-1.94,2.08-2.84c1.57-1.89,3.39-3.58,5.4-5.02c8.12-5.8,18.99-6.93,28.13-2.9c4.48,1.97,8.41,5.1,11.35,9
				c0.72,0.95,1.37,1.95,1.97,2.98c0.22,0.38,0.18,0.53,0.54,0.53c0.25,0,0.72-0.36,0.95-0.47c0.77-0.36,1.55-0.69,2.35-0.98
				c2.72-1,5.6-1.57,8.49-1.71c11.38-0.53,22.07,5.91,27.1,16.1c-0.05-0.1,0.02-0.71,0.02-0.73c0.01-0.59,0.01-1.18,0.01-1.77
				c0-0.59,0-1.18-0.01-1.77c0-0.19,0.06-0.57-0.02-0.73c-4.39-8.91-13.18-15.1-23.11-16.01c-2.86-0.26-5.75-0.1-8.56,0.49
				c-1.33,0.28-2.64,0.66-3.92,1.12c-0.66,0.24-1.32,0.51-1.97,0.8c-0.32,0.15-0.64,0.3-0.95,0.46c-0.65,0.32-0.56,0.27-0.91-0.34
				c-2.43-4.23-5.94-7.82-10.13-10.33c-8.57-5.15-19.54-5.39-28.33-0.62c-4.24,2.3-7.86,5.67-10.47,9.73c-0.32,0.5-0.62,1-0.91,1.52
				c-0.11,0.2-0.63,1.51-0.82,1.58c-0.16,0.05-1.56-0.94-1.76-1.04c-0.72-0.39-1.46-0.76-2.21-1.09c-2.55-1.12-5.27-1.86-8.04-2.2
				c-11.52-1.39-22.82,4.48-28.49,14.56c-0.28,0.5-0.03,1.92-0.03,2.5c0,0.59,0,1.18,0.01,1.77
				C172.86,278.63,172.94,279.08,172.87,279.21L172.87,279.21z"/>
		</g>
	</g>
	<g class="st1">
		<g>
			<path d="M191.98,340.68c8.16,11.85,24.13,16.17,37.58,11.82c3.44-1.11,6.71-2.79,9.59-4.97c0.34-0.26,0.69-0.63,1.05-0.83
				c0.32-0.17,0.12-0.21,0.44-0.12c0.13,0.04,0.34,0.28,0.44,0.37c0.7,0.57,1.42,1.1,2.17,1.6c1.52,1.02,3.13,1.91,4.8,2.66
				c6.82,3.06,14.66,3.76,21.94,2.09c7.38-1.69,14.12-5.87,18.6-12.01c0.29-0.4,0.02-2.01,0.02-2.5c0-0.59,0-1.18-0.01-1.77
				c0-0.14-0.09-0.64-0.02-0.73c-8.48,11.63-24.56,15.64-37.93,10.95c-3.4-1.19-6.61-2.94-9.43-5.18c-0.13-0.11-0.29-0.29-0.45-0.36
				c-0.45-0.22-0.02-0.31-0.59,0c-0.32,0.17-0.61,0.5-0.9,0.72c-0.72,0.55-1.46,1.07-2.22,1.55c-1.55,0.99-3.19,1.84-4.88,2.56
				c-6.89,2.89-14.73,3.42-21.97,1.59c-7.32-1.86-13.95-6.18-18.26-12.43c0.04,0.06-0.02,0.76-0.02,0.73
				c-0.01,0.59-0.01,1.18-0.01,1.77c0,0.59,0,1.18,0.01,1.77C191.97,340.11,191.89,340.56,191.98,340.68L191.98,340.68z"/>
		</g>
	</g>
	<g class="st1">
		<g>
			<g>
				<path d="M314.75,280.7c8.34-3.8,18.04-3.98,26.45-0.32c7.14,3.11,13.02,8.81,16.34,15.85c1.74,3.68,2.77,7.7,3.01,11.77
					c0.02,0.29,0.01,0.58,0.04,0.87c0.04,0.36,0.1-3.99-0.01-2.37c-0.04,0.55-0.06,1.09-0.11,1.64c-0.1,1.02-0.25,2.04-0.44,3.05
					c-0.38,1.97-0.95,3.91-1.7,5.78c-2.88,7.23-8.41,13.28-15.34,16.82c-9.2,4.7-20.26,4.6-29.45-0.06c0.14,0.07-0.02,2.26-0.02,2.5
					c0,0.27-0.2,2.38,0.02,2.5c8.68,4.41,19.06,4.76,27.96,0.78c7.46-3.34,13.5-9.53,16.64-17.07c1.6-3.83,2.4-7.92,2.48-12.06
					c0.09-4.66,0.1-9.31-1.13-13.84c-2.16-7.96-7.43-14.92-14.49-19.18c-9.13-5.52-20.57-6.06-30.25-1.65
					c-0.18,0.08-0.02,2.25-0.02,2.5C314.73,278.44,314.91,280.62,314.75,280.7L314.75,280.7z"/>
			</g>
		</g>
		<g>
			<g>
				<path d="M296.24,313.56c1.24,10.72,7.75,20.16,17.31,25.16c-0.14-0.07,0.02-2.26,0.02-2.5c0-0.28,0.21-2.38-0.02-2.5
					c-9.55-5-16.07-14.44-17.31-25.16C296.43,310.2,296.05,311.91,296.24,313.56L296.24,313.56z"/>
			</g>
		</g>
	</g>
	<g class="st1">
		<g>
			<g>
				<path d="M163.21,275.7c-8.75-3.99-18.99-3.97-27.65,0.23c-7.36,3.57-13.2,9.94-16.11,17.58c-1.52,3.99-2.1,8.13-2.12,12.38
					c-0.03,4.61,0.06,9.11,1.42,13.56c2.41,7.88,7.88,14.67,15.06,18.71c9.4,5.3,21.01,5.43,30.61,0.56c0.19-0.1,0.03-2.24,0.03-2.5
					c0-0.25-0.2-2.41-0.03-2.5c-8.28,4.2-18.11,4.74-26.74,1.29c-7.23-2.88-13.28-8.41-16.82-15.34c-1.81-3.54-2.95-7.41-3.35-11.36
					c-0.06-0.6-0.1-1.21-0.13-1.81c-0.05-1.04,0.22-2.13-0.01,2.37c0.01-0.23,0.02-0.46,0.03-0.7c0.06-1.12,0.18-2.23,0.36-3.33
					c0.32-1.99,0.83-3.96,1.52-5.85c2.66-7.32,8-13.54,14.82-17.29c8.94-4.92,19.85-5.22,29.12-0.99c-0.12-0.06,0.02-2.27,0.02-2.5
					C163.24,277.94,163.43,275.79,163.21,275.7L163.21,275.7z"/>
			</g>
		</g>
		<g>
			<g>
				<path d="M181.73,308.56c-1.24,10.72-7.75,20.16-17.31,25.16c-0.2,0.1-0.02,2.23-0.02,2.5c0,0.26,0.21,2.4,0.02,2.5
					c9.55-5,16.07-14.44,17.31-25.16C181.92,311.91,181.54,310.2,181.73,308.56L181.73,308.56z"/>
			</g>
		</g>
	</g>
	<g class="st1">
		<g>
			<g>
				<path d="M372.72,306.53c0-0.76-0.04,0.46-0.04,0.49c-0.02,0.36-0.04,0.71-0.07,1.06c-0.05,0.72-0.12,1.44-0.21,2.15
					c-0.16,1.32-0.39,2.64-0.67,3.94c-0.53,2.44-1.27,4.84-2.21,7.16c-1.88,4.66-4.56,8.98-7.89,12.75
					c-6.67,7.56-15.86,12.71-25.79,14.41c-5.94,1.01-12.08,0.82-17.94-0.59c-1.66-0.4-3.29-0.89-4.89-1.48
					c-0.72-0.26-1.44-0.55-2.14-0.85c-0.81-0.35-1.66-0.94-2.49-1.16c-0.81-0.21-0.17-0.24-0.62,0.12c-0.25,0.2-0.47,0.7-0.65,0.96
					c-0.37,0.53-0.74,1.05-1.13,1.57c-0.86,1.13-1.77,2.21-2.72,3.25c-7.68,8.33-18.48,13.45-29.79,14.07
					c-6.08,0.34-12.21-0.58-17.91-2.72c-2.81-1.05-5.5-2.4-8.03-4c-1.17-0.74-2.3-1.54-3.39-2.38c-0.55-0.42-1.08-0.86-1.61-1.31
					c-0.32-0.27-1.46-1.66-1.84-1.66c-0.33,0-1.4,1.28-1.69,1.53c-0.58,0.5-1.16,0.98-1.76,1.44c-1.2,0.93-2.45,1.8-3.75,2.6
					c-2.49,1.54-5.13,2.84-7.88,3.85c-5.77,2.14-11.98,3.02-18.12,2.62c-11.31-0.74-22.06-5.96-29.67-14.36
					c-0.86-0.96-1.69-1.95-2.46-2.98c-0.39-0.51-0.77-1.04-1.13-1.57c-0.37-0.54-0.78-1.55-1.27-1.95c-0.43-0.35-0.24-0.31-0.78,0
					c-0.32,0.18-0.65,0.36-0.98,0.53c-0.66,0.35-1.33,0.68-2,0.99c-1.49,0.69-3.03,1.3-4.59,1.82c-5.95,1.99-12.3,2.68-18.54,2.06
					c-20.61-2.04-37.5-18.81-39.72-39.4c-0.08-0.77-0.14-1.53-0.19-2.3c-0.02-0.31-0.02-0.62-0.04-0.93
					c0.24,3.2-0.01,1.96,0.03,1.08c0.07-1.44,0.22-2.88,0.43-4.3c0.37-2.49,0.96-4.95,1.75-7.35c1.58-4.78,3.99-9.29,7.09-13.27
					c6.2-7.97,15.08-13.71,24.92-16.02c5.54-1.3,11.33-1.52,16.96-0.66c1.72,0.26,3.42,0.63,5.1,1.09c0.75,0.21,1.5,0.44,2.24,0.69
					c0,0,0.81,0.34,0.88,0.31c0.24-0.1,0.62-1.08,0.77-1.32c1.41-2.27,3.09-4.35,5.02-6.2c8.57-8.22,21.41-10.96,32.58-6.91
					c1.39,0.5,2.74,1.1,4.05,1.79c0.6,0.32,1.26,0.89,1.9,1.1c0.61,0.2,0.4,0.16,0.71-0.45c0.17-0.34,0.35-0.67,0.53-1
					c1.34-2.41,3-4.65,4.92-6.64c3.69-3.81,8.32-6.68,13.39-8.24c10.84-3.34,22.94-0.48,31.13,7.36c1.92,1.84,3.61,3.92,5.02,6.18
					c0.2,0.32,0.4,0.65,0.59,0.98c0.24,0.41,0.19,0.57,0.57,0.56c0.6-0.01,1.68-0.82,2.25-1.06c1.55-0.65,3.15-1.18,4.78-1.58
					c5.91-1.43,12.2-1.13,17.94,0.89c5.03,1.77,9.57,4.82,13.11,8.8c0.92,1.04,1.78,2.13,2.56,3.28c0.36,0.52,0.7,1.06,1.02,1.6
					c0.36,0.61,0.63,1.49,1.1,2.01c0.47,0.52,0.02,0.22,0.59,0.15c0.38-0.04,0.91-0.4,1.26-0.55c0.71-0.29,1.43-0.57,2.15-0.83
					c1.61-0.57,3.25-1.05,4.91-1.43c10.91-2.5,22.6-0.74,32.27,4.89c8.58,5,15.37,12.87,19.02,22.11c0.92,2.33,1.64,4.73,2.15,7.18
					c0.25,1.19,0.45,2.38,0.6,3.59c0.08,0.61,0.14,1.22,0.19,1.83c0.04,0.46,0.07,0.93,0.09,1.39c0,0.03,0.04,1.26,0.04,0.49
					c0,0.5-0.01,1,0.01,1.49c0-0.1-0.01,0.55,0.02,0.25c0.11-1,0.02-2.08,0.02-3.08c-0.02-5.4-0.56-10.66-2.27-15.81
					c-1.62-4.9-4.11-9.5-7.3-13.54c-6.34-8.03-15.41-13.73-25.4-15.9c-5.92-1.29-12.11-1.35-18.05-0.19
					c-1.68,0.33-3.34,0.75-4.97,1.28c-0.73,0.23-1.46,0.49-2.18,0.76c-0.74,0.28-1.78,0.97-2.55,1.06
					c-0.14,0.06-0.28,0.13-0.42,0.19c-0.11-0.23-0.23-0.46-0.34-0.68c-0.12-0.23-0.24-0.45-0.36-0.67c-0.33-0.61-0.69-1.21-1.06-1.8
					c-0.78-1.23-1.64-2.4-2.58-3.5c-7.66-9.02-20.04-13.05-31.55-10.26c-1.63,0.4-3.23,0.92-4.78,1.58
					c-0.58,0.25-1.44,0.86-2.05,0.95c-0.13,0.07-0.27,0.14-0.4,0.21c-0.12-0.22-0.25-0.45-0.37-0.67c-0.19-0.33-0.39-0.66-0.59-0.98
					c-1.47-2.37-3.26-4.54-5.3-6.44c-4.13-3.85-9.27-6.56-14.78-7.77c-11.14-2.43-22.96,1.46-30.49,10.02
					c-0.91,1.04-1.75,2.13-2.52,3.28c-0.35,0.52-0.68,1.06-1,1.6c-0.36,0.61-0.63,1.46-1.08,2c-0.06,0.11-0.11,0.23-0.17,0.34
					c-0.25-0.16-0.49-0.31-0.74-0.46c-0.31-0.19-0.63-0.37-0.95-0.55c-0.71-0.39-1.43-0.76-2.16-1.1c-1.48-0.68-3.02-1.25-4.59-1.7
					c-6-1.7-12.48-1.57-18.4,0.36c-5.34,1.74-10.18,4.94-13.9,9.15c-0.84,0.95-1.62,1.95-2.34,3c-0.36,0.52-0.71,1.06-1.03,1.6
					c-0.1,0.17-0.41,0.92-0.57,0.99c-0.22,0.1-1.29-0.44-1.55-0.52c-3.25-1.03-6.63-1.69-10.03-1.95
					c-10.83-0.83-21.75,2.38-30.39,8.99c-8.12,6.21-13.96,15.18-16.29,25.13c-1.3,5.54-1.37,11.31-1.14,16.97
					c0.21,5.21,1.33,10.37,3.32,15.19c3.91,9.45,11.12,17.4,20.13,22.23c10.14,5.43,22.26,6.69,33.31,3.5
					c3.16-0.91,6.22-2.18,9.1-3.78c0.38-0.21,0.57-0.47,0.88-0.27c0.19,0.12,0.39,0.63,0.51,0.82c0.35,0.54,0.71,1.08,1.08,1.61
					c0.89,1.27,1.84,2.48,2.86,3.65c3.7,4.23,8.19,7.74,13.2,10.29c10.81,5.5,23.73,6.24,35.1,2.03c2.88-1.06,5.64-2.43,8.23-4.07
					c1.17-0.74,2.3-1.54,3.39-2.38c0.65-0.51,1.29-1.03,1.92-1.58c0.21-0.18,0.41-0.36,0.62-0.55c0.2-0.18,0.41-0.37,0.61-0.56
					c0.2-0.38,0.4-0.38,0.6,0c0.55,0.31,1.06,0.97,1.54,1.38c0.52,0.45,1.06,0.88,1.61,1.31c1.31,1.02,2.68,1.96,4.1,2.82
					c2.56,1.56,5.29,2.85,8.12,3.85c11.41,4.03,24.29,3.12,35-2.5c5.02-2.64,9.52-6.25,13.18-10.58c0.83-0.98,1.62-2,2.36-3.06
					c0.22-0.32,0.44-0.64,0.66-0.96c0.26-0.4,0.24-0.55,0.63-0.54c0.27,0.01,0.78,0.39,1.03,0.51c0.55,0.26,1.11,0.52,1.67,0.76
					c3.07,1.31,6.28,2.27,9.57,2.86c11.03,1.97,22.59-0.32,31.99-6.41c8.6-5.57,15.14-14.09,18.24-23.86c1.59-5,2.08-10.09,2.1-15.3
					c0-0.98,0.17-2.12-0.02-3.08c-0.05-0.25-0.02,0.26-0.02,0.25C372.7,305.53,372.72,306.04,372.72,306.53z"/>
			</g>
		</g>
		<g>
			<g>
				<path d="M284.15,314.59c1.67,14.73,10.68,27.77,23.82,34.62c-0.14-0.07,0.02-2.26,0.02-2.5c0-0.28,0.21-2.38-0.02-2.5
					c-13.13-6.85-22.14-19.89-23.82-34.62C284.33,311.23,283.96,312.94,284.15,314.59L284.15,314.59z"/>
			</g>
		</g>
		<g>
			<g>
				<path d="M172.74,348.18c12.12-7.08,20.29-19.54,21.92-33.48c0.19-1.65-0.19-3.36,0-5c-1.62,13.95-9.8,26.4-21.92,33.48
					c-0.21,0.12-0.02,2.22-0.02,2.5C172.72,345.95,172.94,348.06,172.74,348.18L172.74,348.18z"/>
			</g>
		</g>
	</g>
	<g class="st1">
		<path d="M424.12,211.57c1.03,26.61,1.58,53.21,1.94,79.82c0.23,13.3,0.28,26.61,0.42,39.91l0.14,39.91l-0.13,39.91
			c-0.14,13.3-0.18,26.61-0.42,39.91c-0.37,26.61-0.91,53.21-1.95,79.82c-1.04-26.61-1.58-53.21-1.95-79.82
			c-0.23-13.3-0.28-26.61-0.42-39.91l-0.13-39.91l0.14-39.91c0.14-13.3,0.19-26.61,0.42-39.91
			C422.54,264.78,423.08,238.18,424.12,211.57z"/>
	</g>
	<g class="st1">
		<g>
			<path d="M506.87,358.12c-6.71,0-12.3-1.44-16.75-4.31c-4.46-2.88-7.84-6.85-10.14-11.94c-2.3-5.08-3.65-10.98-4.03-17.69
				l14.38-3.88c0.29,4.12,0.93,8.1,1.94,11.94c1.01,3.84,2.66,6.97,4.96,9.42c2.3,2.44,5.51,3.67,9.64,3.67
				c4.22,0,7.41-1.17,9.56-3.52c2.16-2.35,3.24-5.73,3.24-10.14c0-5.27-1.2-9.51-3.6-12.73c-2.4-3.21-5.42-6.45-9.06-9.71
				l-19.56-17.26c-3.83-3.35-6.66-7.02-8.48-11c-1.82-3.98-2.73-8.89-2.73-14.74c0-8.53,2.44-15.15,7.33-19.85
				c4.89-4.7,11.55-7.05,19.99-7.05c4.6,0,8.65,0.6,12.15,1.8c3.5,1.2,6.42,3.04,8.77,5.54c2.35,2.49,4.22,5.63,5.61,9.42
				c1.39,3.79,2.32,8.22,2.8,13.3l-13.81,3.74c-0.29-3.83-0.86-7.36-1.73-10.57c-0.86-3.21-2.37-5.8-4.53-7.77
				c-2.16-1.96-5.25-2.95-9.28-2.95s-7.17,1.08-9.42,3.24c-2.25,2.16-3.38,5.35-3.38,9.56c0,3.55,0.6,6.47,1.8,8.77
				c1.2,2.3,3.14,4.65,5.83,7.05l19.7,17.26c4.41,3.84,8.29,8.41,11.65,13.73c3.36,5.32,5.03,11.63,5.03,18.91
				c0,5.75-1.2,10.71-3.59,14.88c-2.4,4.17-5.68,7.36-9.85,9.56C517.15,357.01,512.33,358.12,506.87,358.12z"/>
			<path d="M546.56,356.82V240.33h15.39v41.99c2.78-2.68,5.9-4.98,9.35-6.9c3.45-1.92,7.28-2.88,11.5-2.88
				c3.26,0,5.77,0.86,7.55,2.59c1.77,1.73,3.02,3.88,3.74,6.47c0.72,2.59,1.08,5.23,1.08,7.91v67.3h-15.39v-62.85
				c0-2.97-0.43-5.27-1.29-6.9c-0.86-1.63-2.64-2.44-5.32-2.44c-1.82,0-3.72,0.53-5.68,1.58c-1.97,1.06-3.81,2.35-5.54,3.88v66.73
				H546.56z"/>
			<path d="M633.14,357.97c-6.52,0-11.55-1.27-15.1-3.81c-3.55-2.54-6.02-6.28-7.41-11.22c-1.39-4.94-2.09-11-2.09-18.19v-18.98
				c0-7.38,0.72-13.52,2.16-18.41c1.44-4.89,3.96-8.58,7.55-11.07c3.59-2.49,8.56-3.74,14.88-3.74c7,0,12.15,1.44,15.46,4.31
				c3.31,2.88,5.49,7.02,6.54,12.44c1.05,5.42,1.58,11.91,1.58,19.49v6.76h-32.79v16.68c0,3.36,0.31,6.09,0.93,8.2
				c0.62,2.11,1.63,3.67,3.02,4.67c1.39,1.01,3.19,1.51,5.39,1.51c2.3,0,4.05-0.55,5.25-1.65c1.2-1.1,2.01-2.68,2.44-4.75
				c0.43-2.06,0.65-4.48,0.65-7.26v-5.03h14.96v3.16c0,8.34-1.78,14.91-5.32,19.7C647.71,355.58,641.67,357.97,633.14,357.97z
				 M623.93,307.21h17.69v-7.48c0-3.45-0.19-6.35-0.58-8.7c-0.38-2.35-1.17-4.12-2.37-5.32c-1.2-1.2-3.09-1.8-5.68-1.8
				c-2.49,0-4.39,0.58-5.68,1.73c-1.29,1.15-2.18,3.09-2.66,5.82c-0.48,2.73-0.72,6.5-0.72,11.29V307.21z"/>
			<path d="M693.68,357.97c-6.52,0-11.55-1.27-15.1-3.81c-3.55-2.54-6.02-6.28-7.41-11.22c-1.39-4.94-2.09-11-2.09-18.19v-18.98
				c0-7.38,0.72-13.52,2.16-18.41c1.44-4.89,3.96-8.58,7.55-11.07c3.59-2.49,8.56-3.74,14.88-3.74c7,0,12.15,1.44,15.46,4.31
				c3.31,2.88,5.49,7.02,6.54,12.44c1.05,5.42,1.58,11.91,1.58,19.49v6.76h-32.79v16.68c0,3.36,0.31,6.09,0.93,8.2
				c0.62,2.11,1.63,3.67,3.02,4.67c1.39,1.01,3.19,1.51,5.39,1.51c2.3,0,4.05-0.55,5.25-1.65c1.2-1.1,2.01-2.68,2.44-4.75
				c0.43-2.06,0.65-4.48,0.65-7.26v-5.03h14.96v3.16c0,8.34-1.78,14.91-5.32,19.7C708.25,355.58,702.21,357.97,693.68,357.97z
				 M684.48,307.21h17.69v-7.48c0-3.45-0.19-6.35-0.58-8.7c-0.38-2.35-1.17-4.12-2.37-5.32c-1.2-1.2-3.09-1.8-5.68-1.8
				c-2.49,0-4.39,0.58-5.68,1.73c-1.29,1.15-2.18,3.09-2.66,5.82c-0.48,2.73-0.72,6.5-0.72,11.29V307.21z"/>
			<path d="M731.21,384.15V273.7h15.39v6.62c1.82-2.11,4.03-3.93,6.62-5.46c2.59-1.53,5.66-2.3,9.2-2.3c4.31,0,7.74,1.13,10.28,3.38
				c2.54,2.25,4.43,5.08,5.68,8.48c1.25,3.4,2.06,6.86,2.44,10.35c0.38,3.5,0.58,6.5,0.58,8.99v20.13c0,5.85-0.58,11.39-1.73,16.61
				c-1.15,5.23-3.24,9.44-6.26,12.66c-3.02,3.21-7.26,4.82-12.73,4.82c-2.97,0-5.61-0.74-7.91-2.23s-4.36-3.19-6.18-5.11v33.51
				H731.21z M757.67,345.89c2.68,0,4.6-0.98,5.75-2.95c1.15-1.96,1.87-4.62,2.16-7.98c0.29-3.35,0.43-7.05,0.43-11.07v-20.13
				c0-3.45-0.19-6.64-0.58-9.56c-0.38-2.92-1.2-5.25-2.44-6.98c-1.25-1.73-3.21-2.59-5.9-2.59c-2.01,0-3.93,0.43-5.75,1.29
				c-1.82,0.86-3.4,1.87-4.75,3.02v53.21c1.44,1.06,3.07,1.94,4.89,2.66C753.31,345.53,755.37,345.89,757.67,345.89z"/>
		</g>
	</g>
	<g class="st1">
		<g>
			<path class="st2" d="M507.45,507.11c-8.25,0-14.65-1.73-19.2-5.18c-4.56-3.45-7.72-8.1-9.49-13.95
				c-1.78-5.85-2.66-12.37-2.66-19.56v-41.13c0-7.86,0.88-14.72,2.66-20.57c1.77-5.85,4.94-10.38,9.49-13.59
				c4.55-3.21,10.95-4.82,19.2-4.82c7.29,0,13.06,1.34,17.33,4.03c4.26,2.68,7.33,6.52,9.2,11.5c1.87,4.99,2.8,10.98,2.8,17.98v9.2
				H521.4v-8.2c0-4.31-0.22-8.13-0.65-11.43s-1.61-5.87-3.52-7.69c-1.92-1.82-5.13-2.73-9.63-2.73c-4.6,0-7.96,0.98-10.07,2.95
				c-2.11,1.97-3.48,4.75-4.1,8.34c-0.62,3.59-0.93,7.79-0.93,12.58v46.16c0,5.85,0.48,10.48,1.44,13.88
				c0.96,3.4,2.54,5.82,4.75,7.26c2.2,1.44,5.18,2.16,8.92,2.16c4.41,0,7.57-0.98,9.49-2.95c1.92-1.96,3.11-4.67,3.6-8.12
				c0.48-3.45,0.72-7.48,0.72-12.08v-8.63h15.39v8.63c0,7.1-0.86,13.35-2.59,18.77c-1.73,5.42-4.7,9.64-8.92,12.66
				C521.06,505.6,515.12,507.11,507.45,507.11z"/>
			<path class="st2" d="M573.89,506.96c-6.14,0-10.98-1.25-14.52-3.74c-3.55-2.49-6.07-6.04-7.55-10.64
				c-1.49-4.6-2.23-10.02-2.23-16.25v-24.16c0-6.23,0.74-11.65,2.23-16.25c1.49-4.6,4-8.15,7.55-10.64
				c3.55-2.49,8.39-3.74,14.52-3.74c6.13,0,10.95,1.25,14.45,3.74c3.5,2.49,5.99,6.04,7.48,10.64c1.49,4.6,2.23,10.02,2.23,16.25
				v24.16c0,6.23-0.74,11.65-2.23,16.25c-1.49,4.6-3.98,8.15-7.48,10.64C584.84,505.72,580.02,506.96,573.89,506.96z M573.89,495.6
				c2.97,0,5.06-0.86,6.26-2.59c1.2-1.73,1.92-4,2.16-6.83c0.24-2.83,0.36-5.77,0.36-8.84v-26.03c0-3.16-0.12-6.13-0.36-8.92
				c-0.24-2.78-0.96-5.06-2.16-6.83c-1.2-1.77-3.29-2.66-6.26-2.66c-2.97,0-5.08,0.89-6.33,2.66c-1.25,1.78-1.99,4.05-2.23,6.83
				c-0.24,2.78-0.36,5.75-0.36,8.92v26.03c0,3.07,0.12,6.02,0.36,8.84c0.24,2.83,0.98,5.11,2.23,6.83
				C568.8,494.74,570.91,495.6,573.89,495.6z"/>
			<path class="st2" d="M631.41,506.96c-7,0-12.22-2.56-15.68-7.69c-3.45-5.13-5.18-13.83-5.18-26.1v-16.11
				c0-6.33,0.53-12.2,1.58-17.62c1.05-5.42,3.04-9.75,5.97-13.02c2.92-3.26,7.21-4.89,12.87-4.89c2.78,0,5.32,0.62,7.62,1.87
				c2.3,1.25,4.36,2.78,6.18,4.6v-38.69h15.39v116.49h-15.39v-5.32c-1.82,1.92-3.81,3.48-5.97,4.67
				C636.66,506.36,634.19,506.96,631.41,506.96z M635.29,494.88c1.44,0,2.97-0.26,4.6-0.79c1.63-0.53,3.26-1.32,4.89-2.37v-54.5
				c-1.34-0.96-2.83-1.8-4.46-2.52c-1.63-0.72-3.4-1.08-5.32-1.08c-3.55,0-5.95,1.7-7.19,5.11c-1.25,3.4-1.87,7.5-1.87,12.3v23.44
				c0,3.84,0.22,7.31,0.65,10.43c0.43,3.12,1.32,5.56,2.66,7.33C630.59,494,632.61,494.88,635.29,494.88z"/>
			<path class="st2" d="M698.71,506.96c-6.52,0-11.55-1.27-15.1-3.81c-3.55-2.54-6.02-6.28-7.41-11.22
				c-1.39-4.94-2.09-11-2.09-18.19v-18.98c0-7.38,0.72-13.52,2.16-18.41c1.44-4.89,3.96-8.58,7.55-11.07
				c3.59-2.49,8.56-3.74,14.88-3.74c7,0,12.15,1.44,15.46,4.31c3.31,2.88,5.49,7.02,6.54,12.44c1.05,5.42,1.58,11.91,1.58,19.49
				v6.76h-32.79v16.68c0,3.36,0.31,6.09,0.93,8.2c0.62,2.11,1.63,3.67,3.02,4.67c1.39,1.01,3.19,1.51,5.39,1.51
				c2.3,0,4.05-0.55,5.25-1.65c1.2-1.1,2.01-2.68,2.44-4.75c0.43-2.06,0.65-4.48,0.65-7.26v-5.03h14.96v3.16
				c0,8.34-1.78,14.91-5.32,19.7C713.29,504.57,707.24,506.96,698.71,506.96z M689.51,456.2h17.69v-7.48c0-3.45-0.19-6.35-0.58-8.7
				c-0.38-2.35-1.17-4.12-2.37-5.32c-1.2-1.2-3.09-1.8-5.68-1.8c-2.49,0-4.39,0.58-5.68,1.73c-1.29,1.15-2.18,3.09-2.66,5.82
				c-0.48,2.73-0.72,6.5-0.72,11.29V456.2z"/>
		</g>
	</g>
</g>
<g id="oreba" class="st0">
	<g class="st1">
		<g>
			<g>
				<path d="M796.47,449.41c-2.72,2.76-5.73,5.25-8.76,7.64c-7.09,5.6-14.74,10.53-22.87,14.49c-10.09,4.92-21.05,8.34-32.31,8.97
					c-6.04,0.34-12.13-0.14-18.03-1.51c-5.77-1.35-11.24-3.85-16.39-6.74c-12.83-7.2-24.22-16.93-34.88-27
					c-1.43-1.35-2.84-2.71-4.24-4.08c0.01,0.09,0.01,0.18,0.02,0.27c-1.57-24.94-4.7-49.79-9.61-74.3
					c-0.66-3.29-1.35-6.58-2.07-9.86c-0.06-0.26-0.11-1.15-0.3-1.33c-0.21-0.21-1.1-0.26-1.37-0.32c-0.83-0.2-1.66-0.42-2.49-0.64
					c-1.72-0.46-3.43-0.98-5.13-1.53c0,5,0,10,0,15c0.53-0.49,1.06-0.98,1.58-1.46c0.1-0.09,0.28-0.34,0.42-0.39
					c0.22-0.07,1.06,0.33,1.29,0.4c0.58,0.17,1.16,0.34,1.74,0.5c3.51,0.98,7.07,1.79,10.66,2.4c7.21,1.24,14.55,1.73,21.87,1.47
					c7.2-0.25,14.37-1.23,21.37-2.93c1.61-0.39,3.2-0.82,4.79-1.28c0.86-0.25,1.72-0.52,2.57-0.79c0.2-0.06,1.1-0.49,1.28-0.42
					c0.11,0.05,0.21,0.24,0.3,0.32c0.68,0.58,1.26,1.37,1.87,2.02c1.13,1.22,2.26,2.45,3.39,3.67c3.49,3.78,6.98,7.56,10.46,11.33
					c9.92,10.74,19.83,21.49,29.75,32.23c9.82,10.64,19.65,21.28,29.47,31.93c3.47,3.76,6.94,7.52,10.41,11.28
					c1.09,1.18,2.18,2.36,3.27,3.54c0.53,0.58,1.08,1.42,1.73,1.87c0.08,0.06,0.15,0.16,0.22,0.24c-0.1-0.11,0.05-2.38,0.05-2.2
					c0.02-1.77,0.02-3.54,0.02-5.3c0-1.77,0-3.54-0.02-5.3C796.52,451.19,796.72,449.68,796.47,449.41
					c-4.23-4.59-8.47-9.17-12.7-13.76c-9.5-10.29-19-20.58-28.5-30.87c-10.16-11.01-20.33-22.02-30.49-33.03
					c-6.05-6.56-12.11-13.12-18.16-19.67c-0.25-0.27-0.66-0.95-1.01-1.09c-0.18-0.07-1.08,0.35-1.28,0.42
					c-0.85,0.27-1.71,0.54-2.57,0.79c-1.73,0.51-3.47,0.97-5.23,1.39c-3.55,0.85-7.14,1.51-10.76,1.98
					c-14.4,1.89-29.17,0.82-43.14-3.16c-0.43-0.12-0.87-0.25-1.3-0.38c-0.23-0.07-1.08-0.47-1.29-0.4
					c-0.13,0.04-0.32,0.29-0.42,0.39c-0.53,0.49-1.06,0.98-1.58,1.46c-0.16,0.15-0.05,2.32-0.05,2.2c-0.02,1.77-0.02,3.54-0.02,5.3
					c0,1.77,0,3.54,0.02,5.3c0,0.25-0.08,2.15,0.05,2.2c2.74,0.89,5.51,1.67,8.3,2.33c0.63,0.15,0.51,0.07,0.78,0.6
					c0.11,0.21,0.15,0.68,0.2,0.89c0.13,0.59,0.26,1.19,0.39,1.78c0.32,1.49,0.64,2.98,0.95,4.48c1.14,5.51,2.2,11.03,3.16,16.58
					c1.98,11.35,3.59,22.76,4.85,34.2c0.73,6.66,1.34,13.33,1.84,20.01c-0.01-0.09-0.01-0.18-0.02-0.27
					c0.16,2.11,0.3,4.23,0.44,6.35c0.04,0.56,0.03,0.67,0.39,1.09c0.3,0.35,0.68,0.66,1.01,0.98c0.79,0.76,1.58,1.52,2.38,2.28
					c2.88,2.73,5.81,5.41,8.8,8.02c5.74,5.01,11.69,9.8,17.99,14.09c5.55,3.78,11.39,7.24,17.63,9.74
					c5.66,2.27,11.66,3.5,17.74,3.86c11.8,0.71,23.57-1.93,34.42-6.45c9.15-3.82,17.74-8.95,25.67-14.88c2.67-2,5.27-4.09,7.78-6.3
					c0.8-0.7,1.59-1.42,2.37-2.15c0.38-0.35,0.9-0.72,1.2-1.15c0.04-0.06,0.11-0.11,0.16-0.16c0.17-0.17,0.05-2.29,0.05-2.2
					c0.02-1.77,0.02-3.54,0.02-5.3c0-1.77,0-3.54-0.02-5.3C796.52,451.26,796.29,449.6,796.47,449.41z"/>
			</g>
		</g>
		<g>
			<g>
				<path d="M242.04,351.8c-3.11,1.17-6.27,2.2-9.48,3.08c-0.25,0.07-0.96,0.13-1.13,0.3c-0.16,0.17-0.19,0.86-0.25,1.11
					c-0.18,0.81-0.36,1.63-0.54,2.44c-0.34,1.56-0.67,3.12-1,4.68c-1.33,6.4-2.54,12.82-3.63,19.26
					c-2.21,13.08-3.95,26.24-5.22,39.44c-0.74,7.67-1.32,15.35-1.75,23.04c0.01-0.09,0.01-0.18,0.02-0.27
					c-10.61,10.03-21.91,19.74-34.63,27.01c-5.15,2.94-10.62,5.51-16.4,6.95c-5.62,1.4-11.47,1.94-17.26,1.73
					c-20.13-0.71-39.19-10.2-54.94-22.25c-3.61-2.76-7.21-5.67-10.41-8.92c0,5,0,10,0,15c4.15-4.5,8.3-8.99,12.45-13.49
					c9.38-10.16,18.76-20.33,28.14-30.49c9.96-10.8,19.93-21.59,29.89-32.39c6.08-6.58,12.15-13.16,18.23-19.75
					c0.25-0.27,0.73-1.04,1.09-1.18c0.4-0.15,1.8,0.5,2.2,0.61c1.76,0.48,3.54,0.92,5.32,1.31c3.46,0.75,6.96,1.33,10.47,1.74
					c14.3,1.64,28.92,0.38,42.71-3.74c0.86-0.26,1.72-0.53,2.58-0.81c0.44-0.14,1.66-0.82,2.13-0.72c0.41,0.08,1.08,1,1.4,1.3
					c-0.09-0.08,0.06-2.43,0.05-2.2c0.02-1.77,0.02-3.54,0.02-5.3c0-1.77,0-3.54-0.02-5.3C242.09,353.62,242.28,352.02,242.04,351.8
					c-0.34-0.32-0.96-1.19-1.4-1.3c-0.45-0.12-1.68,0.57-2.13,0.72c-1,0.33-2,0.64-3.01,0.94c-3.34,0.98-6.73,1.8-10.16,2.45
					c-7.02,1.33-14.18,1.94-21.33,1.85c-7.3-0.1-14.59-0.93-21.71-2.52c-1.63-0.36-3.26-0.77-4.87-1.21c-0.36-0.1-1.9-0.74-2.21-0.6
					c-0.12,0.06-0.26,0.28-0.35,0.38c-5.3,5.75-10.61,11.49-15.91,17.24c-9.74,10.55-19.47,21.1-29.21,31.65
					c-9.7,10.5-19.39,21.01-29.09,31.51c-3.35,3.63-6.7,7.26-10.05,10.89c-1.09,1.18-2.18,2.36-3.27,3.54
					c-0.55,0.59-1.22,1.17-1.69,1.83c-0.06,0.09-0.15,0.16-0.22,0.24c-0.17,0.18-0.05,2.27-0.05,2.2c-0.02,1.77-0.02,3.54-0.02,5.3
					c0,1.77,0,3.54,0.02,5.3c0,0.4-0.2,1.94,0.05,2.2c2.79,2.83,5.9,5.39,9.02,7.84c7.27,5.71,15.12,10.72,23.47,14.7
					c10.33,4.92,21.55,8.25,33.04,8.63c6.1,0.2,12.31-0.4,18.2-2.03c6.08-1.68,11.8-4.54,17.19-7.78
					c6.36-3.81,12.33-8.24,18.07-12.93c3.08-2.52,6.09-5.12,9.05-7.78c1.47-1.33,2.94-2.67,4.38-4.03c0.32-0.3,0.8-0.62,1.04-0.98
					c0.24-0.36,0.21-0.7,0.24-1.17c0.07-1.14,0.13-2.28,0.21-3.42c0.13-2.03,0.27-4.05,0.42-6.08c-0.01,0.09-0.01,0.18-0.02,0.27
					c1.78-23.85,5.01-47.6,9.87-71.02c0.34-1.64,0.69-3.27,1.04-4.91c0.16-0.74,0.32-1.48,0.49-2.22c0.05-0.21,0.09-0.67,0.2-0.89
					c-0.05-0.41,0.14-0.6,0.55-0.56c0.15-0.04,0.3-0.08,0.45-0.12c3.28-0.89,6.52-1.95,9.71-3.14c0.1-0.04,0.06-2.49,0.05-2.2
					c0.02-1.77,0.02-3.54,0.02-5.3c0-1.77,0-3.54-0.02-5.3C242.09,353.76,241.97,351.82,242.04,351.8z"/>
			</g>
		</g>
	</g>
</g>
<g id="face" class="st0">
	<g class="st1">
		<g>
			<path d="M638.92,497c0-0.83-0.02-1.78,0.01-2.64c-0.02,0.54-0.02,1.09-0.03,1.63c-0.02,1.01-0.05,2.02-0.09,3.02
				c-0.08,2.31-0.19,4.62-0.34,6.92c-0.28,4.41-0.67,8.82-1.19,13.21c-0.97,8.24-2.36,16.43-4.2,24.52
				c-3.41,15-8.37,29.65-14.87,43.6c-11.47,24.63-27.73,46.94-47.62,65.43c-16.85,15.66-36.31,28.76-57.53,37.72
				c-15.37,6.49-32.67,11.6-49.54,10.3c-10.32-0.79-22.22-4.97-24.6-16.34c-0.13-0.6-0.22-1.21-0.29-1.82
				c-0.03-0.28-0.06-0.56-0.08-0.84c-0.01-0.16-0.01-0.32-0.03-0.48c-0.11-1.57,0-4.46,0.03,4.26c0-0.31,0-5.51-0.07-5.51
				c-0.07,0-0.07,5.31-0.07,5.51c0.03-8.71,0.14-5.82,0.03-4.26c-0.01,0.16-0.01,0.32-0.03,0.48c-0.02,0.28-0.05,0.56-0.08,0.84
				c-0.08,0.66-0.18,1.32-0.32,1.96c-0.26,1.19-0.63,2.35-1.12,3.47c-0.94,2.12-2.32,4.02-4,5.61c-3.92,3.69-9.23,5.56-14.44,6.49
				c-15.62,2.79-32.35-1.37-46.98-6.7c-20.77-7.58-40.02-19.33-56.93-33.5c-20.25-16.97-37.28-37.74-49.89-60.96
				c-14.83-27.28-23.31-57.65-25.82-88.55c-0.37-4.5-0.61-9.02-0.72-13.53c-0.02-0.75-0.03-1.95-0.05-2.42
				c0.04,0.99,0.05,2,0.01,2.99c-0.03,0.66,0-0.26,0-0.59c0.03-3.24,0.09-6.48,0.19-9.72c0.36-12.62,1.13-25.23,2.32-37.79
				c1.16-12.28,2.73-24.53,4.71-36.71c0.93-5.71,1.95-11.4,3.06-17.07c0.55-2.8,1.12-5.6,1.72-8.39c0.3-1.39,0.6-2.77,0.9-4.16
				c0.05-0.23,0.1-0.46,0.15-0.69c-0.07-0.64,0.22-0.93,0.87-0.88c0.77-0.43,1.98-0.55,2.84-0.81c5.83-1.74,11.5-3.99,16.94-6.71
				c1.29-0.65,2.58-1.32,3.84-2.02c0.24-0.13,1.66-1.14,1.89-1.07c0.24,0.08,0.77,1.26,0.92,1.49c1.24,1.98,2.54,3.91,3.9,5.8
				c5.67,7.85,12.42,14.91,20,20.93c15.34,12.17,34,19.88,53.47,22.04c21.12,2.35,42.75-1.77,61.47-11.85
				c4.43-2.38,8.68-5.09,12.72-8.08c2.01-1.49,3.97-3.05,5.87-4.68c0.95-0.81,1.88-1.65,2.8-2.49c0.2-0.18,1.13-1.28,1.37-1.28
				c0.36,0,1.54,1.44,1.83,1.71c7.74,7.05,16.53,12.93,26.01,17.39c37.33,17.57,82.73,11.14,113.76-15.99
				c3.66-3.2,7.11-6.66,10.29-10.34c1.53-1.77,3-3.58,4.41-5.45c0.71-0.93,1.4-1.88,2.07-2.83c0.68-0.96,1.39-2.67,2.3-3.4
				c0.11-0.16,0.21-0.33,0.32-0.49c0.42,0.22,0.84,0.43,1.27,0.64c0.64,0.32,1.28,0.63,1.92,0.93c1.29,0.61,2.59,1.2,3.9,1.75
				c2.64,1.12,5.32,2.14,8.04,3.04c2.74,0.91,5.53,1.72,8.34,2.4c0.24,0.06,0.47,0.11,0.71,0.17c0.65-0.07,0.94,0.21,0.86,0.86
				c0.28,0.55,0.33,1.48,0.46,2.09c0.35,1.63,0.7,3.26,1.04,4.89c5,24.09,8.29,48.54,10.01,73.08c0.43,6.14,0.76,12.29,1,18.44
				c0.12,3.11,0.22,6.23,0.28,9.34c0.03,1.43,0.06,2.86,0.07,4.3c0.01,0.54,0.01,1.08,0.02,1.62
				C638.94,498.6,638.93,497.3,638.92,497c0,0.56-0.01,7.5,0.08,7.5c0.09,0,0.08-7.43,0.08-7.5c-0.03-39.29-2.92-78.4-10.54-116.99
				c-0.42-2.11-0.85-4.22-1.29-6.33c-0.24-1.16-0.49-2.33-0.75-3.49c-0.1-0.46-0.2-0.93-0.3-1.39c-0.1-0.46-0.2-0.93-0.31-1.39
				c-0.24-0.06-0.47-0.11-0.71-0.17c-0.92-0.49-2.5-0.62-3.52-0.9c-0.93-0.25-1.86-0.52-2.78-0.8c-2.29-0.7-4.57-1.47-6.81-2.32
				c-2.01-0.76-3.99-1.58-5.94-2.46c-1.08-0.49-2.16-0.99-3.22-1.51c-0.27-0.13-0.93-0.57-1.27-0.63c-0.47-0.5-0.78-0.45-0.95,0.17
				c-0.11,0.16-0.21,0.33-0.32,0.49c-2.03,3.1-4.23,6.09-6.58,8.95c-9.41,11.48-21.24,20.93-34.52,27.54
				c-28.62,14.25-63.13,14.54-91.99,0.74c-7.18-3.43-13.97-7.69-20.2-12.66c-1.47-1.17-2.9-2.38-4.31-3.63
				c-0.63-0.56-1.55-1.76-2.31-2.11c-0.77-0.36,0.08-0.56-0.91,0c-0.5,0.28-0.94,0.88-1.38,1.28c-2.93,2.67-6.01,5.17-9.23,7.49
				c-13.09,9.46-28.33,15.82-44.27,18.44c-30.62,5.05-62.51-3.92-85.95-24.26c-5.56-4.82-10.61-10.22-15.04-16.09
				c-1.05-1.39-2.07-2.81-3.05-4.25c-0.55-0.8-1.08-1.61-1.61-2.43c-0.28-0.43-1.06-2.32-1.54-2.48c-0.42-0.14-2.79,1.56-3.16,1.76
				c-0.85,0.45-1.71,0.9-2.57,1.33c-2.17,1.08-4.37,2.09-6.6,3.02c-2.02,0.84-4.07,1.62-6.14,2.34c-2.26,0.78-4.86,1.18-7.03,2.16
				c-1.13,0.5-0.44,0.04-0.87,0.88c-0.28,0.55-0.33,1.47-0.46,2.07c-0.2,0.92-0.4,1.85-0.6,2.77c-0.5,2.32-0.98,4.65-1.44,6.98
				c-1.79,9.01-3.35,18.06-4.68,27.15c-2.73,18.68-4.49,37.49-5.36,56.35c-0.89,19.36-1.34,38.94-0.09,58.29
				c1.58,24.5,6.75,48.76,16,71.53c8.08,19.91,19.2,38.56,32.9,55.12c12.19,14.74,26.39,27.83,42.11,38.74
				c13.48,9.36,28.13,17.21,43.62,22.67c11.94,4.2,24.72,7.25,37.45,6.88c8.29-0.24,17.88-2.01,23.6-8.6
				c2.44-2.81,3.82-6.33,4.2-10.01c0.05-0.51,0.09-1.03,0.11-1.54c0.02-0.44,0.03-0.88,0.03-1.33c0.03-1.4-0.28-3.65-0.11-4.73
				c-0.38,2.37-0.07,5.3,0.2,7.75c0.2,1.87,0.66,3.72,1.41,5.45c3.28,7.57,11.39,11.05,19.06,12.33
				c11.53,1.91,23.63-0.05,34.79-3.09c15.09-4.1,29.47-10.73,42.83-18.8c15.87-9.58,30.41-21.37,43.18-34.8
				c14.35-15.09,26.44-32.29,35.75-50.91c10.62-21.22,17.55-44.18,20.89-67.65c2.03-14.25,2.52-28.56,2.54-42.94
				c0-0.56,0.01-7.5-0.08-7.5C638.91,489.5,638.93,496.93,638.92,497z"/>
		</g>
	</g>
</g>
<g id="tag" class="st0">
	<g class="st1">
		<g>
			<g>
				<path d="M416.14,659.68c-7.76-7.76-15.52-15.52-23.29-23.29c-1.11-1.11-2.22-2.22-3.33-3.33c0,1.67,0,3.33,0,5
					c7.76-7.76,15.52-15.52,23.29-23.29c1.11-1.11,2.22-2.22,3.33-3.33c0.27-0.27,0.03-2.1,0.03-2.5c0-0.59,0-1.18-0.01-1.77
					c0-0.11-0.08-0.67-0.02-0.73c-7.76,7.76-15.52,15.52-23.29,23.29c-1.11,1.11-2.22,2.22-3.33,3.33c-0.27,0.27-0.02,2.1-0.02,2.5
					c0,0.59,0,1.18,0.01,1.77c0,0.13-0.06,0.65,0.02,0.73c7.76,7.76,15.52,15.52,23.29,23.29c1.11,1.11,2.22,2.22,3.33,3.33
					c-0.23-0.23,0.03-2.13,0.03-2.5c0-0.59,0-1.18-0.01-1.77C416.15,660.29,416.22,659.77,416.14,659.68L416.14,659.68z"/>
			</g>
		</g>
		<g>
			<g>
				<path d="M458.86,664.68c7.76-7.76,15.52-15.52,23.29-23.29c1.11-1.11,2.22-2.22,3.33-3.33c0.27-0.27,0.02-2.1,0.02-2.5
					c0-0.59,0-1.18-0.01-1.77c0-0.13,0.06-0.65-0.02-0.73c-7.76-7.76-15.52-15.52-23.29-23.29c-1.11-1.11-2.22-2.22-3.33-3.33
					c0.23,0.23-0.03,2.13-0.03,2.5c0,0.59,0,1.18,0.01,1.77c0,0.13-0.07,0.65,0.02,0.73c7.76,7.76,15.52,15.52,23.29,23.29
					c1.11,1.11,2.22,2.22,3.33,3.33c0-1.67,0-3.33,0-5c-7.76,7.76-15.52,15.52-23.29,23.29c-1.11,1.11-2.22,2.22-3.33,3.33
					c-0.27,0.27-0.03,2.1-0.03,2.5c0,0.59,0,1.18,0.01,1.77C458.85,664.07,458.93,664.62,458.86,664.68L458.86,664.68z"/>
			</g>
		</g>
		<g>
			<g>
				<path d="M448.7,610.79c-2.15,5.61-4.3,11.22-6.45,16.83c-3.41,8.9-6.82,17.8-10.23,26.71c-0.79,2.06-1.58,4.12-2.36,6.18
					c-0.25,0.64-0.02,1.81-0.02,2.5c0,0.59,0,1.18,0.01,1.77c0,0.19,0.08,0.56,0.02,0.73c2.15-5.61,4.3-11.22,6.45-16.83
					c3.41-8.9,6.82-17.8,10.23-26.71c0.79-2.06,1.58-4.12,2.36-6.18c0.25-0.64,0.02-1.81,0.02-2.5c0-0.59,0-1.18-0.01-1.77
					C448.72,611.33,448.64,610.95,448.7,610.79L448.7,610.79z"/>
			</g>
		</g>
	</g>
</g>
<g id="cabelo_cópia" class="st0">
	<g class="st1">
		<g>
			<path d="M277.82,164.65c11.71-20.97,33.92-34.63,57.98-35.3c7-0.19,14.03,0.67,20.76,2.6c3.26,0.93,6.45,2.11,9.54,3.52
				c1.41,0.64,2.8,1.34,4.16,2.07c0.76,0.41,1.5,0.83,2.24,1.27c0.3,0.17,0.59,0.35,0.88,0.53c0.45,0.28,1.07,0.87,1.4,0.62
				c0.36-0.27,0.67-1.35,0.9-1.79c0.34-0.66,0.69-1.31,1.05-1.95c0.72-1.29,1.49-2.55,2.29-3.79c1.56-2.4,3.28-4.71,5.13-6.9
				c3.7-4.37,7.94-8.28,12.6-11.61c19.62-13.99,45.91-16.57,67.88-6.63c10.7,4.84,20.08,12.46,27.03,21.93
				c1.68,2.29,3.22,4.69,4.61,7.17c0.27,0.48,0.22,0.67,0.67,0.67c0.31-0.01,0.9-0.46,1.18-0.6c0.71-0.35,1.43-0.7,2.16-1.03
				c1.7-0.77,3.43-1.48,5.19-2.11c6.69-2.4,13.75-3.74,20.86-3.97c23.81-0.77,46.76,11.22,59.72,31.22c1.53,2.36,2.9,4.81,4.14,7.34
				c-0.14-0.29,0.05-2.11,0.05-2.2c0.02-1.77,0.02-3.54,0.02-5.3c0-1.77,0-3.54-0.02-5.3c-0.01-0.57,0.19-1.7-0.05-2.2
				c-10.33-21.11-31.14-35.84-54.56-38.24c-6.84-0.7-13.79-0.38-20.54,0.98c-3.44,0.69-6.83,1.64-10.12,2.85
				c-1.5,0.55-2.98,1.16-4.44,1.81c-0.81,0.36-1.61,0.74-2.4,1.14c-0.2,0.1-0.69,0.44-0.95,0.48c-0.36,0.39-0.59,0.34-0.68-0.15
				c-0.11-0.2-0.22-0.39-0.33-0.59c-5.71-10.16-14.03-18.8-23.97-24.9c-20.58-12.63-47.09-13.34-68.32-1.83
				c-10.16,5.51-18.85,13.6-25.09,23.33c-0.72,1.12-1.4,2.26-2.05,3.42c-0.36,0.64-0.71,1.3-1.05,1.95
				c-0.18,0.35-0.64,1.83-0.99,1.99c-0.16,0.07-1.98-1.23-2.19-1.35c-0.67-0.39-1.34-0.78-2.02-1.15c-1.59-0.87-3.21-1.67-4.86-2.41
				c-6.26-2.8-12.94-4.64-19.75-5.45c-24.4-2.9-48.97,7.79-63.46,27.64c-1.68,2.3-3.21,4.71-4.6,7.2c-0.19,0.35-0.05,2.03-0.05,2.2
				c-0.02,1.77-0.02,3.54-0.02,5.3c0,1.77,0,3.54,0.02,5.3C277.77,162.94,278.03,164.27,277.82,164.65L277.82,164.65z"/>
		</g>
	</g>
	<g class="st1">
		<g>
			<path d="M336.2,315.73c7.69,12.64,19.46,22.56,33.28,27.87c14.8,5.68,31.51,5.87,46.44,0.53c7.5-2.68,14.5-6.73,20.59-11.87
				c0.74-0.63,1.47-1.27,2.19-1.93c0.32-0.29,0.66-0.77,0.99-0.66c0.41,0.13,0.95,0.89,1.28,1.19c1.44,1.3,2.95,2.54,4.5,3.71
				c3.17,2.39,6.55,4.5,10.1,6.29c14.35,7.26,31.19,9.06,46.77,5.06c14.48-3.71,27.47-12.38,36.53-24.26
				c1.11-1.45,2.15-2.95,3.13-4.48c0.19-0.29,0.05-2.11,0.05-2.2c0.02-1.77,0.02-3.54,0.02-5.3c0-1.77,0-3.54-0.02-5.3
				c-0.01-0.45-0.27-1.87-0.05-2.2c-8.08,12.53-20.22,22.21-34.31,27.12c-15.07,5.25-31.91,4.89-46.74-1.02
				c-7.39-2.94-14.23-7.22-20.12-12.56c-0.31-0.28-0.64-0.7-1-0.92c-0.59-0.37-0.1-0.22-0.56,0c-0.17,0.08-0.46,0.43-0.57,0.53
				c-0.76,0.7-1.54,1.39-2.33,2.05c-1.49,1.25-3.03,2.44-4.63,3.56c-3.26,2.28-6.72,4.28-10.33,5.95
				c-14.52,6.71-31.33,7.94-46.68,3.48c-14.23-4.14-26.85-13.1-35.53-25.11c-1.06-1.47-2.06-2.98-3-4.53
				c0.13,0.22-0.05,2.22-0.05,2.2c-0.02,1.77-0.02,3.54-0.02,5.3c0,1.77,0,3.54,0.02,5.3C336.15,314.05,335.94,315.3,336.2,315.73
				L336.2,315.73z"/>
		</g>
	</g>
	<g class="st1">
		<g>
			<g>
				<path d="M617.26,168.21c19.51-8.98,42.35-9.5,62.18-1.23c16.61,6.92,30.53,19.71,38.85,35.66c4.81,9.22,7.68,19.37,8.49,29.74
					c-0.01-0.09-0.01-0.18-0.02-0.27c0.05,0.69,0.1,1.39,0.13,2.08c0.02,0.35,0.03,0.7,0.04,1.05c0.08,2.21,0.02,1.01,0.02-4.42
					c0-3.26,0.06-6.83-0.01-4.59c-0.01,0.35-0.03,0.7-0.04,1.05c-0.04,0.76-0.08,1.51-0.14,2.26c0.01-0.09,0.01-0.18,0.02-0.27
					c-1.47,18.74-9.82,36.52-23.34,49.59c-13.46,13.01-31.47,20.8-50.17,21.63c-13.46,0.6-26.91-2.34-38.9-8.48
					c0.04,0.02-0.06,2.52-0.05,2.2c-0.02,1.77-0.02,3.54-0.02,5.3c0,1.77,0,3.54,0.02,5.3c0,0.28-0.13,2.1,0.05,2.2
					c20.27,10.39,44.63,11.35,65.6,2.42c17.74-7.55,32.29-21.8,40.22-39.37c4.07-9.02,6.33-18.79,6.75-28.67
					c0.26-6.02,0.18-12.08,0.08-18.11c-0.04-2.66-0.17-5.32-0.44-7.97c-0.51-4.96-1.5-9.86-2.96-14.63
					c-5.64-18.42-18.28-34.34-34.89-44.07c-18.81-11.02-41.96-13.53-62.72-6.83c-2.99,0.96-5.91,2.12-8.76,3.43
					c-0.11,0.05-0.06,2.47-0.05,2.2c-0.02,1.77-0.02,3.54-0.02,5.3c0,1.77,0,3.54,0.02,5.3
					C617.21,166.26,617.34,168.17,617.26,168.21L617.26,168.21z"/>
			</g>
		</g>
		<g>
			<g>
				<path d="M572.96,246.83c2.22,19.82,12.16,38.25,27.51,50.99c4.29,3.56,8.96,6.63,13.9,9.2c-0.04-0.02,0.06-2.51,0.05-2.2
					c0.02-1.77,0.02-3.54,0.02-5.3c0-1.77,0-3.54-0.02-5.3c0-0.28,0.13-2.1-0.05-2.2c-17.51-9.09-31.18-24.75-37.64-43.41
					c-1.88-5.43-3.13-11.06-3.77-16.77c0.07,0.66-0.05,1.57-0.05,2.2c-0.02,1.77-0.02,3.54-0.02,5.3
					C572.89,241.81,572.69,244.37,572.96,246.83L572.96,246.83z"/>
			</g>
		</g>
	</g>
	<g class="st1">
		<g>
			<g>
				<path d="M254.71,153.21c-20.59-9.48-44.84-9.49-65.36,0.18c-17.4,8.19-31.38,22.91-38.66,40.7c-3.89,9.5-5.63,19.55-5.76,29.78
					c-0.11,8.37-0.38,16.89,0.78,25.21c0.69,4.92,1.85,9.78,3.47,14.48c6.3,18.24,19.54,33.73,36.54,42.86
					c19.37,10.4,42.85,11.99,63.47,4.31c2.87-1.07,5.68-2.32,8.41-3.72c0.12-0.06,0.06-2.45,0.05-2.2c0.02-1.77,0.02-3.54,0.02-5.3
					c0-1.77,0-3.54-0.02-5.3c0-0.25-0.15-2.14-0.05-2.2c-19.56,10.02-42.96,11.3-63.44,3.3c-17.13-6.68-31.56-19.56-40.19-35.79
					c-4.97-9.36-7.94-19.69-8.77-30.25c0.01,0.09,0.01,0.18,0.02,0.27c-0.05-0.7-0.1-1.39-0.13-2.09c-0.02-0.35-0.03-0.7-0.04-1.05
					c-0.08-2.2-0.02-1.17-0.02,4.42c0,2.99-0.06,6.85,0.01,4.6c0.01-0.35,0.03-0.7,0.04-1.05c0.04-0.75,0.08-1.51,0.14-2.26
					c-0.01,0.09-0.01,0.18-0.02,0.27c1.43-18.3,9.42-35.7,22.4-48.69c12.92-12.92,30.28-20.96,48.51-22.39
					c13.22-1.03,26.56,1.36,38.61,6.9c-0.03-0.01,0.06-2.52,0.05-2.2c0.02-1.77,0.02-3.54,0.02-5.3c0-1.77,0-3.54-0.02-5.3
					C254.76,155.14,254.88,153.29,254.71,153.21L254.71,153.21z"/>
			</g>
		</g>
		<g>
			<g>
				<path d="M299,231.83c-2.22,19.82-12.16,38.25-27.51,50.99c-4.29,3.56-8.96,6.63-13.9,9.2c-0.12,0.06-0.06,2.45-0.05,2.2
					c-0.02,1.77-0.02,3.54-0.02,5.3c0,1.77,0,3.54,0.02,5.3c0,0.25,0.16,2.14,0.05,2.2c17.51-9.09,31.18-24.75,37.64-43.41
					c1.88-5.43,3.13-11.06,3.77-16.77c0.27-2.45,0.08-5.04,0.08-7.5c0-1.77,0-3.54-0.02-5.3C299.04,233.33,298.92,232.53,299,231.83
					L299,231.83z"/>
			</g>
		</g>
	</g>
</g>
<g id="cabelo" class="st0">
	<g class="st1">
		<g>
			<g>
				<path d="M755.93,228.11c0.02-4-0.17,1.65-0.24,2.64c-0.13,1.71-0.3,3.42-0.51,5.12c-0.39,3.16-0.93,6.31-1.61,9.42
					c-1.27,5.84-3.04,11.58-5.28,17.12c-4.5,11.14-10.92,21.49-18.87,30.5c-15.95,18.08-37.93,30.41-61.71,34.47
					c-14.21,2.43-28.91,1.95-42.93-1.42c-3.97-0.95-7.88-2.14-11.71-3.54c-1.73-0.63-3.43-1.31-5.12-2.03
					c-1.93-0.83-3.97-2.25-5.97-2.77c-1.93-0.5-0.41-0.57-1.48,0.28c-0.59,0.47-1.12,1.68-1.55,2.31c-0.88,1.27-1.78,2.52-2.71,3.74
					c-2.05,2.7-4.22,5.3-6.52,7.78c-18.37,19.92-44.22,32.17-71.28,33.66c-14.54,0.8-29.2-1.39-42.84-6.51
					c-6.71-2.52-13.16-5.73-19.21-9.57c-2.79-1.77-5.5-3.67-8.12-5.7c-1.31-1.01-2.59-2.05-3.84-3.12c-0.76-0.65-3.5-3.98-4.41-3.98
					c-0.8,0-3.34,3.06-4.03,3.65c-1.38,1.18-2.78,2.33-4.22,3.45c-2.88,2.23-5.87,4.31-8.96,6.23c-5.96,3.69-12.27,6.78-18.84,9.22
					c-13.81,5.12-28.67,7.23-43.36,6.27c-27.07-1.76-52.78-14.25-70.97-34.36c-2.07-2.28-4.04-4.66-5.89-7.12
					c-0.93-1.23-1.84-2.48-2.71-3.75c-0.89-1.29-1.87-3.7-3.04-4.66c-1.02-0.84-0.57-0.73-1.87-0.01c-0.77,0.43-1.55,0.86-2.34,1.27
					c-1.57,0.83-3.17,1.62-4.79,2.37c-3.57,1.66-7.24,3.12-10.98,4.37c-14.23,4.75-29.44,6.41-44.36,4.93
					c-49.32-4.89-89.72-45-95.03-94.26c-0.2-1.81-0.34-3.63-0.44-5.45c-0.04-0.74-0.05-1.48-0.1-2.22c0,2.43,0,4.87,0,7.3
					c0.02-0.59,0.04-1.19,0.07-1.78c0.17-3.43,0.51-6.85,1.02-10.24c0.89-5.96,2.3-11.85,4.19-17.57
					c3.79-11.45,9.56-22.22,16.96-31.74c14.83-19.08,36.07-32.8,59.61-38.32c13.26-3.11,27.12-3.64,40.58-1.58
					c4.12,0.63,8.19,1.5,12.21,2.61c1.8,0.5,3.59,1.05,5.37,1.64c0,0,1.93,0.81,2.11,0.73c0.58-0.25,1.49-2.58,1.85-3.16
					c3.36-5.42,7.4-10.41,12.01-14.83C294.54,99.85,325.26,93.31,352,103c3.32,1.2,6.56,2.64,9.68,4.29
					c1.42,0.76,3.02,2.12,4.56,2.63c1.46,0.48,0.95,0.39,1.69-1.07c0.41-0.81,0.84-1.61,1.28-2.4c3.2-5.78,7.18-11.13,11.77-15.88
					c8.82-9.13,19.91-15.97,32.04-19.71c25.94-8,54.87-1.15,74.49,17.6c4.6,4.4,8.65,9.38,12.01,14.79c0.48,0.78,0.95,1.56,1.4,2.35
					c0.56,0.98,0.46,1.36,1.37,1.35c1.43-0.02,4.02-1.95,5.39-2.53c3.7-1.56,7.53-2.83,11.43-3.77c14.13-3.42,29.19-2.7,42.92,2.12
					c12.03,4.22,22.9,11.54,31.37,21.05c2.21,2.48,4.25,5.1,6.12,7.85c0.85,1.25,1.66,2.53,2.44,3.83c0.87,1.46,1.52,3.57,2.62,4.8
					c1.12,1.24,0.04,0.52,1.4,0.36c0.9-0.1,2.18-0.96,3.03-1.31c1.7-0.7,3.41-1.36,5.15-1.98c3.85-1.36,7.77-2.5,11.75-3.41
					c26.1-5.98,54.07-1.77,77.21,11.7c20.54,11.96,36.77,30.8,45.5,52.9c2.2,5.57,3.92,11.32,5.15,17.18
					c0.59,2.84,1.07,5.7,1.43,8.58c0.18,1.45,0.33,2.91,0.45,4.37c0.09,1.09,0.16,2.18,0.21,3.27c0.04,0.74,0.1,3.86,0.08,0.12
					c0.01,1.49-0.03,3,0.03,4.48c0.03,0.64-0.13,1.12,0.06,0.76c0.38-0.74,0.04-2.71,0.04-3.45c0.01-1.93,0.02-3.85,0.01-5.78
					c-0.06-13.31-1.23-26.24-5.44-38.95c-3.88-11.71-9.82-22.72-17.47-32.4c-15.16-19.2-36.86-32.84-60.77-38.04
					c-14.16-3.08-28.96-3.23-43.19-0.45c-4.02,0.79-8,1.8-11.9,3.05c-1.76,0.56-3.5,1.17-5.22,1.82c-1.78,0.67-4.26,2.31-6.1,2.53
					c-0.33,0.15-0.67,0.3-1,0.46c-0.27-0.55-0.54-1.09-0.82-1.63c-0.28-0.54-0.56-1.08-0.86-1.61c-0.8-1.46-1.65-2.9-2.54-4.31
					c-1.86-2.93-3.93-5.73-6.18-8.38c-18.33-21.59-47.94-31.23-75.48-24.54c-3.9,0.95-7.73,2.21-11.43,3.77
					c-1.4,0.59-3.44,2.05-4.91,2.28c-0.32,0.17-0.64,0.33-0.96,0.5c-0.29-0.54-0.59-1.07-0.89-1.6c-0.45-0.79-0.92-1.58-1.4-2.35
					c-3.52-5.67-7.79-10.86-12.67-15.41c-9.87-9.21-22.18-15.7-35.37-18.58c-26.64-5.81-54.94,3.49-72.93,23.96
					c-2.18,2.48-4.2,5.1-6.03,7.84c-0.84,1.25-1.64,2.53-2.4,3.82c-0.85,1.45-1.5,3.5-2.58,4.78c-0.13,0.27-0.26,0.54-0.4,0.82
					c-0.59-0.38-1.18-0.75-1.78-1.11c-0.75-0.45-1.51-0.89-2.27-1.32c-1.69-0.94-3.41-1.82-5.17-2.63
					c-3.55-1.63-7.22-2.99-10.98-4.06c-14.34-4.06-29.85-3.76-44.02,0.86c-12.79,4.17-24.35,11.81-33.25,21.89
					c-2.01,2.28-3.88,4.68-5.6,7.18c-0.86,1.25-1.69,2.53-2.47,3.84c-0.24,0.4-0.98,2.2-1.37,2.38c-0.53,0.23-3.08-1.05-3.71-1.25
					c-7.78-2.47-15.85-4.03-23.99-4.65c-25.92-1.98-52.04,5.7-72.7,21.5c-19.42,14.85-33.39,36.31-38.98,60.12
					c-3.33,14.2-3.33,29.08-2.74,43.58c0.51,12.48,3.18,24.85,7.96,36.4c9.35,22.61,26.59,41.62,48.16,53.18
					c24.26,12.99,53.25,16.01,79.69,8.37c7.57-2.19,14.89-5.23,21.78-9.03c0.9-0.5,1.37-1.11,2.09-0.65
					c0.46,0.3,0.93,1.51,1.23,1.97c0.83,1.3,1.69,2.59,2.58,3.85c2.13,3.03,4.41,5.94,6.85,8.73c8.84,10.12,19.61,18.52,31.58,24.61
					c25.85,13.15,56.77,14.92,83.98,4.86c6.88-2.55,13.49-5.82,19.69-9.75c2.79-1.77,5.5-3.67,8.12-5.7
					c1.57-1.21,3.1-2.47,4.59-3.77c0.5-0.43,0.99-0.87,1.48-1.31c0.49-0.44,0.98-0.89,1.46-1.34c0.48-0.91,0.96-0.91,1.44,0
					c1.32,0.75,2.54,2.32,3.69,3.3c1.26,1.07,2.54,2.11,3.84,3.12c3.14,2.43,6.42,4.69,9.81,6.75c6.14,3.73,12.65,6.82,19.42,9.21
					c27.29,9.65,58.11,7.47,83.75-5.99c12.01-6.3,22.78-14.95,31.53-25.32c1.99-2.35,3.87-4.79,5.65-7.31
					c0.53-0.76,1.06-1.52,1.57-2.29c0.63-0.95,0.58-1.33,1.5-1.3c0.66,0.02,1.86,0.93,2.45,1.21c1.32,0.63,2.66,1.23,4,1.81
					c7.34,3.14,15.03,5.43,22.89,6.84c26.38,4.72,54.05-0.77,76.54-15.33c20.58-13.32,36.22-33.72,43.64-57.08
					c3.92-12.34,4.99-24.85,5.04-37.73c0.01-2.97,0.44-6.3-0.05-9.23c-0.13-0.78-0.06,0.85-0.06,0.76
					C755.9,225.11,755.93,226.62,755.93,228.11z"/>
			</g>
		</g>
		<g>
			<g>
				<path d="M544.03,249.31c1.53,13.74,5.71,27.12,12.34,39.25c6.47,11.82,15.2,22.38,25.58,30.98c5.88,4.87,12.28,9.09,19.05,12.6
					c-0.04-0.02,0.06-2.51,0.05-2.2c0.02-1.77,0.02-3.54,0.02-5.3c0-1.77,0-3.54-0.02-5.3c0-0.28,0.13-2.1-0.05-2.2
					c-11.98-6.21-22.74-14.66-31.6-24.84c-8.89-10.24-15.8-22.16-20.23-34.98c-2.57-7.45-4.28-15.17-5.15-23
					c0.07,0.66-0.05,1.57-0.05,2.2c-0.02,1.77-0.02,3.54-0.02,5.3C543.96,244.28,543.76,246.85,544.03,249.31L544.03,249.31z"/>
			</g>
		</g>
		<g>
			<g>
				<path d="M277.51,329.66c11.05-6.43,20.93-14.8,29.04-24.69c8.16-9.95,14.5-21.38,18.59-33.59c2.37-7.08,3.97-14.41,4.82-21.83
					c0.28-2.45,0.08-5.04,0.07-7.5c0-1.77,0-3.54-0.02-5.3c-0.01-0.71-0.13-1.5-0.05-2.2c-1.48,13.04-5.35,25.74-11.45,37.37
					c-5.94,11.33-13.94,21.55-23.48,30.06c-5.39,4.81-11.27,9.05-17.51,12.68c-0.12,0.07-0.06,2.43-0.05,2.2
					c-0.02,1.77-0.02,3.54-0.02,5.3c0,1.77,0,3.54,0.02,5.3C277.46,327.73,277.63,329.59,277.51,329.66L277.51,329.66z"/>
			</g>
		</g>
	</g>
</g>
<g id="Camada_6">
	<g>
		<g>
			<g>
				<path d="M808.45,454.16c-5.05,5.13-10.93,9.59-16.86,13.63c-12.41,8.46-26.41,15.16-41.31,17.62
					c-8.54,1.41-17.32,1.35-25.78-0.52c-8.65-1.9-16.65-6.19-24.02-10.98c-8.97-5.83-17.26-12.67-25.16-19.85
					c-2.09-1.9-4.15-3.82-6.19-5.77c-0.91-0.88-2.49-1.92-2.75-3.18c-0.3-1.47-0.21-3.14-0.31-4.64c-0.41-5.71-0.9-11.42-1.47-17.12
					c-1.14-11.36-2.62-22.7-4.44-33.97c-0.89-5.52-1.86-11.02-2.92-16.5c-0.52-2.71-1.07-5.42-1.63-8.12
					c-0.28-1.34-0.57-2.69-0.86-4.03c-0.13-0.59-0.26-1.19-0.39-1.78c-0.05-0.21-0.09-0.68-0.2-0.89c0.05-0.42-0.14-0.6-0.57-0.55
					c-0.16-0.04-0.31-0.07-0.47-0.11c-2.81-0.67-5.59-1.46-8.34-2.35c0,3.33,0,6.67,0,10c0.55-0.5,1.09-1.01,1.64-1.51
					c0.43-0.39,0.28-0.37,0.86-0.26c1.02,0.19,2.05,0.61,3.05,0.89c3.53,0.98,7.11,1.78,10.72,2.39c7.56,1.29,15.25,1.79,22.91,1.5
					c7.39-0.28,14.76-1.31,21.94-3.07c1.76-0.43,3.51-0.91,5.25-1.43c0.87-0.26,1.73-0.53,2.59-0.81c0.05-0.02,0.82-0.29,0.87-0.27
					c0.12,0.05,0.23,0.27,0.32,0.35c0.72,0.63,1.34,1.45,1.99,2.16c1.16,1.26,2.33,2.52,3.49,3.79c3.66,3.96,7.31,7.92,10.97,11.88
					c10.19,11.04,20.38,22.08,30.58,33.12c10.17,11.02,20.35,22.04,30.52,33.07c3.53,3.83,7.07,7.66,10.6,11.48
					c1.13,1.23,2.27,2.46,3.4,3.68c0.56,0.6,1.11,1.4,1.76,1.91c0.09,0.07,0.16,0.17,0.23,0.25c-0.07-0.07,0.04-1.59,0.04-1.46
					c0.01-1.18,0.02-2.36,0.01-3.54c0-1.18,0-2.36-0.01-3.54C808.49,455.35,808.62,454.34,808.45,454.16
					c-4.36-4.72-8.72-9.45-13.08-14.17c-9.85-10.67-19.69-21.34-29.54-32c-10.43-11.3-20.87-22.61-31.3-33.91
					c-6.3-6.82-12.6-13.65-18.89-20.47c-0.26-0.28-0.69-0.98-1.05-1.14c-0.02-0.01-0.83,0.27-0.86,0.28
					c-0.86,0.28-1.72,0.55-2.59,0.81c-1.88,0.56-3.78,1.08-5.69,1.54c-3.57,0.86-7.18,1.54-10.81,2.03
					c-14.92,2.04-30.26,0.99-44.76-3.09c-0.86-0.24-1.74-0.61-2.61-0.77c-0.59-0.11-0.44-0.13-0.86,0.26
					c-0.55,0.5-1.09,1.01-1.64,1.51c-0.11,0.1-0.04,1.55-0.04,1.46c-0.01,1.18-0.02,2.36-0.01,3.54c0,1.18,0,2.36,0.01,3.54
					c0,0.17-0.06,1.43,0.04,1.46c2.75,0.89,5.53,1.68,8.34,2.35c0.47,0.11,0.76,0.09,0.99,0.44c0.14,0.22,0.14,0.62,0.2,0.89
					c0.15,0.67,0.29,1.34,0.44,2c0.29,1.34,0.58,2.68,0.86,4.03c1.13,5.43,2.18,10.87,3.15,16.33c1.99,11.24,3.63,22.55,4.94,33.9
					c0.66,5.75,1.24,11.52,1.73,17.29c0.26,3.02,0.49,6.04,0.7,9.06c0.05,0.73,0.1,1.47,0.15,2.2c0.04,0.58-0.09,1.42,0.13,1.96
					c0.2,0.52,0.78,0.93,1.2,1.33c0.56,0.55,1.13,1.09,1.7,1.64c7.92,7.57,16.2,14.83,25.08,21.27
					c7.58,5.49,15.72,10.57,24.61,13.63c8.05,2.77,16.8,3.51,25.25,2.82c15.52-1.28,30.3-7.51,43.36-15.76
					c4.86-3.07,9.53-6.45,13.97-10.11c2.2-1.82,4.71-3.67,6.58-5.85c0.09-0.1,0.2-0.19,0.29-0.29c0.11-0.11,0.04-1.53,0.04-1.46
					c0.01-1.18,0.02-2.36,0.01-3.54c0-1.18,0-2.36-0.01-3.54C808.49,455.39,808.33,454.28,808.45,454.16z"/>
			</g>
		</g>
		<g>
			<g>
				<path d="M235.61,353.31c-2.69,1.01-5.41,1.92-8.17,2.72c-0.69,0.2-1.39,0.4-2.09,0.58c-0.08,0.02-0.16,0.04-0.23,0.06
					c-0.42-0.04-0.61,0.15-0.57,0.56c-0.11,0.21-0.15,0.68-0.2,0.88c-0.29,1.33-0.58,2.66-0.87,3.98
					c-1.17,5.45-2.25,10.91-3.24,16.39c-2.01,11.05-3.69,22.17-5.04,33.32c-1.38,11.45-2.42,22.93-3.14,34.44
					c-0.04,0.65-0.08,1.3-0.12,1.95c-0.06,0.94-0.21,1.42-0.94,2.11c-1.1,1.03-2.21,2.06-3.32,3.08c-2.09,1.91-4.21,3.79-6.36,5.64
					c-4.14,3.56-8.4,7-12.81,10.22c-7.65,5.59-15.87,10.79-24.85,13.95c-8.11,2.85-16.94,3.65-25.48,2.97
					c-15.58-1.25-30.43-7.49-43.54-15.77c-7.35-4.64-14.25-9.98-20.56-15.96c-0.1-0.09-0.2-0.19-0.29-0.29c0,3.33,0,6.67,0,10
					c4.28-4.64,8.57-9.28,12.85-13.92c9.69-10.49,19.37-20.99,29.06-31.48c10.29-11.15,20.59-22.31,30.88-33.46
					c6.28-6.81,12.57-13.61,18.85-20.42c0.29-0.32,0.74-1.05,1.14-1.23c0.38-0.17,1.79,0.49,2.21,0.61c1.91,0.52,3.84,1,5.78,1.41
					c3.62,0.78,7.29,1.38,10.97,1.79c14.65,1.63,29.61,0.32,43.73-3.9c0.79-0.24,1.57-0.48,2.36-0.73c0.43-0.14,0.85-0.28,1.28-0.42
					c0.21-0.07,1.07-0.5,1.27-0.44c0.48,0.16,1.07,0.99,1.45,1.34c-0.06-0.05,0.04-1.62,0.04-1.46c0.01-1.18,0.02-2.36,0.01-3.54
					c0-1.18,0-2.36-0.01-3.54C235.64,354.52,235.77,353.46,235.61,353.31c-0.38-0.35-0.97-1.19-1.45-1.34
					c-0.2-0.07-1.05,0.36-1.27,0.44c-0.42,0.14-0.85,0.28-1.28,0.42c-0.85,0.28-1.71,0.54-2.57,0.8c-3.47,1.03-6.99,1.88-10.54,2.56
					c-7.29,1.39-14.72,2.04-22.15,1.94c-7.48-0.1-14.94-0.95-22.25-2.55c-1.79-0.39-3.57-0.83-5.33-1.32
					c-0.4-0.11-1.82-0.76-2.21-0.6c-0.12,0.05-0.28,0.3-0.37,0.4c-5.48,5.93-10.95,11.87-16.43,17.8
					c-10.06,10.9-20.11,21.79-30.17,32.69c-10.02,10.85-20.03,21.7-30.05,32.55c-3.49,3.78-6.98,7.57-10.47,11.35
					c-1.11,1.2-2.21,2.4-3.32,3.6c-0.56,0.61-1.25,1.21-1.74,1.88c-0.06,0.09-0.15,0.16-0.22,0.24c-0.11,0.12-0.04,1.51-0.04,1.46
					c-0.01,1.18-0.02,2.36-0.01,3.54c0,1.18,0,2.36,0.01,3.54c0,0.26-0.13,1.3,0.04,1.46c5.05,5.13,10.93,9.59,16.86,13.63
					c12.45,8.5,26.51,15.21,41.48,17.65c8.49,1.38,17.2,1.31,25.61-0.55c8.86-1.95,17.04-6.39,24.56-11.33
					c9.1-5.98,17.52-12.99,25.54-20.33c1-0.91,1.99-1.83,2.97-2.76c0.53-0.5,0.94-0.74,1.07-1.41c0.15-0.76,0.1-1.65,0.14-2.44
					c0.19-3.09,0.4-6.19,0.64-9.28c0.44-5.76,0.97-11.51,1.58-17.25c1.2-11.25,2.72-22.47,4.58-33.62c0.91-5.46,1.9-10.9,2.98-16.33
					c0.53-2.68,1.08-5.36,1.66-8.04c0.28-1.33,0.57-2.66,0.87-3.98c0.06-0.27,0.09-0.63,0.2-0.88c0.27-0.66,0.04-0.31,0.57-0.56
					c0.69-0.33,1.59-0.43,2.32-0.65c2.76-0.8,5.48-1.71,8.17-2.72c0.31-0.12,0.05-4.54,0.05-5c0-1.18,0-2.36-0.01-3.54
					C235.64,354.61,235.56,353.32,235.61,353.31z"/>
			</g>
		</g>
	</g>
	<g>
		<g>
			<path d="M645.7,500.58c0-2.06-0.02,0.89-0.03,1.33c-0.02,1.13-0.06,2.27-0.1,3.4c-0.08,2.39-0.2,4.77-0.35,7.15
				c-0.29,4.59-0.7,9.18-1.24,13.74c-1,8.51-2.44,16.98-4.34,25.34c-3.53,15.5-8.65,30.63-15.36,45.05
				c-11.85,25.44-28.65,48.5-49.21,67.61c-17.41,16.18-37.52,29.72-59.44,38.98c-15.88,6.71-33.75,11.98-51.18,10.65
				c-10.67-0.82-22.96-5.13-25.42-16.88c-0.35-1.65-0.42-6.62-0.4-0.86c0-1.13,0.25-2.57-0.05-3.67c0.27,1-0.04,2.64-0.05,3.67
				c0.02-5.77-0.07-0.67-0.43,1.01c-0.27,1.23-0.65,2.43-1.16,3.58c-0.97,2.19-2.39,4.15-4.14,5.79c-4.05,3.81-9.54,5.75-14.92,6.71
				c-16.14,2.88-33.43-1.41-48.54-6.93c-21.46-7.83-41.34-19.97-58.82-34.62c-20.93-17.53-38.51-38.99-51.55-62.98
				c-15.32-28.19-24.08-59.56-26.68-91.49c-0.38-4.68-0.63-9.38-0.75-14.08c-0.03-1.07-0.01-2.14-0.06-3.2
				c-0.03-0.65-0.01,1.45,0,0.42c0.01-0.61,0.01-1.22,0.01-1.83c0.03-3.58,0.1-7.17,0.21-10.75c0.38-13.07,1.17-26.13,2.41-39.15
				c1.2-12.69,2.82-25.34,4.87-37.92c0.96-5.9,2.01-11.78,3.16-17.64c0.57-2.89,1.16-5.78,1.77-8.67c0.31-1.43,0.62-2.86,0.94-4.3
				c0.05-0.24,0.11-0.48,0.16-0.71c-0.07-0.66,0.23-0.96,0.9-0.91c0.79-0.45,2.05-0.57,2.93-0.83c6.02-1.8,11.88-4.12,17.5-6.93
				c1.34-0.67,2.66-1.36,3.97-2.09c0.25-0.14,1.72-1.18,1.95-1.1c0.24,0.08,0.8,1.3,0.95,1.54c1.28,2.04,2.62,4.04,4.03,5.99
				c5.85,8.11,12.83,15.41,20.67,21.62c15.85,12.57,35.13,20.54,55.24,22.78c21.82,2.43,44.17-1.83,63.51-12.25
				c4.57-2.46,8.97-5.26,13.14-8.35c2.08-1.54,4.1-3.15,6.07-4.84c0.98-0.84,1.95-1.7,2.9-2.58c0.2-0.19,1.16-1.33,1.41-1.33
				c0.37,0,1.59,1.49,1.89,1.76c8,7.28,17.08,13.36,26.87,17.97c38.57,18.15,85.48,11.51,117.54-16.52
				c3.79-3.31,7.34-6.88,10.64-10.68c1.58-1.83,3.1-3.7,4.56-5.63c0.73-0.96,1.44-1.94,2.14-2.93c0.7-1,1.44-2.76,2.38-3.51
				c0.11-0.17,0.22-0.34,0.33-0.51c0.43,0.22,0.87,0.45,1.31,0.66c0.66,0.33,1.32,0.65,1.98,0.96c1.33,0.63,2.67,1.23,4.03,1.81
				c2.73,1.16,5.5,2.21,8.31,3.15c2.84,0.94,5.71,1.77,8.61,2.48c0.24,0.06,0.49,0.12,0.73,0.18c0.67-0.08,0.97,0.22,0.89,0.89
				c0.29,0.57,0.34,1.53,0.47,2.16c0.37,1.68,0.72,3.37,1.07,5.06c5.17,24.92,8.58,50.21,10.35,75.6
				C645.14,475.48,645.7,488.04,645.7,500.58c0,0.37-0.01,5,0.05,5c0.06,0,0.05-4.95,0.05-5c-0.03-39.65-3.18-79.19-10.86-118.13
				c-0.43-2.18-0.87-4.36-1.33-6.54c-0.25-1.2-0.51-2.41-0.77-3.61c-0.1-0.48-0.21-0.96-0.31-1.44c-0.11-0.48-0.21-0.96-0.32-1.43
				c-0.24-0.06-0.49-0.11-0.73-0.17c-0.96-0.51-2.58-0.64-3.63-0.93c-0.96-0.26-1.92-0.54-2.87-0.83c-2.37-0.72-4.72-1.52-7.03-2.39
				c-2.07-0.78-4.12-1.63-6.14-2.54c-1.12-0.5-2.23-1.02-3.33-1.56c-0.28-0.14-0.96-0.59-1.31-0.66c-0.48-0.52-0.81-0.46-0.98,0.18
				c-0.11,0.17-0.22,0.34-0.33,0.51c-2.1,3.2-4.37,6.29-6.8,9.25c-9.72,11.86-21.94,21.62-35.67,28.46
				c-29.57,14.73-65.23,15.02-95.04,0.77c-7.42-3.55-14.44-7.95-20.87-13.08c-1.52-1.21-3-2.46-4.45-3.75
				c-0.65-0.58-1.6-1.82-2.38-2.18c-0.79-0.37,0.08-0.58-0.94,0c-0.52,0.29-0.97,0.91-1.42,1.32c-3.03,2.76-6.21,5.34-9.53,7.74
				c-13.52,9.78-29.27,16.34-45.74,19.06c-31.64,5.22-64.58-4.05-88.8-25.07c-5.74-4.98-10.96-10.56-15.54-16.62
				c-1.09-1.44-2.14-2.9-3.15-4.4c-0.56-0.83-1.12-1.67-1.66-2.51c-0.29-0.45-1.1-2.39-1.59-2.56c-0.43-0.14-2.88,1.61-3.26,1.81
				c-0.88,0.47-1.77,0.93-2.66,1.37c-2.24,1.12-4.51,2.16-6.82,3.12c-2.09,0.87-4.21,1.68-6.35,2.42c-2.34,0.81-5.02,1.22-7.27,2.23
				c-1.16,0.52-0.46,0.04-0.9,0.91c-0.29,0.57-0.34,1.52-0.47,2.14c-0.21,0.95-0.42,1.91-0.62,2.87c-0.51,2.4-1.01,4.81-1.49,7.22
				c-1.85,9.31-3.46,18.66-4.83,28.05c-2.81,19.26-4.64,38.67-5.53,58.12c-0.84,18.25-1.27,36.68-0.09,54.92
				c1.63,25.28,6.98,50.32,16.52,73.81c8.35,20.57,19.84,39.84,33.99,56.95c12.6,15.23,27.27,28.76,43.51,40.03
				c13.93,9.67,29.06,17.78,45.07,23.42c12.33,4.34,25.54,7.49,38.7,7.11c8.56-0.25,18.47-2.08,24.38-8.89
				c2.52-2.91,3.95-6.54,4.34-10.35c0.05-0.5,0.08-1,0.11-1.49c0.02-0.36,0.02-0.73,0.03-1.09c0.01-0.69-0.24-2.9-0.07-3.24
				c-0.36,0.73,0.01,2.29,0.02,3.16c0.01,0.39,0.01,0.79,0.03,1.18c0.02,0.55,0.06,1.11,0.12,1.66c0.21,1.94,0.68,3.85,1.45,5.64
				c3.39,7.82,11.77,11.42,19.69,12.74c11.92,1.97,24.41-0.06,35.94-3.19c15.59-4.23,30.45-11.08,44.25-19.42
				c16.4-9.9,31.42-22.08,44.62-35.96c14.82-15.59,27.32-33.36,36.94-52.6c10.97-21.93,18.13-45.64,21.59-69.9
				c1.97-13.81,2.58-27.68,2.59-41.62c0-0.37,0.01-5-0.05-5C645.7,495.58,645.7,500.53,645.7,500.58z"/>
		</g>
	</g>
	<g>
		<g>
			<g>
				<path d="M415.49,666.25c-8.03-8.03-16.06-16.06-24.09-24.09c-1.14-1.14-2.27-2.27-3.41-3.41c0,3.33,0,6.67,0,10
					c8.03-8.03,16.06-16.06,24.09-24.09c1.14-1.14,2.27-2.27,3.41-3.41c0.11-0.11,0.04-1.53,0.04-1.46
					c0.01-1.18,0.02-2.36,0.01-3.54c0-1.18,0-2.36-0.01-3.54c0-0.23-0.16-1.34-0.04-1.46c-8.03,8.03-16.06,16.06-24.09,24.09
					c-1.14,1.14-2.27,2.27-3.41,3.41c-0.11,0.11-0.04,1.53-0.04,1.46c-0.01,1.18-0.02,2.36-0.01,3.54c0,1.18,0,2.36,0.01,3.54
					c0,0.26-0.13,1.3,0.04,1.46c8.03,8.03,16.06,16.06,24.09,24.09c1.14,1.14,2.27,2.27,3.41,3.41c-0.06-0.06,0.04-1.6,0.04-1.46
					c0.01-1.18,0.02-2.36,0.01-3.54c0-1.18,0-2.36-0.01-3.54C415.52,667.45,415.65,666.42,415.49,666.25L415.49,666.25z"/>
			</g>
		</g>
		<g>
			<g>
				<path d="M459.63,676.25c8.03-8.03,16.06-16.06,24.09-24.09c1.14-1.14,2.27-2.27,3.41-3.41c0.11-0.11,0.04-1.53,0.04-1.46
					c0.01-1.18,0.02-2.36,0.01-3.54c0-1.18,0-2.36-0.01-3.54c0-0.26,0.13-1.3-0.04-1.46c-8.03-8.03-16.06-16.06-24.09-24.09
					c-1.14-1.14-2.27-2.27-3.41-3.41c0.06,0.06-0.04,1.6-0.04,1.46c-0.01,1.18-0.02,2.36-0.01,3.54c0,1.18,0,2.36,0.01,3.54
					c0,0.26-0.13,1.3,0.04,1.46c8.03,8.03,16.06,16.06,24.09,24.09c1.14,1.14,2.27,2.27,3.41,3.41c0-3.33,0-6.67,0-10
					c-8.03,8.03-16.06,16.06-24.09,24.09c-1.14,1.14-2.27,2.27-3.41,3.41c-0.11,0.11-0.04,1.53-0.04,1.46
					c-0.01,1.18-0.02,2.36-0.01,3.54c0,1.18,0,2.36,0.01,3.54C459.6,675.02,459.76,676.13,459.63,676.25L459.63,676.25z"/>
			</g>
		</g>
		<g>
			<g>
				<path d="M449.14,615.73c-2.21,5.77-4.42,11.55-6.63,17.32c-3.53,9.22-7.06,18.43-10.59,27.65c-0.82,2.13-1.63,4.26-2.45,6.39
					c-0.12,0.32-0.03,1.22-0.04,1.46c-0.01,1.18-0.02,2.36-0.01,3.54c0,1.18,0,2.36,0.01,3.54c0,0.38,0.16,1.13,0.04,1.46
					c2.21-5.77,4.42-11.55,6.63-17.32c3.53-9.22,7.06-18.43,10.59-27.65c0.82-2.13,1.63-4.26,2.45-6.39
					c0.12-0.32,0.03-1.22,0.04-1.46c0.01-1.18,0.02-2.36,0.01-3.54c0-1.18,0-2.36-0.01-3.54
					C449.17,616.81,449.01,616.07,449.14,615.73L449.14,615.73z"/>
			</g>
		</g>
	</g>
	<g>
		<g>
			<path d="M272.57,154.44c12.1-21.67,35.05-35.78,59.9-36.47c7.23-0.2,14.49,0.7,21.45,2.69c3.37,0.96,6.67,2.18,9.86,3.63
				c1.46,0.67,2.89,1.38,4.3,2.14c0.78,0.42,1.55,0.86,2.32,1.31c0.31,0.18,0.61,0.36,0.91,0.55c0.47,0.29,1.1,0.9,1.45,0.64
				c0.38-0.28,0.69-1.4,0.93-1.85c0.35-0.68,0.72-1.35,1.09-2.02c0.75-1.33,1.54-2.63,2.37-3.91c1.62-2.48,3.38-4.87,5.3-7.13
				c3.82-4.52,8.2-8.56,13.02-11.99c20.27-14.46,47.44-17.12,70.13-6.85c11.06,5,20.75,12.88,27.93,22.66
				c1.74,2.37,3.33,4.85,4.76,7.41c0.28,0.5,0.23,0.7,0.69,0.69c0.32-0.01,0.93-0.48,1.22-0.62c0.74-0.37,1.48-0.72,2.23-1.06
				c1.76-0.8,3.54-1.53,5.36-2.18c6.91-2.48,14.21-3.86,21.55-4.1c24.6-0.8,48.31,11.6,61.7,32.25c1.58,2.44,3,4.97,4.28,7.59
				c-0.1-0.2,0.03-1.41,0.04-1.46c0.01-1.18,0.02-2.36,0.01-3.54c0-1.18,0-2.36-0.01-3.54c0-0.38,0.13-1.13-0.04-1.46
				c-10.67-21.81-32.18-37.03-56.38-39.51c-7.07-0.72-14.25-0.39-21.22,1.01c-3.55,0.71-7.05,1.7-10.45,2.95
				c-1.55,0.57-3.08,1.2-4.59,1.87c-0.83,0.38-1.66,0.77-2.48,1.17c-0.2,0.1-0.72,0.45-0.98,0.5c-0.37,0.4-0.61,0.35-0.71-0.16
				c-0.11-0.2-0.22-0.41-0.34-0.61c-5.9-10.5-14.5-19.43-24.76-25.73c-21.27-13.05-48.65-13.78-70.59-1.89
				c-10.49,5.69-19.48,14.05-25.92,24.1c-0.74,1.16-1.45,2.33-2.12,3.53c-0.37,0.67-0.74,1.34-1.09,2.02
				c-0.19,0.36-0.67,1.9-1.03,2.06c-0.17,0.08-2.05-1.27-2.26-1.4c-0.69-0.41-1.38-0.8-2.08-1.18c-1.64-0.9-3.32-1.73-5.03-2.49
				c-6.47-2.89-13.37-4.79-20.4-5.63c-25.21-2.99-50.59,8.05-65.57,28.56c-1.74,2.38-3.32,4.87-4.75,7.44
				c-0.13,0.23-0.03,1.35-0.04,1.46c-0.01,1.18-0.02,2.36-0.01,3.54c0,1.18,0,2.36,0.01,3.54
				C272.54,153.3,272.72,154.18,272.57,154.44L272.57,154.44z"/>
		</g>
	</g>
	<g>
		<g>
			<path d="M319.81,306.4c9.28,13.59,23.2,23.55,38.72,28.83c17.31,5.89,36.55,6.04,53.95,0.46c8.48-2.72,16.54-6.81,23.67-12.17
				c0.87-0.65,1.72-1.32,2.56-2.01c0.35-0.28,0.81-0.83,1.17-0.73c0.4,0.11,0.99,0.83,1.32,1.09c1.69,1.37,3.44,2.66,5.25,3.88
				c3.67,2.48,7.55,4.65,11.58,6.48c16.84,7.66,36.2,9.48,54.23,5.44c16.35-3.67,31.67-12.28,42.64-25.05
				c1.31-1.52,2.54-3.1,3.72-4.72c0.12-0.17,0.04-1.44,0.04-1.46c0.01-1.18,0.02-2.36,0.01-3.54c0-1.18,0-2.36-0.01-3.54
				c0-0.28-0.17-1.27-0.04-1.46c-9.77,13.5-24.14,23.2-40.01,28.08c-17.59,5.41-36.97,5.02-54.3-1.2
				c-8.34-2.99-16.21-7.33-23.11-12.9c-0.37-0.3-0.76-0.75-1.18-0.97c-0.61-0.32-0.1-0.2-0.58,0c-0.25,0.1-0.52,0.43-0.73,0.61
				c-0.84,0.69-1.69,1.36-2.56,2.01c-1.75,1.31-3.55,2.55-5.4,3.71c-3.77,2.36-7.75,4.41-11.86,6.11
				c-17.01,7.05-36.33,8.3-54.15,3.74c-16.03-4.11-30.9-13.02-41.38-25.91c-1.25-1.54-2.43-3.13-3.55-4.76
				c0.08,0.12-0.04,1.51-0.04,1.46c-0.01,1.18-0.02,2.36-0.01,3.54c0,1.18,0,2.36,0.01,3.54
				C319.78,305.27,319.63,306.15,319.81,306.4L319.81,306.4z"/>
		</g>
	</g>
	<g>
		<g>
			<g>
				<path d="M623.29,158.12c20.83-9.59,45.31-9.81,66.24-0.41c17.63,7.92,32.06,22.28,40.05,39.88c4.13,9.09,6.53,18.96,7,28.93
					c0.03,0.65,0.05,1.3,0.07,1.95c0.05,1.49,0.08-7.87,0-5.62c-0.01,0.35-0.02,0.7-0.03,1.05c-0.05,1.33-0.14,2.66-0.26,3.98
					c-0.23,2.56-0.59,5.11-1.07,7.64c-0.92,4.84-2.29,9.6-4.09,14.19c-7.08,18.05-20.82,33.17-38.09,41.99
					c-19.76,10.09-43.43,11.42-64.22,3.64c-2.93-1.1-5.79-2.37-8.58-3.8c0.02,0.01-0.04,1.68-0.04,1.46
					c-0.01,1.18-0.02,2.36-0.01,3.54c0,1.18,0,2.36,0.01,3.54c0,0.19-0.09,1.4,0.04,1.46c20.92,10.72,46.05,11.72,67.7,2.54
					c18.31-7.77,33.34-22.44,41.57-40.55c4.23-9.32,6.6-19.42,7.04-29.64c0.53-12.33,0.23-24.77-3.4-36.65
					c-5.81-19.06-18.88-35.54-36.07-45.61c-19.48-11.41-43.47-13.99-64.95-7.01c-3.04,0.99-6.01,2.16-8.9,3.5
					c-0.07,0.03-0.04,1.64-0.04,1.46c-0.01,1.18-0.02,2.36-0.01,3.54c0,1.18,0,2.36,0.01,3.54
					C623.25,156.82,623.35,158.1,623.29,158.12L623.29,158.12z"/>
			</g>
		</g>
		<g>
			<g>
				<path d="M577.52,239.36c2.29,20.54,12.63,39.65,28.58,52.81c4.39,3.62,9.16,6.76,14.21,9.38c-0.03-0.01,0.04-1.68,0.04-1.46
					c0.01-1.18,0.02-2.36,0.01-3.54c0-1.18,0-2.36-0.01-3.54c0-0.19,0.09-1.4-0.04-1.46c-18.15-9.42-32.31-25.68-38.96-45.04
					c-1.91-5.55-3.17-11.31-3.83-17.14c0.18,1.6-0.05,3.38-0.05,5C577.48,236,577.34,237.72,577.52,239.36L577.52,239.36z"/>
			</g>
		</g>
	</g>
	<g>
		<g>
			<g>
				<path d="M248.7,148.12c-21.24-9.79-46.26-9.8-67.44,0.14c-18.01,8.45-32.49,23.66-40.03,42.07c-4,9.76-5.83,20.11-5.95,30.64
					c-0.08,7.01-0.16,14.06,0.84,21.02c0.72,5.02,1.92,9.96,3.58,14.75c6.53,18.81,20.19,34.78,37.72,44.19
					c20.05,10.77,44.36,12.38,65.68,4.41c2.93-1.1,5.79-2.37,8.58-3.8c0.08-0.04,0.04-1.64,0.04-1.46c0.01-1.18,0.02-2.36,0.01-3.54
					c0-1.18,0-2.36-0.01-3.54c0-0.17-0.1-1.43-0.04-1.46c-20.51,10.51-45.1,11.7-66.47,3.05c-17.92-7.25-32.87-21.08-41.51-38.37
					c-4.42-8.84-7.16-18.49-8.05-28.33c-0.12-1.33-0.2-2.65-0.26-3.98c-0.01-0.35-0.02-0.7-0.03-1.05c-0.06-1.98,0.29-4.91,0,5.62
					c0.02-0.65,0.04-1.3,0.07-1.95c0.13-2.64,0.39-5.28,0.78-7.9c0.73-4.9,1.93-9.73,3.56-14.4c6.4-18.32,19.57-33.94,36.51-43.4
					c19.22-10.73,42.58-12.99,63.52-6.2c3.04,0.99,6.01,2.16,8.9,3.5c-0.02-0.01,0.04-1.68,0.04-1.46c0.01-1.18,0.02-2.36,0.01-3.54
					c0-1.18,0-2.36-0.01-3.54C248.73,149.41,248.81,148.18,248.7,148.12L248.7,148.12z"/>
			</g>
		</g>
		<g>
			<g>
				<path d="M294.46,229.36c-2.29,20.54-12.63,39.65-28.58,52.81c-4.39,3.62-9.16,6.76-14.21,9.38c-0.08,0.04-0.04,1.63-0.04,1.46
					c-0.01,1.18-0.02,2.36-0.01,3.54c0,1.18,0,2.36,0.01,3.54c0,0.17,0.1,1.43,0.04,1.46c18.15-9.42,32.31-25.68,38.96-45.04
					c1.91-5.55,3.17-11.31,3.83-17.14c0.18-1.63,0.05-3.36,0.05-5C294.51,232.73,294.28,230.97,294.46,229.36L294.46,229.36z"/>
			</g>
		</g>
	</g>
	<g>
		<g>
			<g>
				<path d="M766.59,223.48c-0.1,25.05-10.98,50.36-27.41,68.98c-16.48,18.68-39.19,31.42-63.76,35.62
					c-14.68,2.51-29.87,2.02-44.35-1.46c-4.1-0.98-8.14-2.21-12.1-3.66c-1.78-0.65-3.55-1.35-5.29-2.1c-2-0.85-4.1-2.32-6.17-2.86
					c-1.99-0.52-0.43-0.59-1.53,0.29c-0.61,0.49-1.15,1.73-1.6,2.38c-0.91,1.31-1.84,2.6-2.8,3.87c-2.11,2.79-4.36,5.47-6.74,8.04
					c-18.98,20.58-45.69,33.24-73.65,34.78c-15.02,0.83-30.17-1.43-44.27-6.72c-6.93-2.6-13.6-5.92-19.85-9.89
					c-2.89-1.83-5.69-3.8-8.39-5.89c-1.35-1.04-2.67-2.12-3.97-3.23c-0.79-0.67-3.61-4.11-4.55-4.11c-0.82,0-3.45,3.16-4.17,3.78
					c-1.42,1.22-2.87,2.41-4.36,3.56c-2.97,2.3-6.06,4.45-9.26,6.43c-6.15,3.81-12.68,7.01-19.47,9.53
					c-14.26,5.29-29.62,7.47-44.8,6.48c-27.97-1.82-54.53-14.73-73.33-35.5c-2.14-2.36-4.17-4.81-6.09-7.35
					c-0.96-1.27-1.9-2.56-2.8-3.88c-0.92-1.33-1.93-3.82-3.14-4.82c-1.06-0.87-0.59-0.76-1.93-0.01c-0.8,0.45-1.61,0.89-2.42,1.31
					c-1.63,0.86-3.28,1.67-4.94,2.45c-3.69,1.72-7.49,3.22-11.35,4.51c-14.7,4.91-30.42,6.62-45.84,5.09
					c-50.96-5.05-92.7-46.49-98.19-97.39c-0.21-1.91-0.36-3.82-0.46-5.73c-0.04-0.7,0.09-1.63-0.1-2.3c0,0.75,0,1.5,0,2.24
					c0.02-0.61,0.05-1.23,0.08-1.84c0.18-3.57,0.53-7.14,1.06-10.68c0.92-6.16,2.37-12.24,4.33-18.16
					c3.91-11.83,9.87-22.96,17.52-32.8c15.32-19.71,37.27-33.88,61.59-39.59c13.7-3.21,28.02-3.76,41.92-1.63
					c4.25,0.65,8.47,1.55,12.61,2.7c1.86,0.52,3.71,1.08,5.55,1.7c0,0,2,0.84,2.18,0.76c0.6-0.26,1.54-2.66,1.91-3.26
					c3.47-5.6,7.65-10.76,12.41-15.32c21.18-20.32,52.91-27.08,80.54-17.07c3.43,1.24,6.78,2.72,10,4.43
					c1.47,0.78,3.13,2.19,4.71,2.71c1.51,0.49,0.98,0.4,1.75-1.1c0.43-0.83,0.87-1.66,1.32-2.48c3.31-5.97,7.41-11.5,12.16-16.41
					c9.11-9.43,20.58-16.5,33.11-20.37c26.8-8.26,56.7-1.19,76.96,18.18c4.75,4.55,8.94,9.69,12.41,15.28
					c0.5,0.8,0.98,1.61,1.45,2.43c0.58,1.02,0.48,1.41,1.41,1.4c1.48-0.02,4.15-2.01,5.57-2.61c3.82-1.61,7.78-2.92,11.81-3.9
					c14.6-3.54,30.16-2.79,44.34,2.19c12.43,4.36,23.66,11.92,32.42,21.75c2.28,2.56,4.4,5.27,6.32,8.11
					c0.88,1.29,1.72,2.61,2.52,3.96c0.9,1.51,1.57,3.68,2.71,4.96c1.15,1.28,0.04,0.54,1.45,0.37c0.93-0.11,2.25-0.99,3.13-1.35
					c1.75-0.73,3.53-1.41,5.32-2.04c3.97-1.41,8.03-2.59,12.14-3.53c26.97-6.18,55.86-1.83,79.77,12.09
					c21.22,12.35,37.99,31.82,47.01,54.66c4.53,11.48,7.54,24.26,7.59,36.66c0,0.69-0.01,3.43,0.06,3.49
					c-0.47-0.38,0.04-5.58,0.03-6.15c-0.05-13.04-1.47-25.79-5.59-38.22c-4.01-12.1-10.15-23.47-18.05-33.48
					c-15.67-19.84-38.08-33.93-62.79-39.3c-14.64-3.18-29.93-3.34-44.63-0.47c-4.15,0.81-8.26,1.86-12.29,3.15
					c-1.81,0.58-3.61,1.21-5.4,1.88c-1.84,0.7-4.4,2.39-6.3,2.61c-0.34,0.16-0.69,0.31-1.03,0.47c-0.27-0.57-0.56-1.13-0.84-1.69
					c-0.29-0.56-0.58-1.11-0.88-1.66c-0.83-1.51-1.7-3-2.63-4.45c-1.93-3.03-4.06-5.92-6.38-8.66
					c-18.94-22.3-49.53-32.27-77.99-25.35c-4.03,0.98-7.99,2.28-11.81,3.9c-1.44,0.61-3.56,2.11-5.08,2.36
					c-0.33,0.17-0.66,0.34-0.99,0.51c-0.3-0.55-0.61-1.11-0.92-1.65c-0.47-0.82-0.95-1.63-1.45-2.43
					c-3.63-5.85-8.05-11.22-13.09-15.92c-10.2-9.52-22.91-16.22-36.55-19.2c-27.53-6-56.77,3.6-75.36,24.76
					c-2.25,2.56-4.33,5.27-6.23,8.1c-0.87,1.29-1.69,2.61-2.48,3.95c-0.88,1.5-1.55,3.61-2.67,4.94c-0.14,0.28-0.27,0.56-0.41,0.84
					c-0.61-0.39-1.22-0.77-1.84-1.15c-0.78-0.47-1.56-0.92-2.35-1.36c-1.75-0.97-3.53-1.88-5.34-2.72
					c-3.67-1.69-7.46-3.09-11.35-4.19c-14.82-4.19-30.84-3.88-45.48,0.89c-13.21,4.31-25.16,12.2-34.35,22.62
					c-2.08,2.35-4.01,4.83-5.79,7.42c-0.89,1.3-1.74,2.62-2.56,3.97c-0.25,0.41-1.01,2.28-1.42,2.46c-0.55,0.24-3.18-1.09-3.83-1.3
					c-8.04-2.56-16.38-4.17-24.79-4.81c-26.78-2.04-53.77,5.89-75.11,22.21c-20.06,15.34-34.5,37.52-40.27,62.12
					c-3.04,12.96-3.36,26.38-2.82,39.63c0.53,12.86,3.29,25.61,8.21,37.51c9.66,23.37,27.48,43.01,49.76,54.94
					c25.06,13.42,55.02,16.54,82.33,8.64c7.82-2.26,15.38-5.4,22.5-9.33c0.93-0.51,1.42-1.15,2.16-0.67
					c0.48,0.31,0.96,1.56,1.27,2.03c0.86,1.35,1.75,2.67,2.67,3.98c2.2,3.13,4.56,6.14,7.08,9.02
					c9.14,10.45,20.26,19.14,32.63,25.43c26.71,13.59,58.66,15.42,86.77,5.02c7.11-2.63,13.94-6.01,20.34-10.07
					c2.89-1.83,5.69-3.79,8.39-5.89c1.62-1.25,3.2-2.55,4.74-3.89c0.51-0.45,1.02-0.9,1.53-1.36c0.51-0.46,1.01-0.92,1.5-1.38
					c0.5-0.94,0.99-0.94,1.49,0c1.36,0.78,2.62,2.39,3.81,3.41c1.3,1.11,2.62,2.18,3.97,3.23c3.24,2.51,6.63,4.84,10.13,6.97
					c6.34,3.85,13.07,7.05,20.07,9.52c28.2,9.97,60.04,7.71,86.53-6.18c12.41-6.51,23.54-15.45,32.58-26.16
					c2.05-2.43,4-4.95,5.84-7.55c0.55-0.78,1.09-1.57,1.62-2.37c0.65-0.98,0.6-1.37,1.55-1.35c0.68,0.02,1.92,0.96,2.54,1.25
					c1.37,0.65,2.74,1.27,4.13,1.87c7.58,3.24,15.53,5.61,23.65,7.07c27.25,4.88,55.84-0.79,79.09-15.84
					c21.26-13.76,37.42-34.83,45.09-58.98c3.83-12.05,5.13-24.37,5.19-36.96c0-0.64-0.36-6.02-0.03-6.15
					C766.55,220.03,766.59,222.9,766.59,223.48z"/>
			</g>
		</g>
		<g>
			<g>
				<path d="M547.63,241.91c1.58,14.19,5.9,28.01,12.75,40.55c6.68,12.22,15.7,23.12,26.43,32c6.08,5.03,12.69,9.39,19.69,13.02
					c-0.03-0.01,0.04-1.68,0.04-1.46c0.01-1.18,0.02-2.36,0.01-3.54c0-1.18,0-2.36-0.01-3.54c0-0.19,0.09-1.4-0.04-1.46
					c-12.38-6.42-23.5-15.14-32.64-25.67c-9.19-10.57-16.33-22.9-20.9-36.14c-2.66-7.7-4.43-15.68-5.33-23.77
					c0.18,1.6-0.05,3.38-0.05,5C547.58,238.56,547.45,240.27,547.63,241.91L547.63,241.91z"/>
			</g>
		</g>
		<g>
			<g>
				<path d="M272.26,324.93c11.42-6.64,21.62-15.29,30-25.51c8.43-10.28,14.98-22.09,19.2-34.7c2.45-7.32,4.11-14.89,4.98-22.56
					c0.19-1.63,0.05-3.36,0.05-5c0-1.63-0.23-3.39-0.05-5c-1.53,13.47-5.53,26.6-11.82,38.6c-6.14,11.7-14.4,22.27-24.26,31.06
					c-5.57,4.97-11.65,9.35-18.1,13.11c-0.08,0.05-0.04,1.62-0.04,1.46c-0.01,1.18-0.02,2.36-0.01,3.54c0,1.18,0,2.36,0.01,3.54
					C272.22,323.64,272.33,324.89,272.26,324.93L272.26,324.93z"/>
			</g>
		</g>
	</g>
</g>
<g id="Camada_7" class="st0">
	<g class="st1">
		<path d="M435.18,208c1.03,26.61,1.58,53.21,1.94,79.82c0.23,13.3,0.28,26.61,0.42,39.91l0.14,39.91l-0.13,39.91
			c-0.14,13.3-0.18,26.61-0.42,39.91c-0.37,26.61-0.91,53.21-1.95,79.82c-1.04-26.61-1.58-53.21-1.95-79.82
			c-0.23-13.3-0.28-26.61-0.42-39.91l-0.13-39.91l0.14-39.91c0.14-13.3,0.19-26.61,0.42-39.91
			C433.61,261.21,434.15,234.61,435.18,208z"/>
	</g>
	<g class="st1">
		<g>
			<path d="M517.94,354.54c-6.71,0-12.3-1.44-16.75-4.31c-4.46-2.88-7.84-6.85-10.14-11.94c-2.3-5.08-3.65-10.98-4.03-17.69
				l14.38-3.88c0.29,4.12,0.93,8.1,1.94,11.94c1.01,3.84,2.66,6.97,4.96,9.42c2.3,2.44,5.51,3.67,9.64,3.67
				c4.22,0,7.41-1.17,9.56-3.52c2.16-2.35,3.24-5.73,3.24-10.14c0-5.27-1.2-9.51-3.6-12.73c-2.4-3.21-5.42-6.45-9.06-9.71
				l-19.56-17.26c-3.83-3.35-6.66-7.02-8.48-11c-1.82-3.98-2.73-8.89-2.73-14.74c0-8.53,2.44-15.15,7.33-19.85
				c4.89-4.7,11.55-7.05,19.99-7.05c4.6,0,8.65,0.6,12.15,1.8c3.5,1.2,6.42,3.04,8.77,5.54c2.35,2.49,4.22,5.63,5.61,9.42
				c1.39,3.79,2.32,8.22,2.8,13.3l-13.81,3.74c-0.29-3.83-0.86-7.36-1.73-10.57c-0.86-3.21-2.37-5.8-4.53-7.77
				c-2.16-1.96-5.25-2.95-9.28-2.95s-7.17,1.08-9.42,3.24c-2.25,2.16-3.38,5.35-3.38,9.56c0,3.55,0.6,6.47,1.8,8.77
				c1.2,2.3,3.14,4.65,5.83,7.05l19.7,17.26c4.41,3.84,8.29,8.41,11.65,13.73c3.36,5.32,5.03,11.63,5.03,18.91
				c0,5.75-1.2,10.71-3.59,14.88c-2.4,4.17-5.68,7.36-9.85,9.56C528.22,353.44,523.4,354.54,517.94,354.54z"/>
			<path d="M557.63,353.25V236.76h15.39v41.99c2.78-2.68,5.9-4.98,9.35-6.9c3.45-1.92,7.28-2.88,11.5-2.88
				c3.26,0,5.77,0.86,7.55,2.59c1.77,1.73,3.02,3.88,3.74,6.47c0.72,2.59,1.08,5.23,1.08,7.91v67.3h-15.39V290.4
				c0-2.97-0.43-5.27-1.29-6.9c-0.86-1.63-2.64-2.44-5.32-2.44c-1.82,0-3.72,0.53-5.68,1.58c-1.97,1.06-3.81,2.35-5.54,3.88v66.73
				H557.63z"/>
			<path d="M644.2,354.4c-6.52,0-11.55-1.27-15.1-3.81c-3.55-2.54-6.02-6.28-7.41-11.22c-1.39-4.94-2.09-11-2.09-18.19V302.2
				c0-7.38,0.72-13.52,2.16-18.41c1.44-4.89,3.96-8.58,7.55-11.07c3.59-2.49,8.56-3.74,14.88-3.74c7,0,12.15,1.44,15.46,4.31
				c3.31,2.88,5.49,7.02,6.54,12.44c1.05,5.42,1.58,11.91,1.58,19.49v6.76H635v16.68c0,3.36,0.31,6.09,0.93,8.2
				c0.62,2.11,1.63,3.67,3.02,4.67c1.39,1.01,3.19,1.51,5.39,1.51c2.3,0,4.05-0.55,5.25-1.65c1.2-1.1,2.01-2.68,2.44-4.75
				c0.43-2.06,0.65-4.48,0.65-7.26v-5.03h14.96v3.16c0,8.34-1.78,14.91-5.32,19.7C658.77,352.01,652.73,354.4,644.2,354.4z
				 M635,303.64h17.69v-7.48c0-3.45-0.19-6.35-0.58-8.7c-0.38-2.35-1.17-4.12-2.37-5.32c-1.2-1.2-3.09-1.8-5.68-1.8
				c-2.49,0-4.39,0.58-5.68,1.73c-1.29,1.15-2.18,3.09-2.66,5.82c-0.48,2.73-0.72,6.5-0.72,11.29V303.64z"/>
			<path d="M704.75,354.4c-6.52,0-11.55-1.27-15.1-3.81c-3.55-2.54-6.02-6.28-7.41-11.22c-1.39-4.94-2.09-11-2.09-18.19V302.2
				c0-7.38,0.72-13.52,2.16-18.41c1.44-4.89,3.96-8.58,7.55-11.07c3.59-2.49,8.56-3.74,14.88-3.74c7,0,12.15,1.44,15.46,4.31
				c3.31,2.88,5.49,7.02,6.54,12.44c1.05,5.42,1.58,11.91,1.58,19.49v6.76h-32.79v16.68c0,3.36,0.31,6.09,0.93,8.2
				c0.62,2.11,1.63,3.67,3.02,4.67c1.39,1.01,3.19,1.51,5.39,1.51c2.3,0,4.05-0.55,5.25-1.65c1.2-1.1,2.01-2.68,2.44-4.75
				c0.43-2.06,0.65-4.48,0.65-7.26v-5.03h14.96v3.16c0,8.34-1.78,14.91-5.32,19.7C719.32,352.01,713.28,354.4,704.75,354.4z
				 M695.54,303.64h17.69v-7.48c0-3.45-0.19-6.35-0.58-8.7c-0.38-2.35-1.17-4.12-2.37-5.32c-1.2-1.2-3.09-1.8-5.68-1.8
				c-2.49,0-4.39,0.58-5.68,1.73c-1.29,1.15-2.18,3.09-2.66,5.82c-0.48,2.73-0.72,6.5-0.72,11.29V303.64z"/>
			<path d="M742.28,380.57V270.13h15.39v6.62c1.82-2.11,4.03-3.93,6.62-5.46c2.59-1.53,5.66-2.3,9.2-2.3
				c4.31,0,7.74,1.13,10.28,3.38c2.54,2.25,4.43,5.08,5.68,8.48c1.25,3.4,2.06,6.86,2.44,10.35c0.38,3.5,0.58,6.5,0.58,8.99v20.13
				c0,5.85-0.58,11.39-1.73,16.61c-1.15,5.23-3.24,9.44-6.26,12.66c-3.02,3.21-7.26,4.82-12.73,4.82c-2.97,0-5.61-0.74-7.91-2.23
				s-4.36-3.19-6.18-5.11v33.51H742.28z M768.74,342.32c2.68,0,4.6-0.98,5.75-2.95c1.15-1.96,1.87-4.62,2.16-7.98
				c0.29-3.35,0.43-7.05,0.43-11.07v-20.13c0-3.45-0.19-6.64-0.58-9.56c-0.38-2.92-1.2-5.25-2.44-6.98
				c-1.25-1.73-3.21-2.59-5.9-2.59c-2.01,0-3.93,0.43-5.75,1.29c-1.82,0.86-3.4,1.87-4.75,3.02v53.21c1.44,1.06,3.07,1.94,4.89,2.66
				C764.38,341.96,766.44,342.32,768.74,342.32z"/>
		</g>
	</g>
	<g class="st1">
		<g>
			<path class="st2" d="M518.51,503.54c-8.25,0-14.65-1.73-19.2-5.18c-4.56-3.45-7.72-8.1-9.49-13.95
				c-1.78-5.85-2.66-12.37-2.66-19.56v-41.13c0-7.86,0.88-14.72,2.66-20.57c1.77-5.85,4.94-10.38,9.49-13.59
				c4.55-3.21,10.95-4.82,19.2-4.82c7.29,0,13.06,1.34,17.33,4.03c4.26,2.68,7.33,6.52,9.2,11.5c1.87,4.99,2.8,10.98,2.8,17.98v9.2
				h-15.39v-8.2c0-4.31-0.22-8.13-0.65-11.43s-1.61-5.87-3.52-7.69c-1.92-1.82-5.13-2.73-9.63-2.73c-4.6,0-7.96,0.98-10.07,2.95
				c-2.11,1.97-3.48,4.75-4.1,8.34c-0.62,3.59-0.93,7.79-0.93,12.58v46.16c0,5.85,0.48,10.48,1.44,13.88
				c0.96,3.4,2.54,5.82,4.75,7.26c2.2,1.44,5.18,2.16,8.92,2.16c4.41,0,7.57-0.98,9.49-2.95c1.92-1.96,3.11-4.67,3.6-8.12
				c0.48-3.45,0.72-7.48,0.72-12.08v-8.63h15.39v8.63c0,7.1-0.86,13.35-2.59,18.77c-1.73,5.42-4.7,9.64-8.92,12.66
				C532.12,502.03,526.18,503.54,518.51,503.54z"/>
			<path class="st2" d="M584.95,503.39c-6.14,0-10.98-1.25-14.52-3.74c-3.55-2.49-6.07-6.04-7.55-10.64
				c-1.49-4.6-2.23-10.02-2.23-16.25V448.6c0-6.23,0.74-11.65,2.23-16.25c1.49-4.6,4-8.15,7.55-10.64
				c3.55-2.49,8.39-3.74,14.52-3.74c6.13,0,10.95,1.25,14.45,3.74c3.5,2.49,5.99,6.04,7.48,10.64c1.49,4.6,2.23,10.02,2.23,16.25
				v24.16c0,6.23-0.74,11.65-2.23,16.25c-1.49,4.6-3.98,8.15-7.48,10.64C595.9,502.15,591.09,503.39,584.95,503.39z M584.95,492.03
				c2.97,0,5.06-0.86,6.26-2.59c1.2-1.73,1.92-4,2.16-6.83c0.24-2.83,0.36-5.77,0.36-8.84v-26.03c0-3.16-0.12-6.13-0.36-8.92
				c-0.24-2.78-0.96-5.06-2.16-6.83c-1.2-1.77-3.29-2.66-6.26-2.66c-2.97,0-5.08,0.89-6.33,2.66c-1.25,1.78-1.99,4.05-2.23,6.83
				c-0.24,2.78-0.36,5.75-0.36,8.92v26.03c0,3.07,0.12,6.02,0.36,8.84c0.24,2.83,0.98,5.11,2.23,6.83
				C579.87,491.17,581.98,492.03,584.95,492.03z"/>
			<path class="st2" d="M642.48,503.39c-7,0-12.22-2.56-15.68-7.69c-3.45-5.13-5.18-13.83-5.18-26.1v-16.11
				c0-6.33,0.53-12.2,1.58-17.62c1.05-5.42,3.04-9.75,5.97-13.02c2.92-3.26,7.21-4.89,12.87-4.89c2.78,0,5.32,0.62,7.62,1.87
				c2.3,1.25,4.36,2.78,6.18,4.6v-38.69h15.39v116.49h-15.39v-5.32c-1.82,1.92-3.81,3.48-5.97,4.67
				C647.72,502.79,645.25,503.39,642.48,503.39z M646.36,491.31c1.44,0,2.97-0.26,4.6-0.79c1.63-0.53,3.26-1.32,4.89-2.37v-54.5
				c-1.34-0.96-2.83-1.8-4.46-2.52c-1.63-0.72-3.4-1.08-5.32-1.08c-3.55,0-5.95,1.7-7.19,5.11c-1.25,3.4-1.87,7.5-1.87,12.3v23.44
				c0,3.84,0.22,7.31,0.65,10.43c0.43,3.12,1.32,5.56,2.66,7.33C641.66,490.43,643.67,491.31,646.36,491.31z"/>
			<path class="st2" d="M709.78,503.39c-6.52,0-11.55-1.27-15.1-3.81c-3.55-2.54-6.02-6.28-7.41-11.22
				c-1.39-4.94-2.09-11-2.09-18.19v-18.98c0-7.38,0.72-13.52,2.16-18.41c1.44-4.89,3.96-8.58,7.55-11.07
				c3.59-2.49,8.56-3.74,14.88-3.74c7,0,12.15,1.44,15.46,4.31c3.31,2.88,5.49,7.02,6.54,12.44c1.05,5.42,1.58,11.91,1.58,19.49
				v6.76h-32.79v16.68c0,3.36,0.31,6.09,0.93,8.2c0.62,2.11,1.63,3.67,3.02,4.67c1.39,1.01,3.19,1.51,5.39,1.51
				c2.3,0,4.05-0.55,5.25-1.65c1.2-1.1,2.01-2.68,2.44-4.75c0.43-2.06,0.65-4.48,0.65-7.26v-5.03h14.96v3.16
				c0,8.34-1.78,14.91-5.32,19.7C724.35,501,718.31,503.39,709.78,503.39z M700.57,452.63h17.69v-7.48c0-3.45-0.19-6.35-0.58-8.7
				c-0.38-2.35-1.17-4.12-2.37-5.32c-1.2-1.2-3.09-1.8-5.68-1.8c-2.49,0-4.39,0.58-5.68,1.73c-1.29,1.15-2.18,3.09-2.66,5.82
				c-0.48,2.73-0.72,6.5-0.72,11.29V452.63z"/>
		</g>
	</g>
</g>
</svg>
