<svg width="40" height="40" viewBox="0 0 40 40" fill="none" xmlns="http://www.w3.org/2000/svg">
<path d="M5.94906 35.5863L2.8225 0.519066H37.1775L34.0475 35.5809L19.9791 39.4809L5.94906 35.5863Z" fill="#E44D26"/>
<path d="M20 36.5L31.3681 33.3481L34.0428 3.38625H20V36.5Z" fill="#F16529"/>
<path d="M20 16.3922H14.3088L13.9156 11.9878H20V7.68719H9.21532L9.31844 8.84094L10.3753 20.6931H20V16.3922ZM20 27.5619L19.9809 27.5672L15.1913 26.2734L14.8853 22.8437H10.5675L11.17 29.5966L19.9803 32.0422L20 32.0369V27.5619Z" fill="#EBEBEB"/>
<path d="M19.985 16.3922V20.6931H25.2809L24.7819 26.2709L19.985 27.5656V32.0403L28.8022 29.5966L28.8669 28.87L29.8775 17.5472L29.9822 16.3922H28.8234H19.985ZM19.985 7.68719V11.9878H30.3738L30.46 11.0216L30.6562 8.84094L30.7591 7.68719H19.985Z" fill="white"/>
</svg>
