<svg width="40" height="40" viewBox="0 0 40 40" fill="none" xmlns="http://www.w3.org/2000/svg">
<path d="M3.00782 10.0566C-0.438748 15.01 -0.00968534 21.4553 2.62313 26.7191C2.68563 26.8453 2.75125 26.9694 2.81594 27.0934L2.93907 27.3306L3.01594 27.4672L3.15313 27.7128C3.235 27.8569 3.31875 28.0003 3.40438 28.1438L3.54782 28.38C3.64282 28.5334 3.74 28.685 3.83938 28.8363L3.96375 29.0281C4.10094 29.2328 4.24125 29.4372 4.38625 29.6378L4.39844 29.6534L4.46969 29.7497C4.595 29.9225 4.72407 30.0931 4.85469 30.2619L4.99969 30.4463C5.11625 30.5928 5.23469 30.7384 5.35532 30.8834L5.49125 31.0459C5.65343 31.2373 5.81866 31.4261 5.98688 31.6122L5.99719 31.6225L6.01625 31.6438C6.18158 31.8232 6.34952 32.0002 6.52 32.1747L6.68157 32.3375C6.81375 32.4706 6.94813 32.6016 7.08375 32.7319L7.24844 32.8881C7.42969 33.0591 7.61282 33.2266 7.79969 33.3903L7.80844 33.3972L7.90438 33.4791C8.06907 33.6216 8.23657 33.7631 8.40532 33.9019L8.61282 34.0672C8.75063 34.1778 8.89 34.2866 9.03032 34.3934L9.25344 34.5631C9.40844 34.6772 9.56438 34.7894 9.72188 34.8991L9.8925 35.02L9.93938 35.0534C10.0888 35.1563 10.2416 35.2553 10.3944 35.3544L10.5913 35.4856C10.8256 35.6338 11.0631 35.7803 11.3034 35.9219L11.5003 36.0328C11.6769 36.1347 11.8547 36.2347 12.0347 36.3325C12.1322 36.385 12.2322 36.4347 12.3303 36.485C12.4575 36.5516 12.5838 36.6191 12.7131 36.6838L12.8016 36.7266L12.9581 36.8022C13.1584 36.8978 13.3603 36.9919 13.5644 37.0825L13.6925 37.14C13.9264 37.2423 14.1622 37.3404 14.3997 37.4341L14.5719 37.5019C14.7919 37.5866 15.015 37.6703 15.2391 37.7491L15.3228 37.7781C15.5688 37.8641 15.8169 37.9438 16.0669 38.0216L16.2466 38.0753C16.5009 38.1519 16.7525 38.2434 17.0147 38.2919C33.6831 41.3316 38.525 28.2753 38.525 28.2753C34.4584 33.5731 27.2403 34.9706 20.4013 33.4147C20.1422 33.3563 19.8909 33.2753 19.6381 33.2006L19.4478 33.1428C19.2015 33.0673 18.9564 32.9876 18.7128 32.9038L18.6119 32.8672C18.3946 32.7904 18.1786 32.7103 17.9638 32.6269L17.7819 32.5553C17.5469 32.4625 17.3131 32.3656 17.0822 32.2644L16.9425 32.2025C16.7447 32.1132 16.5479 32.0216 16.3522 31.9278L16.1816 31.8459C16.0281 31.7713 15.8763 31.6919 15.725 31.6138C15.6238 31.5603 15.5206 31.51 15.4203 31.4544C15.2362 31.3552 15.0538 31.2529 14.8731 31.1475L14.6884 31.0444C14.4486 30.9028 14.211 30.7572 13.9759 30.6078L13.7838 30.4797C13.6129 30.3701 13.4438 30.2577 13.2766 30.1425L13.1134 30.0278C12.9524 29.914 12.7926 29.7985 12.6341 29.6813L12.4219 29.5206C12.2762 29.4099 12.132 29.2972 11.9894 29.1825L11.7966 29.0278C11.6149 28.8789 11.4353 28.7276 11.2578 28.5738L11.1988 28.5241C11.0075 28.3553 10.8187 28.1837 10.6325 28.0094L10.4728 27.8559C10.335 27.7247 10.1994 27.5925 10.0659 27.4569L9.90657 27.2978C9.73722 27.1245 9.57074 26.9485 9.40719 26.7697L9.3825 26.7434C9.21016 26.5545 9.04128 26.3623 8.87594 26.1672L8.74344 26.0097C8.61991 25.8611 8.49834 25.7109 8.37875 25.5591L8.24532 25.3928C8.10234 25.208 7.96201 25.0211 7.82438 24.8322C4.0275 19.6528 2.66313 12.5097 5.69782 6.64345L3.00782 10.0566ZM13.7069 5.88282C11.2141 9.4697 11.3497 14.2716 13.2941 18.065C13.6195 18.7027 13.9878 19.3176 14.3966 19.9053C14.77 20.4406 15.1841 21.0775 15.6797 21.5075C15.8609 21.706 16.0475 21.8996 16.2391 22.0881L16.3866 22.2334C16.5727 22.4149 16.7632 22.5918 16.9578 22.7641L16.9809 22.7841L16.9866 22.7897C17.2043 22.9793 17.4268 23.1634 17.6538 23.3419L17.8053 23.46C18.0335 23.6358 18.2662 23.8058 18.5031 23.9697L18.5234 23.985C18.6284 24.0575 18.7353 24.125 18.8419 24.195L18.9928 24.2947C19.1628 24.4038 19.335 24.51 19.51 24.6119L19.5834 24.6544C19.7344 24.7413 19.8872 24.8269 20.0406 24.91L20.2034 24.9947C20.3094 25.05 20.4153 25.1066 20.5231 25.1603L20.5716 25.1822C20.7913 25.2903 21.0128 25.3947 21.2391 25.4931L21.3866 25.5538C21.5675 25.6306 21.7503 25.7056 21.9334 25.7756L22.1678 25.8616C22.3344 25.9234 22.5016 25.9797 22.67 26.0363L22.8972 26.1091C23.1369 26.1834 23.3738 26.2775 23.6234 26.3191C36.4931 28.4513 39.4644 18.5422 39.4644 18.5422C36.7863 22.3994 31.5994 24.24 26.0647 22.8031C25.82 22.7388 25.5769 22.6686 25.3356 22.5925L25.1166 22.5216C24.9456 22.4663 24.7757 22.4077 24.6069 22.3459L24.3769 22.2603C24.1927 22.1896 24.0098 22.1159 23.8281 22.0391L23.6803 21.9766C23.454 21.8781 23.2302 21.774 23.0091 21.6644C22.8956 21.6091 22.7841 21.5506 22.6722 21.4931L22.4778 21.3931C22.3344 21.3154 22.1924 21.2352 22.0519 21.1525L21.95 21.0947C21.7759 20.9932 21.6039 20.8882 21.4341 20.7797L21.2784 20.6759C21.1663 20.6035 21.055 20.5298 20.9444 20.455C20.7085 20.291 20.4765 20.1214 20.2488 19.9463L20.0922 19.8228C17.6697 17.9103 15.7491 15.2959 14.8363 12.3319C13.8794 9.25813 14.0856 5.80751 15.7434 3.00688L13.7069 5.88282ZM22.7053 2.76469C21.2359 4.92719 21.0916 7.61282 22.1113 10.0009C23.1866 12.5363 25.3897 14.5247 27.9613 15.4681C28.0672 15.5072 28.1734 15.5422 28.2806 15.5788L28.4216 15.6234C28.5731 15.6709 28.7234 15.7263 28.88 15.7559C35.9863 17.1291 37.9138 12.1094 38.4266 11.3703C36.7384 13.8013 33.9009 14.3847 30.4194 13.5397C30.1444 13.4731 29.8422 13.3738 29.5772 13.2797C29.2368 13.1587 28.9029 13.0201 28.5769 12.8644C27.9584 12.5666 27.3709 12.2082 26.8231 11.7944C23.7078 9.43032 21.7725 4.92126 23.8053 1.24907" fill="#0868AC"/>
</svg>
