<svg xmlns="http://www.w3.org/2000/svg" xmlns:xlink="http://www.w3.org/1999/xlink" viewBox="0 0 1819 480.65"><defs><style>.cls-1{stroke:#fff;}.cls-1,.cls-2,.cls-3,.cls-4{stroke-miterlimit:10;stroke-width:5px;}.cls-2,.cls-3,.cls-4{stroke:#000;}.cls-2{fill:url(#Gradiente_sem_nome_33);}.cls-3{fill:url(#Gradiente_sem_nome_33-2);}.cls-4{fill:url(#Gradiente_sem_nome_33-3);}</style><radialGradient id="Gradiente_sem_nome_33" cx="1319.48" cy="553.79" r="116.62" gradientUnits="userSpaceOnUse"><stop offset="0.26" stop-color="#00caf9"/><stop offset="1" stop-color="#0f173d"/></radialGradient><radialGradient id="Gradiente_sem_nome_33-2" cx="1550.73" cy="663.36" r="31.32" xlink:href="#Gradiente_sem_nome_33"/><radialGradient id="Gradiente_sem_nome_33-3" cx="1479.66" cy="540.92" r="116.11" xlink:href="#Gradiente_sem_nome_33"/></defs><g id="armação"><path class="cls-1" d="M313.32,749.18l-1.41-.52c-41.17-15.55-74.75-46.42-95.06-85.48l-10.6-20.38c-16.78-37.11-24.88-94.47-28.66-139.5-.16-1.92-.26-3.83-.3-5.76l-.87-37.34A87.83,87.83,0,0,1,180,426.54c11.84-37.31,47.86-65.21,206.42-74.6l8.86-48.16C366,305.07,340,306.83,316.83,309c-41.21.74-103.44,7.18-155.66,13.42l-54.55,151a51.6,51.6,0,0,1,21.3,36.25c5.2,46,14.37,97.13,30.33,132.42l12.28,23.61c23.52,45.24,62.42,81,110.12,99a200.2,200.2,0,0,0,28.25,8.4Z" transform="translate(-50.5 -298.69)"/><path class="cls-1" d="M65.55,461a80,80,0,0,1,10.25.67L124.44,327c-33.77,4.3-57.68,7.68-58.89,7.68A12.55,12.55,0,0,0,53,347.24V448.47A12.55,12.55,0,0,0,65.55,461Z" transform="translate(-50.5 -298.69)"/><path class="cls-1" d="M1854.45,334.69c-3.23,0-169.08-24.19-251.28-25.65-52.06-5-118.49-7.7-203.51-7.79-1.5,0-22.47-.24-50.36.22l-70.4,52.31c17.55-2.2,36.07-3.94,52.35-4.47,35.63-1.17,66.94-.8,68.67-.8,272.88.3,324.27,32,338.88,78a88.22,88.22,0,0,1,3.53,33.66l-.87,37.34c0,1.93-.14,3.84-.3,5.76-3.78,45-11.88,102.39-28.66,139.5l-10.6,20.38c-20.31,39.06-53.89,69.93-95.07,85.48-18.58,7-36.32,10.3-51,10.42H1267.66c-55.87,0-99.82-33-129.72-65.26-14.4-15.55-28.19-41.33-34.11-57.13S1090,595.24,1088,587.35s-8.93-38.21-9.87-53.3c-.88-14.1-1.37-23.47-1.64-29.88L1030,538.78c1.62,8.24,3.73,16.8,6.15,27.7l20.58,68.6c5.94,23.82,22.84,48.15,39.51,66.17,34.64,37.43,85.55,75.59,150.27,75.59h333.83c17-.13,37.53-3.93,59.06-12.06,47.7-18,86.6-53.78,110.12-99l12.28-23.61c16-35.29,25.13-86.39,30.33-132.42,4.25-33.11,33.65-48.71,62.37-48.71A12.55,12.55,0,0,0,1867,448.47V347.24A12.55,12.55,0,0,0,1854.45,334.69Z" transform="translate(-50.5 -298.69)"/><path class="cls-1" d="M1025.56,492.06c.13,2.57.29,5.41.46,8.53l51.14-38,.33-9.7c.6-12.06,3.54-22.35,8.57-33.32,6.68-14.56,17.94-20,23.69-23.69,18.79-12.06,51.32-21.71,54.13-22.74s38.21-7.66,45.36-8.7L1290.52,304c-18,1.57-36.56,3.88-53.2,6.36l-57.17,9.15c-2.28,0-50.37,8.95-53.91,10.24-2.74,1-31.48,7.21-52.26,19.17-65.59,28.15-160.16,27.66-229-.6-20.68-11.56-48.49-17.58-51.19-18.57-3.54-1.29-51.63-10.24-53.91-10.24l-57.17-9.15c-26.07-3.88-56.88-7.36-82.8-8.21-41.27-1.35-77.55-.93-79.54-.93-33.2,0-63.55.48-91.33,1.29l-8.78,47.76c29.15-1.14,61.87-1.75,98.6-1.79,1.72,0,33-.37,68.67.8,22.38.73,49,3.74,71.48,7.09l49.35,7.9c2,0,43.48,7.72,46.54,8.84,2.81,1,35.33,10.68,54.13,22.74,5.75,3.69,17,9.13,23.68,23.69,5,11,8,21.26,8.58,33.32l1.29,37.74c0,3.94,0,11.84-2,43.42-.94,15.09-7.9,45.4-9.87,53.3s-9.87,33.55-15.79,49.34-19.72,41.58-34.11,57.13c-29.9,32.31-73.85,65.26-129.72,65.26H362.9a122.91,122.91,0,0,1-17.58-1.49l-3.54,19.25H673.54c64.72,0,115.63-38.16,150.27-75.59,16.67-18,33.57-42.35,39.51-66.17l20.58-68.6c4.57-20.58,8.05-32.82,9.14-50.3.63-10,1.08-17.91,1.41-24.27C904.82,454.1,1015.23,455.87,1025.56,492.06Z" transform="translate(-50.5 -298.69)"/></g><g id="x"><path class="cls-2" d="M1401.47,503.31l-103.88-86.89c-9.15-7.65-24-7.65-33.13,0l-20.11,16.82c-9.15,7.66-9.15,20.06,0,27.71l111,92.84-111,92.84c-9.15,7.65-9.15,20.06,0,27.71l20.11,16.82c9.15,7.65,24,7.65,33.13,0l19.61-16.41Z" transform="translate(-50.5 -298.69)"/><path class="cls-3" d="M1572.81,646.63l-20.09-16.8-30.93,62.94c9.19,6,22.46,5.45,30.91-1.61l20.11-16.82C1582,666.69,1582,654.28,1572.81,646.63Z" transform="translate(-50.5 -298.69)"/><path class="cls-4" d="M1526.67,608l-64.86-54.25,111-92.84c9.14-7.65,9.14-20.05,0-27.71l-20.11-16.82c-9.15-7.65-24-7.65-33.13,0L1454,471.28l-74.34,151.24,28.94-24.2,87.07,72.83Z" transform="translate(-50.5 -298.69)"/></g></svg>